<svg xmlns="http://www.w3.org/2000/svg" xmlns:rdkit="http://www.rdkit.org/xml" xmlns:xlink="http://www.w3.org/1999/xlink" version="1.1" baseProfile="full" xml:space="preserve" width="750px" height="750px" viewBox="0 0 750 750">
<!-- END OF HEADER -->
<rect style="opacity:1.0;fill:#FFFFFF;stroke:none" width="750" height="750" x="0" y="0"> </rect>
<rect style="opacity:1.0;fill:#FFFFFF;stroke:none" width="750" height="750" x="0" y="0"> </rect>
<rect style="opacity:1.0;fill:#FFFFFF;stroke:none" width="750" height="750" x="0" y="0"> </rect>
<rect style="opacity:1.0;fill:#FFFFFF;stroke:none" width="750" height="750" x="0" y="0"> </rect>
<rect style="opacity:1.0;fill:#FFFFFF;stroke:none" width="750" height="750" x="0" y="0"> </rect>
<rect style="opacity:1.0;fill:#FFFFFF;stroke:none" width="750" height="750" x="0" y="0"> </rect>
<rect style="opacity:1.0;fill:#FFFFFF;stroke:none" width="750" height="750" x="0" y="0"> </rect>
<rect style="opacity:1.0;fill:#FFFFFF;stroke:none" width="750" height="750" x="0" y="0"> </rect>
<rect style="opacity:1.0;fill:#FFFFFF;stroke:none" width="750" height="750" x="0" y="0"> </rect>
<rect style="opacity:1.0;fill:#FFFFFF;stroke:none" width="750" height="750" x="0" y="0"> </rect>
<path class="bond-0 atom-0 atom-1" d="M 125.077,127.532 L 142.015,127.532" style="fill:none;fill-rule:evenodd;stroke:#0000FF;stroke-width:2.0px;stroke-linecap:butt;stroke-linejoin:miter;stroke-opacity:1"/>
<path class="bond-0 atom-0 atom-1" d="M 125.077,122.945 L 142.015,122.945" style="fill:none;fill-rule:evenodd;stroke:#0000FF;stroke-width:2.0px;stroke-linecap:butt;stroke-linejoin:miter;stroke-opacity:1"/>
<path class="atom-0" d="M 113.733 121.991 L 114.614 121.991 L 114.614 124.752 L 117.935 124.752 L 117.935 121.991 L 118.815 121.991 L 118.815 128.486 L 117.935 128.486 L 117.935 125.486 L 114.614 125.486 L 114.614 128.486 L 113.733 128.486 L 113.733 121.991 " fill="#0000FF"/>
<path class="atom-0" d="M 120.604 121.991 L 122.733 125.431 Q 122.944 125.771, 123.283 126.385 Q 123.623 127, 123.641 127.037 L 123.641 121.991 L 124.504 121.991 L 124.504 128.486 L 123.614 128.486 L 121.329 124.725 Q 121.063 124.284, 120.779 123.78 Q 120.504 123.275, 120.421 123.119 L 120.421 128.486 L 119.577 128.486 L 119.577 121.991 L 120.604 121.991 " fill="#0000FF"/>
<path class="atom-1" d="M 143.541 121.991 L 145.669 125.431 Q 145.88 125.771, 146.219 126.385 Q 146.559 127, 146.577 127.037 L 146.577 121.991 L 147.44 121.991 L 147.44 128.486 L 146.55 128.486 L 144.265 124.725 Q 143.999 124.284, 143.715 123.78 Q 143.44 123.275, 143.357 123.119 L 143.357 128.486 L 142.513 128.486 L 142.513 121.991 L 143.541 121.991 " fill="#0000FF"/>
<path class="atom-1" d="M 148.219 121.991 L 149.1 121.991 L 149.1 124.752 L 152.421 124.752 L 152.421 121.991 L 153.302 121.991 L 153.302 128.486 L 152.421 128.486 L 152.421 125.486 L 149.1 125.486 L 149.1 128.486 L 148.219 128.486 L 148.219 121.991 " fill="#0000FF"/>
<path class="atom-1" d="M 153.617 128.258 Q 153.774 127.853, 154.15 127.629 Q 154.525 127.399, 155.046 127.399 Q 155.694 127.399, 156.057 127.75 Q 156.42 128.101, 156.42 128.725 Q 156.42 129.361, 155.948 129.954 Q 155.482 130.547, 154.513 131.25 L 156.493 131.25 L 156.493 131.734 L 153.605 131.734 L 153.605 131.328 Q 154.404 130.759, 154.876 130.335 Q 155.355 129.912, 155.585 129.53 Q 155.815 129.149, 155.815 128.755 Q 155.815 128.343, 155.609 128.113 Q 155.403 127.883, 155.046 127.883 Q 154.701 127.883, 154.471 128.022 Q 154.241 128.162, 154.077 128.47 L 153.617 128.258 " fill="#0000FF"/>
<path class="atom-1" d="M 153.847 123.162 L 154.991 123.162 L 154.991 121.957 L 155.5 121.957 L 155.5 123.162 L 156.675 123.162 L 156.675 123.598 L 155.5 123.598 L 155.5 124.809 L 154.991 124.809 L 154.991 123.598 L 153.847 123.598 L 153.847 123.162 " fill="#0000FF"/>
<path class="bond-0 atom-1 atom-0" d="M 375.727,121.203 L 376.492,122.527" style="fill:none;fill-rule:evenodd;stroke:#FF7F00;stroke-width:1.0px;stroke-linecap:butt;stroke-linejoin:miter;stroke-opacity:1"/>
<path class="bond-0 atom-1 atom-0" d="M 370.593,123.284 L 372.122,125.933" style="fill:none;fill-rule:evenodd;stroke:#0000FF;stroke-width:1.0px;stroke-linecap:butt;stroke-linejoin:miter;stroke-opacity:1"/>
<path class="bond-0 atom-1 atom-0" d="M 365.459,125.366 L 367.752,129.338" style="fill:none;fill-rule:evenodd;stroke:#0000FF;stroke-width:1.0px;stroke-linecap:butt;stroke-linejoin:miter;stroke-opacity:1"/>
<path class="bond-1 atom-1 atom-2" d="M 386.155,119.121 L 393.412,123.311" style="fill:none;fill-rule:evenodd;stroke:#FF7F00;stroke-width:2.0px;stroke-linecap:butt;stroke-linejoin:miter;stroke-opacity:1"/>
<path class="bond-1 atom-1 atom-2" d="M 393.412,123.311 L 400.668,127.5" style="fill:none;fill-rule:evenodd;stroke:#7F4C19;stroke-width:2.0px;stroke-linecap:butt;stroke-linejoin:miter;stroke-opacity:1"/>
<path class="atom-0" d="M 352.147 125.814 L 353.027 125.814 L 353.027 128.575 L 356.348 128.575 L 356.348 125.814 L 357.229 125.814 L 357.229 132.309 L 356.348 132.309 L 356.348 129.309 L 353.027 129.309 L 353.027 132.309 L 352.147 132.309 L 352.147 125.814 " fill="#0000FF"/>
<path class="atom-0" d="M 357.544 132.081 Q 357.701 131.675, 358.077 131.451 Q 358.452 131.221, 358.973 131.221 Q 359.621 131.221, 359.984 131.573 Q 360.348 131.924, 360.348 132.547 Q 360.348 133.183, 359.875 133.777 Q 359.409 134.37, 358.44 135.072 L 360.42 135.072 L 360.42 135.557 L 357.532 135.557 L 357.532 135.151 Q 358.331 134.582, 358.804 134.158 Q 359.282 133.734, 359.512 133.353 Q 359.742 132.971, 359.742 132.578 Q 359.742 132.166, 359.536 131.936 Q 359.33 131.706, 358.973 131.706 Q 358.628 131.706, 358.398 131.845 Q 358.168 131.984, 358.004 132.293 L 357.544 132.081 " fill="#0000FF"/>
<path class="atom-0" d="M 362.209 125.814 L 364.338 129.254 Q 364.549 129.593, 364.888 130.208 Q 365.228 130.823, 365.246 130.859 L 365.246 125.814 L 366.108 125.814 L 366.108 132.309 L 365.218 132.309 L 362.934 128.548 Q 362.668 128.107, 362.384 127.603 Q 362.108 127.098, 362.026 126.942 L 362.026 132.309 L 361.182 132.309 L 361.182 125.814 L 362.209 125.814 " fill="#0000FF"/>
<path class="atom-1" d="M 383.352 114.346 Q 384.462 114.346, 385.022 114.85 Q 385.582 115.346, 385.582 116.254 Q 385.582 117.153, 385.004 117.667 Q 384.435 118.171, 383.352 118.171 L 382.316 118.171 L 382.316 120.841 L 381.435 120.841 L 381.435 114.346 L 383.352 114.346 M 383.352 117.437 Q 383.985 117.437, 384.325 117.135 Q 384.664 116.832, 384.664 116.254 Q 384.664 115.676, 384.325 115.382 Q 383.995 115.079, 383.352 115.079 L 382.316 115.079 L 382.316 117.437 L 383.352 117.437 " fill="#FF7F00"/>
<path class="atom-1" d="M 380.967 107.2 L 381.848 107.2 L 381.848 109.962 L 385.169 109.962 L 385.169 107.2 L 386.05 107.2 L 386.05 113.696 L 385.169 113.696 L 385.169 110.696 L 381.848 110.696 L 381.848 113.696 L 380.967 113.696 L 380.967 107.2 " fill="#FF7F00"/>
<path class="atom-2" d="M 404.321 128.896 Q 404.945 129.07, 405.257 129.456 Q 405.578 129.832, 405.578 130.392 Q 405.578 131.291, 405 131.804 Q 404.431 132.309, 403.349 132.309 L 401.165 132.309 L 401.165 125.814 L 403.083 125.814 Q 404.193 125.814, 404.752 126.263 Q 405.312 126.713, 405.312 127.538 Q 405.312 128.52, 404.321 128.896 M 402.037 126.548 L 402.037 128.584 L 403.083 128.584 Q 403.725 128.584, 404.055 128.327 Q 404.394 128.061, 404.394 127.538 Q 404.394 126.548, 403.083 126.548 L 402.037 126.548 M 403.349 131.575 Q 403.982 131.575, 404.321 131.272 Q 404.661 130.97, 404.661 130.392 Q 404.661 129.859, 404.284 129.593 Q 403.917 129.318, 403.211 129.318 L 402.037 129.318 L 402.037 131.575 L 403.349 131.575 " fill="#7F4C19"/>
<path class="atom-2" d="M 407.055 127.593 L 407.156 128.245 Q 407.651 127.511, 408.459 127.511 Q 408.716 127.511, 409.064 127.603 L 408.927 128.373 Q 408.532 128.281, 408.312 128.281 Q 407.927 128.281, 407.67 128.437 Q 407.422 128.584, 407.22 128.942 L 407.22 132.309 L 406.358 132.309 L 406.358 127.593 L 407.055 127.593 " fill="#7F4C19"/>
<path class="bond-0 atom-0 atom-1" d="M 556.711,121.675 L 565.315,126.642" style="fill:none;fill-rule:evenodd;stroke:#CCCC00;stroke-width:2.0px;stroke-linecap:butt;stroke-linejoin:miter;stroke-opacity:1"/>
<path class="bond-0 atom-0 atom-1" d="M 565.315,126.642 L 573.919,131.61" style="fill:none;fill-rule:evenodd;stroke:#000000;stroke-width:2.0px;stroke-linecap:butt;stroke-linejoin:miter;stroke-opacity:1"/>
<path class="bond-1 atom-1 atom-2" d="M 573.919,131.61 L 582.332,126.752" style="fill:none;fill-rule:evenodd;stroke:#000000;stroke-width:2.0px;stroke-linecap:butt;stroke-linejoin:miter;stroke-opacity:1"/>
<path class="bond-1 atom-1 atom-2" d="M 582.332,126.752 L 590.745,121.895" style="fill:none;fill-rule:evenodd;stroke:#0000FF;stroke-width:2.0px;stroke-linecap:butt;stroke-linejoin:miter;stroke-opacity:1"/>
<path class="bond-2 atom-2 atom-3" d="M 596.819,121.895 L 605.232,126.752" style="fill:none;fill-rule:evenodd;stroke:#0000FF;stroke-width:2.0px;stroke-linecap:butt;stroke-linejoin:miter;stroke-opacity:1"/>
<path class="bond-2 atom-2 atom-3" d="M 605.232,126.752 L 613.645,131.61" style="fill:none;fill-rule:evenodd;stroke:#000000;stroke-width:2.0px;stroke-linecap:butt;stroke-linejoin:miter;stroke-opacity:1"/>
<path class="bond-3 atom-3 atom-4" d="M 613.645,131.61 L 622.058,126.752" style="fill:none;fill-rule:evenodd;stroke:#000000;stroke-width:2.0px;stroke-linecap:butt;stroke-linejoin:miter;stroke-opacity:1"/>
<path class="bond-3 atom-3 atom-4" d="M 622.058,126.752 L 630.472,121.895" style="fill:none;fill-rule:evenodd;stroke:#0000FF;stroke-width:2.0px;stroke-linecap:butt;stroke-linejoin:miter;stroke-opacity:1"/>
<path class="bond-4 atom-4 atom-5" d="M 636.545,121.895 L 650.422,129.907" style="fill:none;fill-rule:evenodd;stroke:#0000FF;stroke-width:2.0px;stroke-linecap:butt;stroke-linejoin:miter;stroke-opacity:1"/>
<path class="bond-5 atom-5 atom-6" d="M 659.781,127.909 L 670.383,121.788" style="fill:none;fill-rule:evenodd;stroke:#0000FF;stroke-width:2.0px;stroke-linecap:butt;stroke-linejoin:miter;stroke-opacity:1"/>
<path class="bond-6 atom-6 atom-7" d="M 676.271,121.895 L 690.149,129.907" style="fill:none;fill-rule:evenodd;stroke:#0000FF;stroke-width:2.0px;stroke-linecap:butt;stroke-linejoin:miter;stroke-opacity:1"/>
<path class="bond-7 atom-7 atom-8" d="M 699.507,127.909 L 704.937,124.775" style="fill:none;fill-rule:evenodd;stroke:#0000FF;stroke-width:2.0px;stroke-linecap:butt;stroke-linejoin:miter;stroke-opacity:1"/>
<path class="bond-7 atom-7 atom-8" d="M 704.937,124.775 L 710.366,121.64" style="fill:none;fill-rule:evenodd;stroke:#7F4C19;stroke-width:2.0px;stroke-linecap:butt;stroke-linejoin:miter;stroke-opacity:1"/>
<path class="atom-0" d="M 546.459 116.894 L 547.34 116.894 L 547.34 119.655 L 550.661 119.655 L 550.661 116.894 L 551.542 116.894 L 551.542 123.389 L 550.661 123.389 L 550.661 120.389 L 547.34 120.389 L 547.34 123.389 L 546.459 123.389 L 546.459 116.894 " fill="#CCCC00"/>
<path class="atom-0" d="M 552.22 122.38 Q 552.294 122.408, 552.597 122.536 Q 552.899 122.665, 553.23 122.747 Q 553.569 122.821, 553.899 122.821 Q 554.514 122.821, 554.872 122.527 Q 555.23 122.224, 555.23 121.701 Q 555.23 121.344, 555.046 121.123 Q 554.872 120.903, 554.597 120.784 Q 554.321 120.665, 553.863 120.527 Q 553.285 120.353, 552.936 120.188 Q 552.597 120.022, 552.349 119.674 Q 552.11 119.325, 552.11 118.738 Q 552.11 117.922, 552.661 117.417 Q 553.221 116.912, 554.321 116.912 Q 555.074 116.912, 555.927 117.27 L 555.716 117.977 Q 554.936 117.655, 554.349 117.655 Q 553.716 117.655, 553.367 117.922 Q 553.019 118.178, 553.028 118.628 Q 553.028 118.977, 553.202 119.188 Q 553.386 119.399, 553.643 119.518 Q 553.909 119.637, 554.349 119.775 Q 554.936 119.958, 555.285 120.142 Q 555.633 120.325, 555.881 120.701 Q 556.138 121.068, 556.138 121.701 Q 556.138 122.6, 555.532 123.087 Q 554.936 123.564, 553.936 123.564 Q 553.358 123.564, 552.918 123.435 Q 552.487 123.316, 551.973 123.105 L 552.22 122.38 " fill="#CCCC00"/>
<path class="atom-2" d="M 592.346 116.894 L 594.474 120.334 Q 594.686 120.674, 595.025 121.289 Q 595.364 121.903, 595.383 121.94 L 595.383 116.894 L 596.245 116.894 L 596.245 123.389 L 595.355 123.389 L 593.071 119.628 Q 592.805 119.188, 592.52 118.683 Q 592.245 118.178, 592.163 118.022 L 592.163 123.389 L 591.318 123.389 L 591.318 116.894 L 592.346 116.894 " fill="#0000FF"/>
<path class="atom-2" d="M 591.241 109.749 L 592.121 109.749 L 592.121 112.51 L 595.442 112.51 L 595.442 109.749 L 596.323 109.749 L 596.323 116.244 L 595.442 116.244 L 595.442 113.244 L 592.121 113.244 L 592.121 116.244 L 591.241 116.244 L 591.241 109.749 " fill="#0000FF"/>
<path class="atom-4" d="M 632.072 116.894 L 634.201 120.334 Q 634.412 120.674, 634.751 121.289 Q 635.091 121.903, 635.109 121.94 L 635.109 116.894 L 635.972 116.894 L 635.972 123.389 L 635.082 123.389 L 632.797 119.628 Q 632.531 119.188, 632.247 118.683 Q 631.972 118.178, 631.889 118.022 L 631.889 123.389 L 631.045 123.389 L 631.045 116.894 L 632.072 116.894 " fill="#0000FF"/>
<path class="atom-4" d="M 630.967 109.749 L 631.848 109.749 L 631.848 112.51 L 635.169 112.51 L 635.169 109.749 L 636.05 109.749 L 636.05 116.244 L 635.169 116.244 L 635.169 113.244 L 631.848 113.244 L 631.848 116.244 L 630.967 116.244 L 630.967 109.749 " fill="#0000FF"/>
<path class="atom-5" d="M 651.936 128.362 L 654.064 131.802 Q 654.275 132.142, 654.615 132.757 Q 654.954 133.371, 654.972 133.408 L 654.972 128.362 L 655.835 128.362 L 655.835 134.858 L 654.945 134.858 L 652.66 131.096 Q 652.394 130.656, 652.11 130.151 Q 651.835 129.646, 651.752 129.49 L 651.752 134.858 L 650.908 134.858 L 650.908 128.362 L 651.936 128.362 " fill="#0000FF"/>
<path class="atom-5" d="M 656.38 129.533 L 657.524 129.533 L 657.524 128.328 L 658.033 128.328 L 658.033 129.533 L 659.208 129.533 L 659.208 129.969 L 658.033 129.969 L 658.033 131.18 L 657.524 131.18 L 657.524 129.969 L 656.38 129.969 L 656.38 129.533 " fill="#0000FF"/>
<path class="atom-5" d="M 650.83 135.507 L 651.711 135.507 L 651.711 138.269 L 655.032 138.269 L 655.032 135.507 L 655.913 135.507 L 655.913 142.003 L 655.032 142.003 L 655.032 139.003 L 651.711 139.003 L 651.711 142.003 L 650.83 142.003 L 650.83 135.507 " fill="#0000FF"/>
<path class="atom-6" d="M 671.799 116.894 L 673.927 120.334 Q 674.138 120.674, 674.478 121.289 Q 674.817 121.903, 674.836 121.94 L 674.836 116.894 L 675.698 116.894 L 675.698 123.389 L 674.808 123.389 L 672.524 119.628 Q 672.258 119.188, 671.973 118.683 Q 671.698 118.178, 671.615 118.022 L 671.615 123.389 L 670.771 123.389 L 670.771 116.894 L 671.799 116.894 " fill="#0000FF"/>
<path class="atom-6" d="M 670.693 109.749 L 671.574 109.749 L 671.574 112.51 L 674.895 112.51 L 674.895 109.749 L 675.776 109.749 L 675.776 116.244 L 674.895 116.244 L 674.895 113.244 L 671.574 113.244 L 671.574 116.244 L 670.693 116.244 L 670.693 109.749 " fill="#0000FF"/>
<path class="atom-7" d="M 691.662 128.362 L 693.791 131.802 Q 694.002 132.142, 694.341 132.757 Q 694.681 133.371, 694.699 133.408 L 694.699 128.362 L 695.561 128.362 L 695.561 134.858 L 694.671 134.858 L 692.387 131.096 Q 692.121 130.656, 691.836 130.151 Q 691.561 129.646, 691.479 129.49 L 691.479 134.858 L 690.635 134.858 L 690.635 128.362 L 691.662 128.362 " fill="#0000FF"/>
<path class="atom-7" d="M 696.106 129.533 L 697.251 129.533 L 697.251 128.328 L 697.759 128.328 L 697.759 129.533 L 698.934 129.533 L 698.934 129.969 L 697.759 129.969 L 697.759 131.18 L 697.251 131.18 L 697.251 129.969 L 696.106 129.969 L 696.106 129.533 " fill="#0000FF"/>
<path class="atom-8" d="M 713.911 119.977 Q 714.535 120.151, 714.847 120.536 Q 715.168 120.912, 715.168 121.472 Q 715.168 122.371, 714.59 122.885 Q 714.021 123.389, 712.938 123.389 L 710.755 123.389 L 710.755 116.894 L 712.672 116.894 Q 713.782 116.894, 714.342 117.344 Q 714.902 117.793, 714.902 118.619 Q 714.902 119.6, 713.911 119.977 M 711.626 117.628 L 711.626 119.665 L 712.672 119.665 Q 713.314 119.665, 713.645 119.408 Q 713.984 119.142, 713.984 118.619 Q 713.984 117.628, 712.672 117.628 L 711.626 117.628 M 712.938 122.656 Q 713.571 122.656, 713.911 122.353 Q 714.25 122.05, 714.25 121.472 Q 714.25 120.94, 713.874 120.674 Q 713.507 120.399, 712.801 120.399 L 711.626 120.399 L 711.626 122.656 L 712.938 122.656 " fill="#7F4C19"/>
<path class="atom-8" d="M 716.645 118.674 L 716.746 119.325 Q 717.241 118.591, 718.048 118.591 Q 718.305 118.591, 718.654 118.683 L 718.516 119.454 Q 718.122 119.362, 717.902 119.362 Q 717.516 119.362, 717.259 119.518 Q 717.012 119.665, 716.81 120.022 L 716.81 123.389 L 715.947 123.389 L 715.947 118.674 L 716.645 118.674 " fill="#7F4C19"/>
<path d="M 574.377,133.674 L 574.376,133.635 L 574.371,133.595 L 574.362,133.557 L 574.35,133.519 L 574.336,133.483 L 574.318,133.448 L 574.297,133.414 L 574.273,133.383 L 574.246,133.353 L 574.218,133.326 L 574.187,133.302 L 574.154,133.28 L 574.119,133.261 L 574.083,133.246 L 574.045,133.233 L 574.007,133.224 L 573.968,133.218 L 573.928,133.215 L 573.889,133.216 L 573.85,133.22 L 573.811,133.228 L 573.773,133.239 L 573.736,133.253 L 573.701,133.27 L 573.667,133.291 L 573.635,133.314 L 573.605,133.339 L 573.577,133.368 L 573.552,133.398 L 573.53,133.431 L 573.51,133.465 L 573.494,133.501 L 573.481,133.538 L 573.47,133.576 L 573.464,133.615 L 573.46,133.654 L 573.46,133.694 L 573.464,133.733 L 573.47,133.772 L 573.481,133.81 L 573.494,133.847 L 573.51,133.883 L 573.53,133.917 L 573.552,133.95 L 573.577,133.98 L 573.605,134.009 L 573.635,134.034 L 573.667,134.057 L 573.701,134.078 L 573.736,134.095 L 573.773,134.109 L 573.811,134.12 L 573.85,134.128 L 573.889,134.132 L 573.928,134.133 L 573.968,134.13 L 574.007,134.124 L 574.045,134.115 L 574.083,134.102 L 574.119,134.087 L 574.154,134.068 L 574.187,134.046 L 574.218,134.022 L 574.246,133.995 L 574.273,133.965 L 574.297,133.934 L 574.318,133.901 L 574.336,133.865 L 574.35,133.829 L 574.362,133.791 L 574.371,133.753 L 574.376,133.713 L 574.377,133.674 L 573.919,133.674 Z" style="fill:#000000;fill-rule:evenodd;fill-opacity:1;stroke:#000000;stroke-width:0.0px;stroke-linecap:butt;stroke-linejoin:miter;stroke-opacity:1;"/>
<path d="M 614.104,133.674 L 614.102,133.635 L 614.097,133.595 L 614.089,133.557 L 614.077,133.519 L 614.062,133.483 L 614.044,133.448 L 614.023,133.414 L 613.999,133.383 L 613.973,133.353 L 613.944,133.326 L 613.913,133.302 L 613.88,133.28 L 613.845,133.261 L 613.809,133.246 L 613.772,133.233 L 613.733,133.224 L 613.694,133.218 L 613.655,133.215 L 613.615,133.216 L 613.576,133.22 L 613.537,133.228 L 613.5,133.239 L 613.463,133.253 L 613.427,133.27 L 613.393,133.291 L 613.361,133.314 L 613.331,133.339 L 613.304,133.368 L 613.279,133.398 L 613.256,133.431 L 613.237,133.465 L 613.22,133.501 L 613.207,133.538 L 613.197,133.576 L 613.19,133.615 L 613.187,133.654 L 613.187,133.694 L 613.19,133.733 L 613.197,133.772 L 613.207,133.81 L 613.22,133.847 L 613.237,133.883 L 613.256,133.917 L 613.279,133.95 L 613.304,133.98 L 613.331,134.009 L 613.361,134.034 L 613.393,134.057 L 613.427,134.078 L 613.463,134.095 L 613.5,134.109 L 613.537,134.12 L 613.576,134.128 L 613.615,134.132 L 613.655,134.133 L 613.694,134.13 L 613.733,134.124 L 613.772,134.115 L 613.809,134.102 L 613.845,134.087 L 613.88,134.068 L 613.913,134.046 L 613.944,134.022 L 613.973,133.995 L 613.999,133.965 L 614.023,133.934 L 614.044,133.901 L 614.062,133.865 L 614.077,133.829 L 614.089,133.791 L 614.097,133.753 L 614.102,133.713 L 614.104,133.674 L 613.645,133.674 Z" style="fill:#000000;fill-rule:evenodd;fill-opacity:1;stroke:#000000;stroke-width:0.0px;stroke-linecap:butt;stroke-linejoin:miter;stroke-opacity:1;"/>
<path d="M 653.83,142.691 L 653.829,142.651 L 653.823,142.612 L 653.815,142.573 L 653.803,142.536 L 653.788,142.499 L 653.77,142.464 L 653.749,142.431 L 653.726,142.399 L 653.699,142.37 L 653.671,142.343 L 653.64,142.318 L 653.607,142.297 L 653.572,142.278 L 653.536,142.262 L 653.498,142.25 L 653.46,142.24 L 653.421,142.235 L 653.381,142.232 L 653.342,142.233 L 653.303,142.237 L 653.264,142.245 L 653.226,142.256 L 653.189,142.27 L 653.154,142.287 L 653.12,142.307 L 653.088,142.33 L 653.058,142.356 L 653.03,142.384 L 653.005,142.415 L 652.983,142.447 L 652.963,142.482 L 652.947,142.517 L 652.933,142.555 L 652.923,142.593 L 652.917,142.632 L 652.913,142.671 L 652.913,142.71 L 652.917,142.75 L 652.923,142.789 L 652.933,142.827 L 652.947,142.864 L 652.963,142.9 L 652.983,142.934 L 653.005,142.967 L 653.03,142.997 L 653.058,143.025 L 653.088,143.051 L 653.12,143.074 L 653.154,143.094 L 653.189,143.112 L 653.226,143.126 L 653.264,143.137 L 653.303,143.144 L 653.342,143.148 L 653.381,143.149 L 653.421,143.147 L 653.46,143.141 L 653.498,143.132 L 653.536,143.119 L 653.572,143.103 L 653.607,143.085 L 653.64,143.063 L 653.671,143.038 L 653.699,143.011 L 653.726,142.982 L 653.749,142.951 L 653.77,142.917 L 653.788,142.882 L 653.803,142.845 L 653.815,142.808 L 653.823,142.769 L 653.829,142.73 L 653.83,142.691 L 653.371,142.691 Z" style="fill:#000000;fill-rule:evenodd;fill-opacity:1;stroke:#000000;stroke-width:0.0px;stroke-linecap:butt;stroke-linejoin:miter;stroke-opacity:1;"/>
<path d="M 694.474,135.546 L 694.472,135.506 L 694.467,135.467 L 694.459,135.428 L 694.447,135.391 L 694.432,135.354 L 694.414,135.319 L 694.393,135.286 L 694.37,135.254 L 694.343,135.225 L 694.314,135.198 L 694.283,135.173 L 694.25,135.152 L 694.216,135.133 L 694.179,135.117 L 694.142,135.105 L 694.104,135.095 L 694.065,135.09 L 694.025,135.087 L 693.986,135.088 L 693.947,135.092 L 693.908,135.1 L 693.87,135.111 L 693.833,135.125 L 693.798,135.142 L 693.764,135.162 L 693.732,135.185 L 693.702,135.211 L 693.674,135.239 L 693.649,135.27 L 693.627,135.302 L 693.607,135.336 L 693.591,135.372 L 693.577,135.409 L 693.567,135.448 L 693.56,135.487 L 693.557,135.526 L 693.557,135.565 L 693.56,135.605 L 693.567,135.644 L 693.577,135.682 L 693.591,135.719 L 693.607,135.755 L 693.627,135.789 L 693.649,135.822 L 693.674,135.852 L 693.702,135.88 L 693.732,135.906 L 693.764,135.929 L 693.798,135.949 L 693.833,135.967 L 693.87,135.981 L 693.908,135.992 L 693.947,135.999 L 693.986,136.003 L 694.025,136.004 L 694.065,136.002 L 694.104,135.996 L 694.142,135.986 L 694.179,135.974 L 694.216,135.958 L 694.25,135.94 L 694.283,135.918 L 694.314,135.893 L 694.343,135.866 L 694.37,135.837 L 694.393,135.806 L 694.414,135.772 L 694.432,135.737 L 694.447,135.7 L 694.459,135.663 L 694.467,135.624 L 694.472,135.585 L 694.474,135.546 L 694.015,135.546 Z" style="fill:#000000;fill-rule:evenodd;fill-opacity:1;stroke:#000000;stroke-width:0.0px;stroke-linecap:butt;stroke-linejoin:miter;stroke-opacity:1;"/>
<path d="M 692.639,135.546 L 692.638,135.506 L 692.632,135.467 L 692.624,135.428 L 692.612,135.391 L 692.597,135.354 L 692.579,135.319 L 692.558,135.286 L 692.535,135.254 L 692.508,135.225 L 692.48,135.198 L 692.449,135.173 L 692.416,135.152 L 692.381,135.133 L 692.345,135.117 L 692.307,135.105 L 692.269,135.095 L 692.23,135.09 L 692.19,135.087 L 692.151,135.088 L 692.112,135.092 L 692.073,135.1 L 692.035,135.111 L 691.998,135.125 L 691.963,135.142 L 691.929,135.162 L 691.897,135.185 L 691.867,135.211 L 691.839,135.239 L 691.814,135.27 L 691.792,135.302 L 691.772,135.336 L 691.756,135.372 L 691.742,135.409 L 691.732,135.448 L 691.726,135.487 L 691.722,135.526 L 691.722,135.565 L 691.726,135.605 L 691.732,135.644 L 691.742,135.682 L 691.756,135.719 L 691.772,135.755 L 691.792,135.789 L 691.814,135.822 L 691.839,135.852 L 691.867,135.88 L 691.897,135.906 L 691.929,135.929 L 691.963,135.949 L 691.998,135.967 L 692.035,135.981 L 692.073,135.992 L 692.112,135.999 L 692.151,136.003 L 692.19,136.004 L 692.23,136.002 L 692.269,135.996 L 692.307,135.986 L 692.345,135.974 L 692.381,135.958 L 692.416,135.94 L 692.449,135.918 L 692.48,135.893 L 692.508,135.866 L 692.535,135.837 L 692.558,135.806 L 692.579,135.772 L 692.597,135.737 L 692.612,135.7 L 692.624,135.663 L 692.632,135.624 L 692.638,135.585 L 692.639,135.546 L 692.18,135.546 Z" style="fill:#000000;fill-rule:evenodd;fill-opacity:1;stroke:#000000;stroke-width:0.0px;stroke-linecap:butt;stroke-linejoin:miter;stroke-opacity:1;"/>
<path class="bond-0 atom-0 atom-1" d="M 105.885,374.278 L 121.768,381.036" style="fill:none;fill-rule:evenodd;stroke:#FF7F00;stroke-width:2.0px;stroke-linecap:butt;stroke-linejoin:miter;stroke-opacity:1"/>
<path class="bond-1 atom-1 atom-2" d="M 126.99,380.141 L 133.096,375.549" style="fill:none;fill-rule:evenodd;stroke:#FF7F00;stroke-width:2.0px;stroke-linecap:butt;stroke-linejoin:miter;stroke-opacity:1"/>
<path class="bond-1 atom-1 atom-2" d="M 133.096,375.549 L 139.201,370.957" style="fill:none;fill-rule:evenodd;stroke:#FF0000;stroke-width:2.0px;stroke-linecap:butt;stroke-linejoin:miter;stroke-opacity:1"/>
<path class="bond-2 atom-2 atom-3" d="M 146.228,369.858 L 154.547,373.398" style="fill:none;fill-rule:evenodd;stroke:#FF0000;stroke-width:2.0px;stroke-linecap:butt;stroke-linejoin:miter;stroke-opacity:1"/>
<path class="bond-2 atom-2 atom-3" d="M 154.547,373.398 L 162.865,376.937" style="fill:none;fill-rule:evenodd;stroke:#A01EEF;stroke-width:2.0px;stroke-linecap:butt;stroke-linejoin:miter;stroke-opacity:1"/>
<path class="atom-0" d="M 92.1116 369.904 L 92.9924 369.904 L 92.9924 372.665 L 96.3135 372.665 L 96.3135 369.904 L 97.1943 369.904 L 97.1943 376.399 L 96.3135 376.399 L 96.3135 373.399 L 92.9924 373.399 L 92.9924 376.399 L 92.1116 376.399 L 92.1116 369.904 " fill="#FF7F00"/>
<path class="atom-0" d="M 97.5091 376.171 Q 97.6666 375.766, 98.042 375.542 Q 98.4174 375.311, 98.9382 375.311 Q 99.586 375.311, 99.9494 375.663 Q 100.313 376.014, 100.313 376.638 Q 100.313 377.273, 99.8404 377.867 Q 99.3741 378.46, 98.4053 379.163 L 100.385 379.163 L 100.385 379.647 L 97.497 379.647 L 97.497 379.241 Q 98.2963 378.672, 98.7686 378.248 Q 99.247 377.824, 99.4771 377.443 Q 99.7072 377.061, 99.7072 376.668 Q 99.7072 376.256, 99.5013 376.026 Q 99.2954 375.796, 98.9382 375.796 Q 98.593 375.796, 98.3629 375.935 Q 98.1328 376.074, 97.9693 376.383 L 97.5091 376.171 " fill="#FF7F00"/>
<path class="atom-0" d="M 103.083 369.904 Q 104.193 369.904, 104.752 370.408 Q 105.312 370.904, 105.312 371.812 Q 105.312 372.711, 104.734 373.225 Q 104.165 373.729, 103.083 373.729 L 102.046 373.729 L 102.046 376.399 L 101.165 376.399 L 101.165 369.904 L 103.083 369.904 M 103.083 372.995 Q 103.716 372.995, 104.055 372.693 Q 104.395 372.39, 104.395 371.812 Q 104.395 371.234, 104.055 370.94 Q 103.725 370.638, 103.083 370.638 L 102.046 370.638 L 102.046 372.995 L 103.083 372.995 " fill="#FF7F00"/>
<path class="atom-1" d="M 124.187 378.884 Q 125.297 378.884, 125.857 379.389 Q 126.417 379.884, 126.417 380.793 Q 126.417 381.692, 125.839 382.205 Q 125.27 382.71, 124.187 382.71 L 123.151 382.71 L 123.151 385.38 L 122.27 385.38 L 122.27 378.884 L 124.187 378.884 M 124.187 381.976 Q 124.82 381.976, 125.16 381.673 Q 125.499 381.371, 125.499 380.793 Q 125.499 380.215, 125.16 379.921 Q 124.83 379.618, 124.187 379.618 L 123.151 379.618 L 123.151 381.976 L 124.187 381.976 " fill="#FF7F00"/>
<path class="atom-1" d="M 121.802 386.029 L 122.683 386.029 L 122.683 388.791 L 126.004 388.791 L 126.004 386.029 L 126.885 386.029 L 126.885 392.525 L 126.004 392.525 L 126.004 389.525 L 122.683 389.525 L 122.683 392.525 L 121.802 392.525 L 121.802 386.029 " fill="#FF7F00"/>
<path class="atom-2" d="M 139.692 368.364 Q 139.692 366.804, 140.462 365.932 Q 141.233 365.061, 142.673 365.061 Q 144.114 365.061, 144.884 365.932 Q 145.655 366.804, 145.655 368.364 Q 145.655 369.942, 144.875 370.841 Q 144.095 371.731, 142.673 371.731 Q 141.242 371.731, 140.462 370.841 Q 139.692 369.951, 139.692 368.364 M 142.673 370.997 Q 143.664 370.997, 144.196 370.336 Q 144.737 369.666, 144.737 368.364 Q 144.737 367.088, 144.196 366.446 Q 143.664 365.795, 142.673 365.795 Q 141.682 365.795, 141.141 366.437 Q 140.609 367.079, 140.609 368.364 Q 140.609 369.675, 141.141 370.336 Q 141.682 370.997, 142.673 370.997 " fill="#FF0000"/>
<path class="atom-3" d="M 163.342 374.064 L 164.214 374.064 L 164.214 380.587 L 163.342 380.587 L 163.342 374.064 " fill="#A01EEF"/>
<path class="bond-0 atom-0 atom-1" d="M 304.055,380.336 L 312.469,375.478" style="fill:none;fill-rule:evenodd;stroke:#000000;stroke-width:2.0px;stroke-linecap:butt;stroke-linejoin:miter;stroke-opacity:1"/>
<path class="bond-0 atom-0 atom-1" d="M 312.469,375.478 L 320.882,370.621" style="fill:none;fill-rule:evenodd;stroke:#0000FF;stroke-width:2.0px;stroke-linecap:butt;stroke-linejoin:miter;stroke-opacity:1"/>
<path class="bond-1 atom-1 atom-2" d="M 326.955,370.621 L 340.833,378.633" style="fill:none;fill-rule:evenodd;stroke:#0000FF;stroke-width:2.0px;stroke-linecap:butt;stroke-linejoin:miter;stroke-opacity:1"/>
<path class="bond-2 atom-2 atom-3" d="M 350.191,376.635 L 356.918,372.751" style="fill:none;fill-rule:evenodd;stroke:#0000FF;stroke-width:2.0px;stroke-linecap:butt;stroke-linejoin:miter;stroke-opacity:1"/>
<path class="bond-2 atom-2 atom-3" d="M 356.918,372.751 L 363.645,368.867" style="fill:none;fill-rule:evenodd;stroke:#000000;stroke-width:2.0px;stroke-linecap:butt;stroke-linejoin:miter;stroke-opacity:1"/>
<path class="bond-3 atom-3 atom-4" d="M 363.645,368.867 L 372.253,373.837" style="fill:none;fill-rule:evenodd;stroke:#000000;stroke-width:2.0px;stroke-linecap:butt;stroke-linejoin:miter;stroke-opacity:1"/>
<path class="bond-3 atom-3 atom-4" d="M 372.253,373.837 L 380.861,378.807" style="fill:none;fill-rule:evenodd;stroke:#FF7F00;stroke-width:2.0px;stroke-linecap:butt;stroke-linejoin:miter;stroke-opacity:1"/>
<path class="bond-4 atom-4 atom-5" d="M 386.155,378.807 L 393.283,374.692" style="fill:none;fill-rule:evenodd;stroke:#FF7F00;stroke-width:2.0px;stroke-linecap:butt;stroke-linejoin:miter;stroke-opacity:1"/>
<path class="bond-4 atom-4 atom-5" d="M 393.283,374.692 L 400.411,370.577" style="fill:none;fill-rule:evenodd;stroke:#0000FF;stroke-width:2.0px;stroke-linecap:butt;stroke-linejoin:miter;stroke-opacity:1"/>
<path class="bond-5 atom-5 atom-6" d="M 406.408,370.621 L 420.286,378.633" style="fill:none;fill-rule:evenodd;stroke:#0000FF;stroke-width:2.0px;stroke-linecap:butt;stroke-linejoin:miter;stroke-opacity:1"/>
<path class="bond-6 atom-6 atom-7" d="M 429.644,376.635 L 435.136,373.465" style="fill:none;fill-rule:evenodd;stroke:#0000FF;stroke-width:2.0px;stroke-linecap:butt;stroke-linejoin:miter;stroke-opacity:1"/>
<path class="bond-6 atom-6 atom-7" d="M 435.136,373.465 L 440.627,370.294" style="fill:none;fill-rule:evenodd;stroke:#CCCC00;stroke-width:2.0px;stroke-linecap:butt;stroke-linejoin:miter;stroke-opacity:1"/>
<path class="bond-6 atom-6 atom-7" d="M 428.998,371.711 L 432.842,369.492" style="fill:none;fill-rule:evenodd;stroke:#0000FF;stroke-width:2.0px;stroke-linecap:butt;stroke-linejoin:miter;stroke-opacity:1"/>
<path class="bond-6 atom-6 atom-7" d="M 432.842,369.492 L 436.686,367.273" style="fill:none;fill-rule:evenodd;stroke:#CCCC00;stroke-width:2.0px;stroke-linecap:butt;stroke-linejoin:miter;stroke-opacity:1"/>
<path class="bond-7 atom-7 atom-8" d="M 445.754,370.401 L 452.878,374.514" style="fill:none;fill-rule:evenodd;stroke:#CCCC00;stroke-width:2.0px;stroke-linecap:butt;stroke-linejoin:miter;stroke-opacity:1"/>
<path class="bond-7 atom-7 atom-8" d="M 452.878,374.514 L 460.001,378.627" style="fill:none;fill-rule:evenodd;stroke:#0000FF;stroke-width:2.0px;stroke-linecap:butt;stroke-linejoin:miter;stroke-opacity:1"/>
<path class="atom-1" d="M 322.483 365.62 L 324.611 369.06 Q 324.822 369.4, 325.162 370.014 Q 325.501 370.629, 325.52 370.666 L 325.52 365.62 L 326.382 365.62 L 326.382 372.115 L 325.492 372.115 L 323.208 368.354 Q 322.942 367.913, 322.657 367.409 Q 322.382 366.904, 322.299 366.748 L 322.299 372.115 L 321.455 372.115 L 321.455 365.62 L 322.483 365.62 " fill="#0000FF"/>
<path class="atom-1" d="M 326.927 366.791 L 328.071 366.791 L 328.071 365.586 L 328.58 365.586 L 328.58 366.791 L 329.755 366.791 L 329.755 367.227 L 328.58 367.227 L 328.58 368.438 L 328.071 368.438 L 328.071 367.227 L 326.927 367.227 L 326.927 366.791 " fill="#0000FF"/>
<path class="atom-2" d="M 342.346 377.088 L 344.474 380.528 Q 344.686 380.868, 345.025 381.482 Q 345.364 382.097, 345.383 382.134 L 345.383 377.088 L 346.245 377.088 L 346.245 383.583 L 345.355 383.583 L 343.071 379.822 Q 342.805 379.381, 342.52 378.877 Q 342.245 378.372, 342.163 378.216 L 342.163 383.583 L 341.318 383.583 L 341.318 377.088 L 342.346 377.088 " fill="#0000FF"/>
<path class="atom-2" d="M 346.79 378.259 L 347.935 378.259 L 347.935 377.054 L 348.443 377.054 L 348.443 378.259 L 349.618 378.259 L 349.618 378.695 L 348.443 378.695 L 348.443 379.906 L 347.935 379.906 L 347.935 378.695 L 346.79 378.695 L 346.79 378.259 " fill="#0000FF"/>
<path class="atom-2" d="M 341.241 384.233 L 342.121 384.233 L 342.121 386.994 L 345.442 386.994 L 345.442 384.233 L 346.323 384.233 L 346.323 390.728 L 345.442 390.728 L 345.442 387.728 L 342.121 387.728 L 342.121 390.728 L 341.241 390.728 L 341.241 384.233 " fill="#0000FF"/>
<path class="atom-4" d="M 383.352 377.088 Q 384.462 377.088, 385.022 377.592 Q 385.582 378.088, 385.582 378.996 Q 385.582 379.895, 385.004 380.409 Q 384.435 380.914, 383.352 380.914 L 382.316 380.914 L 382.316 383.583 L 381.435 383.583 L 381.435 377.088 L 383.352 377.088 M 383.352 380.18 Q 383.985 380.18, 384.325 379.877 Q 384.664 379.574, 384.664 378.996 Q 384.664 378.418, 384.325 378.124 Q 383.995 377.822, 383.352 377.822 L 382.316 377.822 L 382.316 380.18 L 383.352 380.18 " fill="#FF7F00"/>
<path class="atom-5" d="M 401.936 365.62 L 404.064 369.06 Q 404.275 369.4, 404.615 370.014 Q 404.954 370.629, 404.972 370.666 L 404.972 365.62 L 405.835 365.62 L 405.835 372.115 L 404.945 372.115 L 402.66 368.354 Q 402.394 367.913, 402.11 367.409 Q 401.835 366.904, 401.752 366.748 L 401.752 372.115 L 400.908 372.115 L 400.908 365.62 L 401.936 365.62 " fill="#0000FF"/>
<path class="atom-5" d="M 406.138 366.694 L 408.36 366.694 L 408.36 367.178 L 406.138 367.178 L 406.138 366.694 " fill="#0000FF"/>
<path class="atom-6" d="M 421.799 377.088 L 423.927 380.528 Q 424.138 380.868, 424.478 381.482 Q 424.817 382.097, 424.836 382.134 L 424.836 377.088 L 425.698 377.088 L 425.698 383.583 L 424.808 383.583 L 422.524 379.822 Q 422.258 379.381, 421.973 378.877 Q 421.698 378.372, 421.615 378.216 L 421.615 383.583 L 420.771 383.583 L 420.771 377.088 L 421.799 377.088 " fill="#0000FF"/>
<path class="atom-6" d="M 426.243 378.259 L 427.387 378.259 L 427.387 377.054 L 427.896 377.054 L 427.896 378.259 L 429.071 378.259 L 429.071 378.695 L 427.896 378.695 L 427.896 379.906 L 427.387 379.906 L 427.387 378.695 L 426.243 378.695 L 426.243 378.259 " fill="#0000FF"/>
<path class="atom-6" d="M 420.693 384.233 L 421.574 384.233 L 421.574 386.994 L 424.895 386.994 L 424.895 384.233 L 425.776 384.233 L 425.776 390.728 L 424.895 390.728 L 424.895 387.728 L 421.574 387.728 L 421.574 390.728 L 420.693 390.728 L 420.693 384.233 " fill="#0000FF"/>
<path class="atom-7" d="M 441.263 371.097 Q 441.336 371.124, 441.639 371.253 Q 441.942 371.381, 442.272 371.464 Q 442.612 371.537, 442.942 371.537 Q 443.557 371.537, 443.914 371.244 Q 444.272 370.941, 444.272 370.418 Q 444.272 370.06, 444.089 369.84 Q 443.914 369.62, 443.639 369.501 Q 443.364 369.381, 442.905 369.244 Q 442.327 369.069, 441.979 368.904 Q 441.639 368.739, 441.391 368.39 Q 441.153 368.042, 441.153 367.455 Q 441.153 366.638, 441.703 366.134 Q 442.263 365.629, 443.364 365.629 Q 444.116 365.629, 444.97 365.987 L 444.759 366.693 Q 443.979 366.372, 443.392 366.372 Q 442.758 366.372, 442.41 366.638 Q 442.061 366.895, 442.07 367.345 Q 442.07 367.693, 442.245 367.904 Q 442.428 368.115, 442.685 368.234 Q 442.951 368.354, 443.392 368.491 Q 443.979 368.675, 444.327 368.858 Q 444.676 369.042, 444.924 369.418 Q 445.181 369.785, 445.181 370.418 Q 445.181 371.317, 444.575 371.803 Q 443.979 372.28, 442.979 372.28 Q 442.401 372.28, 441.96 372.152 Q 441.529 372.033, 441.015 371.822 L 441.263 371.097 " fill="#CCCC00"/>
<path class="atom-7" d="M 445.483 366.607 L 447.706 366.607 L 447.706 367.091 L 445.483 367.091 L 445.483 366.607 " fill="#CCCC00"/>
<path class="atom-8" d="M 461.525 377.088 L 463.654 380.528 Q 463.865 380.868, 464.204 381.482 Q 464.544 382.097, 464.562 382.134 L 464.562 377.088 L 465.424 377.088 L 465.424 383.583 L 464.535 383.583 L 462.25 379.822 Q 461.984 379.381, 461.7 378.877 Q 461.424 378.372, 461.342 378.216 L 461.342 383.583 L 460.498 383.583 L 460.498 377.088 L 461.525 377.088 " fill="#0000FF"/>
<path class="atom-8" d="M 466.204 377.088 L 467.085 377.088 L 467.085 379.849 L 470.406 379.849 L 470.406 377.088 L 471.287 377.088 L 471.287 383.583 L 470.406 383.583 L 470.406 380.583 L 467.085 380.583 L 467.085 383.583 L 466.204 383.583 L 466.204 377.088 " fill="#0000FF"/>
<path class="atom-8" d="M 471.59 378.162 L 473.812 378.162 L 473.812 378.646 L 471.59 378.646 L 471.59 378.162 " fill="#0000FF"/>
<path d="M 301.762,380.336 L 301.76,380.296 L 301.755,380.257 L 301.747,380.218 L 301.735,380.181 L 301.72,380.144 L 301.702,380.109 L 301.681,380.076 L 301.657,380.044 L 301.631,380.015 L 301.602,379.988 L 301.571,379.963 L 301.538,379.942 L 301.503,379.923 L 301.467,379.907 L 301.43,379.895 L 301.391,379.885 L 301.352,379.879 L 301.313,379.877 L 301.273,379.878 L 301.234,379.882 L 301.195,379.89 L 301.158,379.9 L 301.121,379.915 L 301.085,379.932 L 301.051,379.952 L 301.019,379.975 L 300.989,380.001 L 300.962,380.029 L 300.937,380.06 L 300.914,380.092 L 300.895,380.126 L 300.878,380.162 L 300.865,380.199 L 300.855,380.238 L 300.848,380.276 L 300.845,380.316 L 300.845,380.355 L 300.848,380.395 L 300.855,380.433 L 300.865,380.472 L 300.878,380.509 L 300.895,380.545 L 300.914,380.579 L 300.937,380.612 L 300.962,380.642 L 300.989,380.67 L 301.019,380.696 L 301.051,380.719 L 301.085,380.739 L 301.121,380.756 L 301.158,380.771 L 301.195,380.781 L 301.234,380.789 L 301.273,380.793 L 301.313,380.794 L 301.352,380.792 L 301.391,380.786 L 301.43,380.776 L 301.467,380.764 L 301.503,380.748 L 301.538,380.729 L 301.571,380.708 L 301.602,380.683 L 301.631,380.656 L 301.657,380.627 L 301.681,380.595 L 301.702,380.562 L 301.72,380.527 L 301.735,380.49 L 301.747,380.453 L 301.755,380.414 L 301.76,380.375 L 301.762,380.336 L 301.303,380.336 Z" style="fill:#000000;fill-rule:evenodd;fill-opacity:1;stroke:#000000;stroke-width:0.0px;stroke-linecap:butt;stroke-linejoin:miter;stroke-opacity:1;"/>
<path d="M 301.762,382.17 L 301.76,382.131 L 301.755,382.092 L 301.747,382.053 L 301.735,382.016 L 301.72,381.979 L 301.702,381.944 L 301.681,381.91 L 301.657,381.879 L 301.631,381.85 L 301.602,381.823 L 301.571,381.798 L 301.538,381.776 L 301.503,381.758 L 301.467,381.742 L 301.43,381.73 L 301.391,381.72 L 301.352,381.714 L 301.313,381.712 L 301.273,381.713 L 301.234,381.717 L 301.195,381.724 L 301.158,381.735 L 301.121,381.75 L 301.085,381.767 L 301.051,381.787 L 301.019,381.81 L 300.989,381.836 L 300.962,381.864 L 300.937,381.894 L 300.914,381.927 L 300.895,381.961 L 300.878,381.997 L 300.865,382.034 L 300.855,382.072 L 300.848,382.111 L 300.845,382.151 L 300.845,382.19 L 300.848,382.229 L 300.855,382.268 L 300.865,382.307 L 300.878,382.344 L 300.895,382.38 L 300.914,382.414 L 300.937,382.446 L 300.962,382.477 L 300.989,382.505 L 301.019,382.531 L 301.051,382.554 L 301.085,382.574 L 301.121,382.591 L 301.158,382.605 L 301.195,382.616 L 301.234,382.624 L 301.273,382.628 L 301.313,382.629 L 301.352,382.626 L 301.391,382.621 L 301.43,382.611 L 301.467,382.599 L 301.503,382.583 L 301.538,382.564 L 301.571,382.543 L 301.602,382.518 L 301.631,382.491 L 301.657,382.462 L 301.681,382.43 L 301.702,382.397 L 301.72,382.362 L 301.735,382.325 L 301.747,382.288 L 301.755,382.249 L 301.76,382.21 L 301.762,382.17 L 301.303,382.17 Z" style="fill:#000000;fill-rule:evenodd;fill-opacity:1;stroke:#000000;stroke-width:0.0px;stroke-linecap:butt;stroke-linejoin:miter;stroke-opacity:1;"/>
<path d="M 301.762,378.501 L 301.76,378.461 L 301.755,378.422 L 301.747,378.384 L 301.735,378.346 L 301.72,378.309 L 301.702,378.274 L 301.681,378.241 L 301.657,378.209 L 301.631,378.18 L 301.602,378.153 L 301.571,378.128 L 301.538,378.107 L 301.503,378.088 L 301.467,378.072 L 301.43,378.06 L 301.391,378.051 L 301.352,378.045 L 301.313,378.042 L 301.273,378.043 L 301.234,378.047 L 301.195,378.055 L 301.158,378.066 L 301.121,378.08 L 301.085,378.097 L 301.051,378.117 L 301.019,378.14 L 300.989,378.166 L 300.962,378.194 L 300.937,378.225 L 300.914,378.257 L 300.895,378.292 L 300.878,378.327 L 300.865,378.365 L 300.855,378.403 L 300.848,378.442 L 300.845,378.481 L 300.845,378.52 L 300.848,378.56 L 300.855,378.599 L 300.865,378.637 L 300.878,378.674 L 300.895,378.71 L 300.914,378.744 L 300.937,378.777 L 300.962,378.807 L 300.989,378.835 L 301.019,378.861 L 301.051,378.884 L 301.085,378.904 L 301.121,378.922 L 301.158,378.936 L 301.195,378.947 L 301.234,378.954 L 301.273,378.958 L 301.313,378.959 L 301.352,378.957 L 301.391,378.951 L 301.43,378.942 L 301.467,378.929 L 301.503,378.913 L 301.538,378.895 L 301.571,378.873 L 301.602,378.848 L 301.631,378.822 L 301.657,378.792 L 301.681,378.761 L 301.702,378.727 L 301.72,378.692 L 301.735,378.655 L 301.747,378.618 L 301.755,378.579 L 301.76,378.54 L 301.762,378.501 L 301.303,378.501 Z" style="fill:#000000;fill-rule:evenodd;fill-opacity:1;stroke:#000000;stroke-width:0.0px;stroke-linecap:butt;stroke-linejoin:miter;stroke-opacity:1;"/>
<path d="M 301.762,380.336 L 301.76,380.296 L 301.755,380.257 L 301.747,380.218 L 301.735,380.181 L 301.72,380.144 L 301.702,380.109 L 301.681,380.076 L 301.657,380.044 L 301.631,380.015 L 301.602,379.988 L 301.571,379.963 L 301.538,379.942 L 301.503,379.923 L 301.467,379.907 L 301.43,379.895 L 301.391,379.885 L 301.352,379.879 L 301.313,379.877 L 301.273,379.878 L 301.234,379.882 L 301.195,379.89 L 301.158,379.9 L 301.121,379.915 L 301.085,379.932 L 301.051,379.952 L 301.019,379.975 L 300.989,380.001 L 300.962,380.029 L 300.937,380.06 L 300.914,380.092 L 300.895,380.126 L 300.878,380.162 L 300.865,380.199 L 300.855,380.238 L 300.848,380.276 L 300.845,380.316 L 300.845,380.355 L 300.848,380.395 L 300.855,380.433 L 300.865,380.472 L 300.878,380.509 L 300.895,380.545 L 300.914,380.579 L 300.937,380.612 L 300.962,380.642 L 300.989,380.67 L 301.019,380.696 L 301.051,380.719 L 301.085,380.739 L 301.121,380.756 L 301.158,380.771 L 301.195,380.781 L 301.234,380.789 L 301.273,380.793 L 301.313,380.794 L 301.352,380.792 L 301.391,380.786 L 301.43,380.776 L 301.467,380.764 L 301.503,380.748 L 301.538,380.729 L 301.571,380.708 L 301.602,380.683 L 301.631,380.656 L 301.657,380.627 L 301.681,380.595 L 301.702,380.562 L 301.72,380.527 L 301.735,380.49 L 301.747,380.453 L 301.755,380.414 L 301.76,380.375 L 301.762,380.336 L 301.303,380.336 Z" style="fill:#000000;fill-rule:evenodd;fill-opacity:1;stroke:#000000;stroke-width:0.0px;stroke-linecap:butt;stroke-linejoin:miter;stroke-opacity:1;"/>
<path d="M 325.295,364.898 L 325.293,364.858 L 325.288,364.819 L 325.28,364.78 L 325.268,364.743 L 325.253,364.706 L 325.235,364.671 L 325.214,364.638 L 325.19,364.606 L 325.164,364.577 L 325.135,364.55 L 325.104,364.525 L 325.071,364.504 L 325.036,364.485 L 325,364.469 L 324.963,364.457 L 324.924,364.447 L 324.885,364.441 L 324.846,364.439 L 324.806,364.44 L 324.767,364.444 L 324.728,364.452 L 324.691,364.463 L 324.654,364.477 L 324.618,364.494 L 324.584,364.514 L 324.552,364.537 L 324.522,364.563 L 324.495,364.591 L 324.47,364.622 L 324.447,364.654 L 324.428,364.688 L 324.411,364.724 L 324.398,364.761 L 324.388,364.8 L 324.381,364.838 L 324.378,364.878 L 324.378,364.917 L 324.381,364.957 L 324.388,364.995 L 324.398,365.034 L 324.411,365.071 L 324.428,365.107 L 324.447,365.141 L 324.47,365.174 L 324.495,365.204 L 324.522,365.232 L 324.552,365.258 L 324.584,365.281 L 324.618,365.301 L 324.654,365.318 L 324.691,365.333 L 324.728,365.343 L 324.767,365.351 L 324.806,365.355 L 324.846,365.356 L 324.885,365.354 L 324.924,365.348 L 324.963,365.338 L 325,365.326 L 325.036,365.31 L 325.071,365.291 L 325.104,365.27 L 325.135,365.245 L 325.164,365.218 L 325.19,365.189 L 325.214,365.157 L 325.235,365.124 L 325.253,365.089 L 325.268,365.052 L 325.28,365.015 L 325.288,364.976 L 325.293,364.937 L 325.295,364.898 L 324.836,364.898 Z" style="fill:#000000;fill-rule:evenodd;fill-opacity:1;stroke:#000000;stroke-width:0.0px;stroke-linecap:butt;stroke-linejoin:miter;stroke-opacity:1;"/>
<path d="M 323.46,364.898 L 323.458,364.858 L 323.453,364.819 L 323.445,364.78 L 323.433,364.743 L 323.418,364.706 L 323.4,364.671 L 323.379,364.638 L 323.355,364.606 L 323.329,364.577 L 323.3,364.55 L 323.269,364.525 L 323.236,364.504 L 323.201,364.485 L 323.165,364.469 L 323.128,364.457 L 323.089,364.447 L 323.05,364.441 L 323.011,364.439 L 322.972,364.44 L 322.932,364.444 L 322.894,364.452 L 322.856,364.463 L 322.819,364.477 L 322.783,364.494 L 322.749,364.514 L 322.717,364.537 L 322.687,364.563 L 322.66,364.591 L 322.635,364.622 L 322.612,364.654 L 322.593,364.688 L 322.576,364.724 L 322.563,364.761 L 322.553,364.8 L 322.546,364.838 L 322.543,364.878 L 322.543,364.917 L 322.546,364.957 L 322.553,364.995 L 322.563,365.034 L 322.576,365.071 L 322.593,365.107 L 322.612,365.141 L 322.635,365.174 L 322.66,365.204 L 322.687,365.232 L 322.717,365.258 L 322.749,365.281 L 322.783,365.301 L 322.819,365.318 L 322.856,365.333 L 322.894,365.343 L 322.932,365.351 L 322.972,365.355 L 323.011,365.356 L 323.05,365.354 L 323.089,365.348 L 323.128,365.338 L 323.165,365.326 L 323.201,365.31 L 323.236,365.291 L 323.269,365.27 L 323.3,365.245 L 323.329,365.218 L 323.355,365.189 L 323.379,365.157 L 323.4,365.124 L 323.418,365.089 L 323.433,365.052 L 323.445,365.015 L 323.453,364.976 L 323.458,364.937 L 323.46,364.898 L 323.001,364.898 Z" style="fill:#000000;fill-rule:evenodd;fill-opacity:1;stroke:#000000;stroke-width:0.0px;stroke-linecap:butt;stroke-linejoin:miter;stroke-opacity:1;"/>
<path d="M 344.241,391.416 L 344.239,391.377 L 344.234,391.338 L 344.225,391.299 L 344.214,391.262 L 344.199,391.225 L 344.181,391.19 L 344.16,391.156 L 344.136,391.125 L 344.11,391.096 L 344.081,391.069 L 344.05,391.044 L 344.017,391.022 L 343.982,391.004 L 343.946,390.988 L 343.908,390.976 L 343.87,390.966 L 343.831,390.96 L 343.792,390.958 L 343.752,390.959 L 343.713,390.963 L 343.674,390.97 L 343.636,390.981 L 343.599,390.995 L 343.564,391.013 L 343.53,391.033 L 343.498,391.056 L 343.468,391.082 L 343.44,391.11 L 343.415,391.14 L 343.393,391.173 L 343.374,391.207 L 343.357,391.243 L 343.344,391.28 L 343.334,391.318 L 343.327,391.357 L 343.324,391.397 L 343.324,391.436 L 343.327,391.475 L 343.334,391.514 L 343.344,391.553 L 343.357,391.59 L 343.374,391.626 L 343.393,391.66 L 343.415,391.692 L 343.44,391.723 L 343.468,391.751 L 343.498,391.777 L 343.53,391.8 L 343.564,391.82 L 343.599,391.837 L 343.636,391.851 L 343.674,391.862 L 343.713,391.87 L 343.752,391.874 L 343.792,391.875 L 343.831,391.872 L 343.87,391.867 L 343.908,391.857 L 343.946,391.845 L 343.982,391.829 L 344.017,391.81 L 344.05,391.789 L 344.081,391.764 L 344.11,391.737 L 344.136,391.708 L 344.16,391.676 L 344.181,391.643 L 344.199,391.608 L 344.214,391.571 L 344.225,391.534 L 344.234,391.495 L 344.239,391.456 L 344.241,391.416 L 343.782,391.416 Z" style="fill:#000000;fill-rule:evenodd;fill-opacity:1;stroke:#000000;stroke-width:0.0px;stroke-linecap:butt;stroke-linejoin:miter;stroke-opacity:1;"/>
<path d="M 383.967,384.271 L 383.965,384.232 L 383.96,384.193 L 383.952,384.154 L 383.94,384.117 L 383.925,384.08 L 383.907,384.045 L 383.886,384.011 L 383.862,383.98 L 383.836,383.951 L 383.807,383.924 L 383.776,383.899 L 383.743,383.877 L 383.709,383.859 L 383.672,383.843 L 383.635,383.83 L 383.597,383.821 L 383.558,383.815 L 383.518,383.813 L 383.479,383.814 L 383.439,383.818 L 383.401,383.825 L 383.363,383.836 L 383.326,383.85 L 383.29,383.868 L 383.257,383.888 L 383.224,383.911 L 383.195,383.937 L 383.167,383.965 L 383.142,383.995 L 383.119,384.028 L 383.1,384.062 L 383.084,384.098 L 383.07,384.135 L 383.06,384.173 L 383.053,384.212 L 383.05,384.252 L 383.05,384.291 L 383.053,384.33 L 383.06,384.369 L 383.07,384.407 L 383.084,384.445 L 383.1,384.48 L 383.119,384.515 L 383.142,384.547 L 383.167,384.578 L 383.195,384.606 L 383.224,384.632 L 383.257,384.655 L 383.29,384.675 L 383.326,384.692 L 383.363,384.706 L 383.401,384.717 L 383.439,384.725 L 383.479,384.729 L 383.518,384.73 L 383.558,384.727 L 383.597,384.722 L 383.635,384.712 L 383.672,384.7 L 383.709,384.684 L 383.743,384.665 L 383.776,384.644 L 383.807,384.619 L 383.836,384.592 L 383.862,384.563 L 383.886,384.531 L 383.907,384.498 L 383.925,384.463 L 383.94,384.426 L 383.952,384.388 L 383.96,384.35 L 383.965,384.311 L 383.967,384.271 L 383.508,384.271 Z" style="fill:#000000;fill-rule:evenodd;fill-opacity:1;stroke:#000000;stroke-width:0.0px;stroke-linecap:butt;stroke-linejoin:miter;stroke-opacity:1;"/>
<path class="atom-0" d="M 631.004 375.266 Q 631.004 373.651, 631.756 372.807 Q 632.517 371.954, 633.958 371.954 Q 635.297 371.954, 636.013 372.899 L 635.407 373.395 Q 634.884 372.706, 633.958 372.706 Q 632.976 372.706, 632.453 373.367 Q 631.939 374.018, 631.939 375.266 Q 631.939 376.551, 632.472 377.211 Q 633.013 377.872, 634.059 377.872 Q 634.774 377.872, 635.609 377.44 L 635.866 378.129 Q 635.527 378.349, 635.013 378.477 Q 634.499 378.606, 633.93 378.606 Q 632.517 378.606, 631.756 377.743 Q 631.004 376.881, 631.004 375.266 " fill="#000000"/>
<path class="atom-0" d="M 636.793 372.028 L 637.673 372.028 L 637.673 374.789 L 640.995 374.789 L 640.995 372.028 L 641.875 372.028 L 641.875 378.523 L 640.995 378.523 L 640.995 375.523 L 637.673 375.523 L 637.673 378.523 L 636.793 378.523 L 636.793 372.028 " fill="#000000"/>
<path d="M 643.71,375.239 L 643.709,375.199 L 643.703,375.16 L 643.695,375.121 L 643.683,375.084 L 643.668,375.047 L 643.65,375.012 L 643.629,374.979 L 643.606,374.947 L 643.579,374.918 L 643.551,374.891 L 643.52,374.866 L 643.487,374.845 L 643.452,374.826 L 643.416,374.81 L 643.378,374.798 L 643.34,374.788 L 643.301,374.783 L 643.261,374.78 L 643.222,374.781 L 643.183,374.785 L 643.144,374.793 L 643.106,374.804 L 643.069,374.818 L 643.034,374.835 L 643,374.855 L 642.968,374.878 L 642.938,374.904 L 642.91,374.932 L 642.885,374.963 L 642.863,374.995 L 642.843,375.029 L 642.827,375.065 L 642.813,375.103 L 642.803,375.141 L 642.797,375.18 L 642.793,375.219 L 642.793,375.258 L 642.797,375.298 L 642.803,375.337 L 642.813,375.375 L 642.827,375.412 L 642.843,375.448 L 642.863,375.482 L 642.885,375.515 L 642.91,375.545 L 642.938,375.573 L 642.968,375.599 L 643,375.622 L 643.034,375.642 L 643.069,375.66 L 643.106,375.674 L 643.144,375.685 L 643.183,375.692 L 643.222,375.696 L 643.261,375.697 L 643.301,375.695 L 643.34,375.689 L 643.378,375.68 L 643.416,375.667 L 643.452,375.651 L 643.487,375.633 L 643.52,375.611 L 643.551,375.586 L 643.579,375.559 L 643.606,375.53 L 643.629,375.499 L 643.65,375.465 L 643.668,375.43 L 643.683,375.393 L 643.695,375.356 L 643.703,375.317 L 643.709,375.278 L 643.71,375.239 L 643.252,375.239 Z" style="fill:#000000;fill-rule:evenodd;fill-opacity:1;stroke:#000000;stroke-width:0.0px;stroke-linecap:butt;stroke-linejoin:miter;stroke-opacity:1;"/>
<path d="M 643.71,377.074 L 643.709,377.034 L 643.703,376.995 L 643.695,376.956 L 643.683,376.919 L 643.668,376.882 L 643.65,376.847 L 643.629,376.814 L 643.606,376.782 L 643.579,376.753 L 643.551,376.726 L 643.52,376.701 L 643.487,376.68 L 643.452,376.661 L 643.416,376.645 L 643.378,376.633 L 643.34,376.623 L 643.301,376.617 L 643.261,376.615 L 643.222,376.616 L 643.183,376.62 L 643.144,376.628 L 643.106,376.638 L 643.069,376.653 L 643.034,376.67 L 643,376.69 L 642.968,376.713 L 642.938,376.739 L 642.91,376.767 L 642.885,376.798 L 642.863,376.83 L 642.843,376.864 L 642.827,376.9 L 642.813,376.937 L 642.803,376.976 L 642.797,377.014 L 642.793,377.054 L 642.793,377.093 L 642.797,377.133 L 642.803,377.171 L 642.813,377.21 L 642.827,377.247 L 642.843,377.283 L 642.863,377.317 L 642.885,377.349 L 642.91,377.38 L 642.938,377.408 L 642.968,377.434 L 643,377.457 L 643.034,377.477 L 643.069,377.494 L 643.106,377.509 L 643.144,377.519 L 643.183,377.527 L 643.222,377.531 L 643.261,377.532 L 643.301,377.53 L 643.34,377.524 L 643.378,377.514 L 643.416,377.502 L 643.452,377.486 L 643.487,377.467 L 643.52,377.446 L 643.551,377.421 L 643.579,377.394 L 643.606,377.365 L 643.629,377.333 L 643.65,377.3 L 643.668,377.265 L 643.683,377.228 L 643.695,377.191 L 643.703,377.152 L 643.709,377.113 L 643.71,377.074 L 643.252,377.074 Z" style="fill:#000000;fill-rule:evenodd;fill-opacity:1;stroke:#000000;stroke-width:0.0px;stroke-linecap:butt;stroke-linejoin:miter;stroke-opacity:1;"/>
<path d="M 643.71,373.404 L 643.709,373.364 L 643.703,373.325 L 643.695,373.287 L 643.683,373.249 L 643.668,373.212 L 643.65,373.177 L 643.629,373.144 L 643.606,373.112 L 643.579,373.083 L 643.551,373.056 L 643.52,373.031 L 643.487,373.01 L 643.452,372.991 L 643.416,372.975 L 643.378,372.963 L 643.34,372.954 L 643.301,372.948 L 643.261,372.945 L 643.222,372.946 L 643.183,372.95 L 643.144,372.958 L 643.106,372.969 L 643.069,372.983 L 643.034,373 L 643,373.02 L 642.968,373.043 L 642.938,373.069 L 642.91,373.097 L 642.885,373.128 L 642.863,373.16 L 642.843,373.195 L 642.827,373.23 L 642.813,373.268 L 642.803,373.306 L 642.797,373.345 L 642.793,373.384 L 642.793,373.423 L 642.797,373.463 L 642.803,373.502 L 642.813,373.54 L 642.827,373.577 L 642.843,373.613 L 642.863,373.647 L 642.885,373.68 L 642.91,373.71 L 642.938,373.738 L 642.968,373.764 L 643,373.787 L 643.034,373.807 L 643.069,373.825 L 643.106,373.839 L 643.144,373.85 L 643.183,373.857 L 643.222,373.862 L 643.261,373.862 L 643.301,373.86 L 643.34,373.854 L 643.378,373.845 L 643.416,373.832 L 643.452,373.816 L 643.487,373.798 L 643.52,373.776 L 643.551,373.752 L 643.579,373.725 L 643.606,373.695 L 643.629,373.664 L 643.65,373.63 L 643.668,373.595 L 643.683,373.559 L 643.695,373.521 L 643.703,373.482 L 643.709,373.443 L 643.71,373.404 L 643.252,373.404 Z" style="fill:#000000;fill-rule:evenodd;fill-opacity:1;stroke:#000000;stroke-width:0.0px;stroke-linecap:butt;stroke-linejoin:miter;stroke-opacity:1;"/>
<path d="M 643.71,375.239 L 643.709,375.199 L 643.703,375.16 L 643.695,375.121 L 643.683,375.084 L 643.668,375.047 L 643.65,375.012 L 643.629,374.979 L 643.606,374.947 L 643.579,374.918 L 643.551,374.891 L 643.52,374.866 L 643.487,374.845 L 643.452,374.826 L 643.416,374.81 L 643.378,374.798 L 643.34,374.788 L 643.301,374.783 L 643.261,374.78 L 643.222,374.781 L 643.183,374.785 L 643.144,374.793 L 643.106,374.804 L 643.069,374.818 L 643.034,374.835 L 643,374.855 L 642.968,374.878 L 642.938,374.904 L 642.91,374.932 L 642.885,374.963 L 642.863,374.995 L 642.843,375.029 L 642.827,375.065 L 642.813,375.103 L 642.803,375.141 L 642.797,375.18 L 642.793,375.219 L 642.793,375.258 L 642.797,375.298 L 642.803,375.337 L 642.813,375.375 L 642.827,375.412 L 642.843,375.448 L 642.863,375.482 L 642.885,375.515 L 642.91,375.545 L 642.938,375.573 L 642.968,375.599 L 643,375.622 L 643.034,375.642 L 643.069,375.66 L 643.106,375.674 L 643.144,375.685 L 643.183,375.692 L 643.222,375.696 L 643.261,375.697 L 643.301,375.695 L 643.34,375.689 L 643.378,375.68 L 643.416,375.667 L 643.452,375.651 L 643.487,375.633 L 643.52,375.611 L 643.551,375.586 L 643.579,375.559 L 643.606,375.53 L 643.629,375.499 L 643.65,375.465 L 643.668,375.43 L 643.683,375.393 L 643.695,375.356 L 643.703,375.317 L 643.709,375.278 L 643.71,375.239 L 643.252,375.239 Z" style="fill:#000000;fill-rule:evenodd;fill-opacity:1;stroke:#000000;stroke-width:0.0px;stroke-linecap:butt;stroke-linejoin:miter;stroke-opacity:1;"/>
<path class="bond-0 atom-0 atom-1" d="M 149.816,623.468 L 143.129,627.329" style="fill:none;fill-rule:evenodd;stroke:#FF0000;stroke-width:2.0px;stroke-linecap:butt;stroke-linejoin:miter;stroke-opacity:1"/>
<path class="bond-0 atom-0 atom-1" d="M 143.129,627.329 L 136.442,631.19" style="fill:none;fill-rule:evenodd;stroke:#0000FF;stroke-width:2.0px;stroke-linecap:butt;stroke-linejoin:miter;stroke-opacity:1"/>
<path class="bond-1 atom-1 atom-2" d="M 130.472,631.131 L 122.519,626.539" style="fill:none;fill-rule:evenodd;stroke:#0000FF;stroke-width:2.0px;stroke-linecap:butt;stroke-linejoin:miter;stroke-opacity:1"/>
<path class="bond-1 atom-1 atom-2" d="M 122.519,626.539 L 114.567,621.948" style="fill:none;fill-rule:evenodd;stroke:#A01EEF;stroke-width:2.0px;stroke-linecap:butt;stroke-linejoin:miter;stroke-opacity:1"/>
<path class="atom-0" d="M 150.39 621.434 Q 150.39 619.875, 151.16 619.003 Q 151.931 618.132, 153.371 618.132 Q 154.812 618.132, 155.583 619.003 Q 156.353 619.875, 156.353 621.434 Q 156.353 623.012, 155.573 623.911 Q 154.794 624.801, 153.371 624.801 Q 151.94 624.801, 151.16 623.911 Q 150.39 623.021, 150.39 621.434 M 153.371 624.067 Q 154.362 624.067, 154.894 623.407 Q 155.436 622.737, 155.436 621.434 Q 155.436 620.159, 154.894 619.517 Q 154.362 618.865, 153.371 618.865 Q 152.381 618.865, 151.839 619.508 Q 151.307 620.15, 151.307 621.434 Q 151.307 622.746, 151.839 623.407 Q 152.381 624.067, 153.371 624.067 " fill="#FF0000"/>
<path class="atom-0" d="M 156.898 619.289 L 158.043 619.289 L 158.043 618.084 L 158.551 618.084 L 158.551 619.289 L 159.726 619.289 L 159.726 619.725 L 158.551 619.725 L 158.551 620.936 L 158.043 620.936 L 158.043 619.725 L 156.898 619.725 L 156.898 619.289 " fill="#FF0000"/>
<path class="atom-1" d="M 132.072 629.636 L 134.201 633.077 Q 134.412 633.416, 134.751 634.031 Q 135.091 634.645, 135.109 634.682 L 135.109 629.636 L 135.972 629.636 L 135.972 636.132 L 135.082 636.132 L 132.797 632.37 Q 132.531 631.93, 132.247 631.425 Q 131.972 630.921, 131.889 630.765 L 131.889 636.132 L 131.045 636.132 L 131.045 629.636 L 132.072 629.636 " fill="#0000FF"/>
<path class="atom-1" d="M 130.967 636.781 L 131.848 636.781 L 131.848 639.543 L 135.169 639.543 L 135.169 636.781 L 136.05 636.781 L 136.05 643.277 L 135.169 643.277 L 135.169 640.277 L 131.848 640.277 L 131.848 643.277 L 130.967 643.277 L 130.967 636.781 " fill="#0000FF"/>
<path class="atom-2" d="M 113.209 618.154 L 114.081 618.154 L 114.081 624.677 L 113.209 624.677 L 113.209 618.154 " fill="#A01EEF"/>
<path d="M 161.561,620.499 L 161.559,620.459 L 161.554,620.42 L 161.546,620.381 L 161.534,620.344 L 161.519,620.307 L 161.501,620.272 L 161.48,620.239 L 161.456,620.207 L 161.43,620.178 L 161.401,620.151 L 161.37,620.126 L 161.337,620.105 L 161.302,620.086 L 161.266,620.07 L 161.229,620.058 L 161.19,620.048 L 161.151,620.042 L 161.112,620.04 L 161.072,620.041 L 161.033,620.045 L 160.994,620.053 L 160.957,620.063 L 160.92,620.078 L 160.884,620.095 L 160.85,620.115 L 160.818,620.138 L 160.788,620.164 L 160.761,620.192 L 160.736,620.223 L 160.713,620.255 L 160.694,620.289 L 160.677,620.325 L 160.664,620.362 L 160.654,620.401 L 160.647,620.439 L 160.644,620.479 L 160.644,620.518 L 160.647,620.558 L 160.654,620.596 L 160.664,620.635 L 160.677,620.672 L 160.694,620.708 L 160.713,620.742 L 160.736,620.774 L 160.761,620.805 L 160.788,620.833 L 160.818,620.859 L 160.85,620.882 L 160.884,620.902 L 160.92,620.919 L 160.957,620.934 L 160.994,620.944 L 161.033,620.952 L 161.072,620.956 L 161.112,620.957 L 161.151,620.955 L 161.19,620.949 L 161.229,620.939 L 161.266,620.927 L 161.302,620.911 L 161.337,620.892 L 161.37,620.871 L 161.401,620.846 L 161.43,620.819 L 161.456,620.79 L 161.48,620.758 L 161.501,620.725 L 161.519,620.69 L 161.534,620.653 L 161.546,620.616 L 161.554,620.577 L 161.559,620.538 L 161.561,620.499 L 161.102,620.499 Z" style="fill:#000000;fill-rule:evenodd;fill-opacity:1;stroke:#000000;stroke-width:0.0px;stroke-linecap:butt;stroke-linejoin:miter;stroke-opacity:1;"/>
<path d="M 161.561,622.333 L 161.559,622.294 L 161.554,622.255 L 161.546,622.216 L 161.534,622.179 L 161.519,622.142 L 161.501,622.107 L 161.48,622.073 L 161.456,622.042 L 161.43,622.013 L 161.401,621.986 L 161.37,621.961 L 161.337,621.939 L 161.302,621.921 L 161.266,621.905 L 161.229,621.893 L 161.19,621.883 L 161.151,621.877 L 161.112,621.875 L 161.072,621.876 L 161.033,621.88 L 160.994,621.887 L 160.957,621.898 L 160.92,621.912 L 160.884,621.93 L 160.85,621.95 L 160.818,621.973 L 160.788,621.999 L 160.761,622.027 L 160.736,622.057 L 160.713,622.09 L 160.694,622.124 L 160.677,622.16 L 160.664,622.197 L 160.654,622.235 L 160.647,622.274 L 160.644,622.314 L 160.644,622.353 L 160.647,622.392 L 160.654,622.431 L 160.664,622.47 L 160.677,622.507 L 160.694,622.543 L 160.713,622.577 L 160.736,622.609 L 160.761,622.64 L 160.788,622.668 L 160.818,622.694 L 160.85,622.717 L 160.884,622.737 L 160.92,622.754 L 160.957,622.768 L 160.994,622.779 L 161.033,622.787 L 161.072,622.791 L 161.112,622.792 L 161.151,622.789 L 161.19,622.784 L 161.229,622.774 L 161.266,622.762 L 161.302,622.746 L 161.337,622.727 L 161.37,622.706 L 161.401,622.681 L 161.43,622.654 L 161.456,622.625 L 161.48,622.593 L 161.501,622.56 L 161.519,622.525 L 161.534,622.488 L 161.546,622.451 L 161.554,622.412 L 161.559,622.373 L 161.561,622.333 L 161.102,622.333 Z" style="fill:#000000;fill-rule:evenodd;fill-opacity:1;stroke:#000000;stroke-width:0.0px;stroke-linecap:butt;stroke-linejoin:miter;stroke-opacity:1;"/>
<path class="bond-0 atom-0 atom-1" d="M 323.919,630.154 L 332.527,625.184" style="fill:none;fill-rule:evenodd;stroke:#000000;stroke-width:2.0px;stroke-linecap:butt;stroke-linejoin:miter;stroke-opacity:1"/>
<path class="bond-0 atom-0 atom-1" d="M 332.527,625.184 L 341.135,620.214" style="fill:none;fill-rule:evenodd;stroke:#FF7F00;stroke-width:2.0px;stroke-linecap:butt;stroke-linejoin:miter;stroke-opacity:1"/>
<path class="bond-1 atom-1 atom-2" d="M 346.429,620.214 L 353.557,624.329" style="fill:none;fill-rule:evenodd;stroke:#FF7F00;stroke-width:2.0px;stroke-linecap:butt;stroke-linejoin:miter;stroke-opacity:1"/>
<path class="bond-1 atom-1 atom-2" d="M 353.557,624.329 L 360.685,628.444" style="fill:none;fill-rule:evenodd;stroke:#0000FF;stroke-width:2.0px;stroke-linecap:butt;stroke-linejoin:miter;stroke-opacity:1"/>
<path class="bond-2 atom-2 atom-3" d="M 370.054,626.453 L 375.546,623.283" style="fill:none;fill-rule:evenodd;stroke:#0000FF;stroke-width:2.0px;stroke-linecap:butt;stroke-linejoin:miter;stroke-opacity:1"/>
<path class="bond-2 atom-2 atom-3" d="M 375.546,623.283 L 381.037,620.112" style="fill:none;fill-rule:evenodd;stroke:#CCCC00;stroke-width:2.0px;stroke-linecap:butt;stroke-linejoin:miter;stroke-opacity:1"/>
<path class="bond-3 atom-3 atom-4" d="M 386.164,620.219 L 394.768,625.186" style="fill:none;fill-rule:evenodd;stroke:#CCCC00;stroke-width:2.0px;stroke-linecap:butt;stroke-linejoin:miter;stroke-opacity:1"/>
<path class="bond-3 atom-3 atom-4" d="M 394.768,625.186 L 403.371,630.154" style="fill:none;fill-rule:evenodd;stroke:#000000;stroke-width:2.0px;stroke-linecap:butt;stroke-linejoin:miter;stroke-opacity:1"/>
<path class="bond-3 atom-3 atom-4" d="M 386.452,625.682 L 392.474,629.159" style="fill:none;fill-rule:evenodd;stroke:#CCCC00;stroke-width:2.0px;stroke-linecap:butt;stroke-linejoin:miter;stroke-opacity:1"/>
<path class="bond-3 atom-3 atom-4" d="M 392.474,629.159 L 398.497,632.636" style="fill:none;fill-rule:evenodd;stroke:#000000;stroke-width:2.0px;stroke-linecap:butt;stroke-linejoin:miter;stroke-opacity:1"/>
<path class="bond-4 atom-4 atom-5" d="M 403.371,630.154 L 423.235,618.685" style="fill:none;fill-rule:evenodd;stroke:#000000;stroke-width:2.0px;stroke-linecap:butt;stroke-linejoin:miter;stroke-opacity:1"/>
<path class="bond-5 atom-5 atom-6" d="M 423.235,618.685 L 431.389,623.393" style="fill:none;fill-rule:evenodd;stroke:#000000;stroke-width:2.0px;stroke-linecap:butt;stroke-linejoin:miter;stroke-opacity:1"/>
<path class="bond-5 atom-5 atom-6" d="M 431.389,623.393 L 439.543,628.101" style="fill:none;fill-rule:evenodd;stroke:#FF0000;stroke-width:2.0px;stroke-linecap:butt;stroke-linejoin:miter;stroke-opacity:1"/>
<path class="atom-1" d="M 343.626 615.438 Q 344.736 615.438, 345.296 615.942 Q 345.855 616.438, 345.855 617.346 Q 345.855 618.245, 345.277 618.759 Q 344.708 619.263, 343.626 619.263 L 342.589 619.263 L 342.589 621.933 L 341.708 621.933 L 341.708 615.438 L 343.626 615.438 M 343.626 618.529 Q 344.259 618.529, 344.598 618.227 Q 344.938 617.924, 344.938 617.346 Q 344.938 616.768, 344.598 616.474 Q 344.268 616.172, 343.626 616.172 L 342.589 616.172 L 342.589 618.529 L 343.626 618.529 " fill="#FF7F00"/>
<path class="atom-1" d="M 341.241 608.293 L 342.121 608.293 L 342.121 611.054 L 345.442 611.054 L 345.442 608.293 L 346.323 608.293 L 346.323 614.788 L 345.442 614.788 L 345.442 611.788 L 342.121 611.788 L 342.121 614.788 L 341.241 614.788 L 341.241 608.293 " fill="#FF7F00"/>
<path class="atom-1" d="M 346.868 609.464 L 348.013 609.464 L 348.013 608.259 L 348.521 608.259 L 348.521 609.464 L 349.696 609.464 L 349.696 609.899 L 348.521 609.899 L 348.521 611.111 L 348.013 611.111 L 348.013 609.899 L 346.868 609.899 L 346.868 609.464 " fill="#FF7F00"/>
<path class="atom-2" d="M 362.209 626.906 L 364.338 630.346 Q 364.549 630.686, 364.888 631.3 Q 365.228 631.915, 365.246 631.952 L 365.246 626.906 L 366.108 626.906 L 366.108 633.401 L 365.218 633.401 L 362.934 629.64 Q 362.668 629.199, 362.384 628.695 Q 362.108 628.19, 362.026 628.034 L 362.026 633.401 L 361.182 633.401 L 361.182 626.906 L 362.209 626.906 " fill="#0000FF"/>
<path class="atom-2" d="M 366.653 628.077 L 367.798 628.077 L 367.798 626.872 L 368.306 626.872 L 368.306 628.077 L 369.481 628.077 L 369.481 628.513 L 368.306 628.513 L 368.306 629.724 L 367.798 629.724 L 367.798 628.513 L 366.653 628.513 L 366.653 628.077 " fill="#0000FF"/>
<path class="atom-2" d="M 361.104 634.051 L 361.984 634.051 L 361.984 636.812 L 365.306 636.812 L 365.306 634.051 L 366.186 634.051 L 366.186 640.546 L 365.306 640.546 L 365.306 637.546 L 361.984 637.546 L 361.984 640.546 L 361.104 640.546 L 361.104 634.051 " fill="#0000FF"/>
<path class="atom-2" d="M 366.501 640.318 Q 366.659 639.913, 367.034 639.689 Q 367.41 639.459, 367.93 639.459 Q 368.578 639.459, 368.941 639.81 Q 369.305 640.161, 369.305 640.785 Q 369.305 641.42, 368.832 642.014 Q 368.366 642.607, 367.397 643.31 L 369.377 643.31 L 369.377 643.794 L 366.489 643.794 L 366.489 643.388 Q 367.288 642.819, 367.761 642.395 Q 368.239 641.971, 368.469 641.59 Q 368.699 641.209, 368.699 640.815 Q 368.699 640.403, 368.493 640.173 Q 368.287 639.943, 367.93 639.943 Q 367.585 639.943, 367.355 640.082 Q 367.125 640.222, 366.961 640.53 L 366.501 640.318 " fill="#0000FF"/>
<path class="atom-3" d="M 381.673 620.915 Q 381.747 620.942, 382.05 621.071 Q 382.352 621.199, 382.683 621.282 Q 383.022 621.355, 383.352 621.355 Q 383.967 621.355, 384.325 621.062 Q 384.683 620.759, 384.683 620.236 Q 384.683 619.878, 384.499 619.658 Q 384.325 619.438, 384.05 619.318 Q 383.774 619.199, 383.316 619.062 Q 382.738 618.887, 382.389 618.722 Q 382.05 618.557, 381.802 618.208 Q 381.563 617.86, 381.563 617.273 Q 381.563 616.456, 382.114 615.951 Q 382.673 615.447, 383.774 615.447 Q 384.527 615.447, 385.38 615.805 L 385.169 616.511 Q 384.389 616.19, 383.802 616.19 Q 383.169 616.19, 382.82 616.456 Q 382.472 616.713, 382.481 617.163 Q 382.481 617.511, 382.655 617.722 Q 382.839 617.933, 383.095 618.052 Q 383.361 618.172, 383.802 618.309 Q 384.389 618.493, 384.738 618.676 Q 385.086 618.86, 385.334 619.236 Q 385.591 619.603, 385.591 620.236 Q 385.591 621.135, 384.985 621.621 Q 384.389 622.098, 383.389 622.098 Q 382.811 622.098, 382.371 621.97 Q 381.939 621.851, 381.426 621.64 L 381.673 620.915 " fill="#CCCC00"/>
<path class="atom-6" d="M 440.116 630.172 Q 440.116 628.612, 440.887 627.741 Q 441.658 626.869, 443.098 626.869 Q 444.538 626.869, 445.309 627.741 Q 446.08 628.612, 446.08 630.172 Q 446.08 631.75, 445.3 632.649 Q 444.52 633.539, 443.098 633.539 Q 441.667 633.539, 440.887 632.649 Q 440.116 631.759, 440.116 630.172 M 443.098 632.805 Q 444.089 632.805, 444.621 632.144 Q 445.162 631.475, 445.162 630.172 Q 445.162 628.897, 444.621 628.254 Q 444.089 627.603, 443.098 627.603 Q 442.107 627.603, 441.566 628.245 Q 441.034 628.887, 441.034 630.172 Q 441.034 631.484, 441.566 632.144 Q 442.107 632.805, 443.098 632.805 " fill="#FF0000"/>
<path class="atom-6" d="M 446.382 627.929 L 448.605 627.929 L 448.605 628.414 L 446.382 628.414 L 446.382 627.929 " fill="#FF0000"/>
<path d="M 344.241,607.57 L 344.239,607.531 L 344.234,607.492 L 344.225,607.453 L 344.214,607.416 L 344.199,607.379 L 344.181,607.344 L 344.16,607.311 L 344.136,607.279 L 344.11,607.25 L 344.081,607.223 L 344.05,607.198 L 344.017,607.177 L 343.982,607.158 L 343.946,607.142 L 343.908,607.13 L 343.87,607.12 L 343.831,607.114 L 343.792,607.112 L 343.752,607.113 L 343.713,607.117 L 343.674,607.125 L 343.636,607.135 L 343.599,607.15 L 343.564,607.167 L 343.53,607.187 L 343.498,607.21 L 343.468,607.236 L 343.44,607.264 L 343.415,607.294 L 343.393,607.327 L 343.374,607.361 L 343.357,607.397 L 343.344,607.434 L 343.334,607.473 L 343.327,607.511 L 343.324,607.551 L 343.324,607.59 L 343.327,607.63 L 343.334,607.668 L 343.344,607.707 L 343.357,607.744 L 343.374,607.78 L 343.393,607.814 L 343.415,607.846 L 343.44,607.877 L 343.468,607.905 L 343.498,607.931 L 343.53,607.954 L 343.564,607.974 L 343.599,607.991 L 343.636,608.005 L 343.674,608.016 L 343.713,608.024 L 343.752,608.028 L 343.792,608.029 L 343.831,608.027 L 343.87,608.021 L 343.908,608.011 L 343.946,607.999 L 343.982,607.983 L 344.017,607.964 L 344.05,607.943 L 344.081,607.918 L 344.11,607.891 L 344.136,607.862 L 344.16,607.83 L 344.181,607.797 L 344.199,607.762 L 344.214,607.725 L 344.225,607.688 L 344.234,607.649 L 344.239,607.61 L 344.241,607.57 L 343.782,607.57 Z" style="fill:#000000;fill-rule:evenodd;fill-opacity:1;stroke:#000000;stroke-width:0.0px;stroke-linecap:butt;stroke-linejoin:miter;stroke-opacity:1;"/>
<path d="M 383.967,614.759 L 383.965,614.719 L 383.96,614.68 L 383.952,614.642 L 383.94,614.604 L 383.925,614.567 L 383.907,614.532 L 383.886,614.499 L 383.862,614.467 L 383.836,614.438 L 383.807,614.411 L 383.776,614.387 L 383.743,614.365 L 383.709,614.346 L 383.672,614.33 L 383.635,614.318 L 383.597,614.309 L 383.558,614.303 L 383.518,614.3 L 383.479,614.301 L 383.439,614.305 L 383.401,614.313 L 383.363,614.324 L 383.326,614.338 L 383.29,614.355 L 383.257,614.375 L 383.224,614.398 L 383.195,614.424 L 383.167,614.452 L 383.142,614.483 L 383.119,614.515 L 383.1,614.55 L 383.084,614.586 L 383.07,614.623 L 383.06,614.661 L 383.053,614.7 L 383.05,614.739 L 383.05,614.779 L 383.053,614.818 L 383.06,614.857 L 383.07,614.895 L 383.084,614.932 L 383.1,614.968 L 383.119,615.002 L 383.142,615.035 L 383.167,615.065 L 383.195,615.093 L 383.224,615.119 L 383.257,615.142 L 383.29,615.162 L 383.326,615.18 L 383.363,615.194 L 383.401,615.205 L 383.439,615.212 L 383.479,615.217 L 383.518,615.217 L 383.558,615.215 L 383.597,615.209 L 383.635,615.2 L 383.672,615.187 L 383.709,615.171 L 383.743,615.153 L 383.776,615.131 L 383.807,615.107 L 383.836,615.08 L 383.862,615.05 L 383.886,615.019 L 383.907,614.985 L 383.925,614.95 L 383.94,614.914 L 383.952,614.876 L 383.96,614.837 L 383.965,614.798 L 383.967,614.759 L 383.508,614.759 Z" style="fill:#000000;fill-rule:evenodd;fill-opacity:1;stroke:#000000;stroke-width:0.0px;stroke-linecap:butt;stroke-linejoin:miter;stroke-opacity:1;"/>
<path d="M 424.611,616.621 L 424.609,616.582 L 424.604,616.543 L 424.596,616.504 L 424.584,616.466 L 424.569,616.43 L 424.551,616.395 L 424.53,616.361 L 424.506,616.33 L 424.48,616.3 L 424.451,616.273 L 424.42,616.249 L 424.387,616.227 L 424.352,616.209 L 424.316,616.193 L 424.279,616.18 L 424.24,616.171 L 424.201,616.165 L 424.162,616.163 L 424.123,616.163 L 424.083,616.168 L 424.045,616.175 L 424.007,616.186 L 423.97,616.2 L 423.934,616.218 L 423.9,616.238 L 423.868,616.261 L 423.838,616.287 L 423.811,616.315 L 423.786,616.345 L 423.763,616.378 L 423.744,616.412 L 423.727,616.448 L 423.714,616.485 L 423.704,616.523 L 423.697,616.562 L 423.694,616.601 L 423.694,616.641 L 423.697,616.68 L 423.704,616.719 L 423.714,616.757 L 423.727,616.794 L 423.744,616.83 L 423.763,616.865 L 423.786,616.897 L 423.811,616.928 L 423.838,616.956 L 423.868,616.982 L 423.9,617.005 L 423.934,617.025 L 423.97,617.042 L 424.007,617.056 L 424.045,617.067 L 424.083,617.075 L 424.123,617.079 L 424.162,617.08 L 424.201,617.077 L 424.24,617.071 L 424.279,617.062 L 424.316,617.05 L 424.352,617.034 L 424.387,617.015 L 424.42,616.993 L 424.451,616.969 L 424.48,616.942 L 424.506,616.913 L 424.53,616.881 L 424.551,616.848 L 424.569,616.813 L 424.584,616.776 L 424.596,616.738 L 424.604,616.7 L 424.609,616.661 L 424.611,616.621 L 424.152,616.621 Z" style="fill:#000000;fill-rule:evenodd;fill-opacity:1;stroke:#000000;stroke-width:0.0px;stroke-linecap:butt;stroke-linejoin:miter;stroke-opacity:1;"/>
<path d="M 422.776,616.621 L 422.774,616.582 L 422.769,616.543 L 422.761,616.504 L 422.749,616.466 L 422.734,616.43 L 422.716,616.395 L 422.695,616.361 L 422.671,616.33 L 422.645,616.3 L 422.616,616.273 L 422.585,616.249 L 422.552,616.227 L 422.518,616.209 L 422.481,616.193 L 422.444,616.18 L 422.406,616.171 L 422.367,616.165 L 422.327,616.163 L 422.288,616.163 L 422.248,616.168 L 422.21,616.175 L 422.172,616.186 L 422.135,616.2 L 422.099,616.218 L 422.066,616.238 L 422.033,616.261 L 422.004,616.287 L 421.976,616.315 L 421.951,616.345 L 421.928,616.378 L 421.909,616.412 L 421.893,616.448 L 421.879,616.485 L 421.869,616.523 L 421.862,616.562 L 421.859,616.601 L 421.859,616.641 L 421.862,616.68 L 421.869,616.719 L 421.879,616.757 L 421.893,616.794 L 421.909,616.83 L 421.928,616.865 L 421.951,616.897 L 421.976,616.928 L 422.004,616.956 L 422.033,616.982 L 422.066,617.005 L 422.099,617.025 L 422.135,617.042 L 422.172,617.056 L 422.21,617.067 L 422.248,617.075 L 422.288,617.079 L 422.327,617.08 L 422.367,617.077 L 422.406,617.071 L 422.444,617.062 L 422.481,617.05 L 422.518,617.034 L 422.552,617.015 L 422.585,616.993 L 422.616,616.969 L 422.645,616.942 L 422.671,616.913 L 422.695,616.881 L 422.716,616.848 L 422.734,616.813 L 422.749,616.776 L 422.761,616.738 L 422.769,616.7 L 422.774,616.661 L 422.776,616.621 L 422.317,616.621 Z" style="fill:#000000;fill-rule:evenodd;fill-opacity:1;stroke:#000000;stroke-width:0.0px;stroke-linecap:butt;stroke-linejoin:miter;stroke-opacity:1;"/>
<path class="bond-0 atom-0 atom-1" d="M 613.219,625.239 L 623.364,625.239" style="fill:none;fill-rule:evenodd;stroke:#FF7F00;stroke-width:2.0px;stroke-linecap:butt;stroke-linejoin:miter;stroke-opacity:1"/>
<path class="bond-0 atom-0 atom-1" d="M 623.364,625.239 L 633.508,625.239" style="fill:none;fill-rule:evenodd;stroke:#000000;stroke-width:2.0px;stroke-linecap:butt;stroke-linejoin:miter;stroke-opacity:1"/>
<path class="bond-1 atom-1 atom-2" d="M 633.508,625.239 L 643.458,625.239" style="fill:none;fill-rule:evenodd;stroke:#000000;stroke-width:2.0px;stroke-linecap:butt;stroke-linejoin:miter;stroke-opacity:1"/>
<path class="bond-1 atom-1 atom-2" d="M 643.458,625.239 L 653.408,625.239" style="fill:none;fill-rule:evenodd;stroke:#0000FF;stroke-width:2.0px;stroke-linecap:butt;stroke-linejoin:miter;stroke-opacity:1"/>
<path class="bond-1 atom-1 atom-2" d="M 636.493,629.826 L 644.95,629.826" style="fill:none;fill-rule:evenodd;stroke:#000000;stroke-width:2.0px;stroke-linecap:butt;stroke-linejoin:miter;stroke-opacity:1"/>
<path class="bond-1 atom-1 atom-2" d="M 644.95,629.826 L 653.408,629.826" style="fill:none;fill-rule:evenodd;stroke:#0000FF;stroke-width:2.0px;stroke-linecap:butt;stroke-linejoin:miter;stroke-opacity:1"/>
<path class="bond-1 atom-1 atom-2" d="M 636.493,620.651 L 644.95,620.651" style="fill:none;fill-rule:evenodd;stroke:#000000;stroke-width:2.0px;stroke-linecap:butt;stroke-linejoin:miter;stroke-opacity:1"/>
<path class="bond-1 atom-1 atom-2" d="M 644.95,620.651 L 653.408,620.651" style="fill:none;fill-rule:evenodd;stroke:#0000FF;stroke-width:2.0px;stroke-linecap:butt;stroke-linejoin:miter;stroke-opacity:1"/>
<path class="atom-0" d="M 599.445 621.991 L 600.326 621.991 L 600.326 624.752 L 603.647 624.752 L 603.647 621.991 L 604.528 621.991 L 604.528 628.486 L 603.647 628.486 L 603.647 625.486 L 600.326 625.486 L 600.326 628.486 L 599.445 628.486 L 599.445 621.991 " fill="#FF7F00"/>
<path class="atom-0" d="M 604.843 628.258 Q 605 627.853, 605.376 627.629 Q 605.751 627.399, 606.272 627.399 Q 606.92 627.399, 607.283 627.75 Q 607.646 628.101, 607.646 628.725 Q 607.646 629.361, 607.174 629.954 Q 606.708 630.547, 605.739 631.25 L 607.719 631.25 L 607.719 631.734 L 604.831 631.734 L 604.831 631.328 Q 605.63 630.759, 606.102 630.335 Q 606.581 629.912, 606.811 629.53 Q 607.041 629.149, 607.041 628.755 Q 607.041 628.343, 606.835 628.113 Q 606.629 627.883, 606.272 627.883 Q 605.927 627.883, 605.697 628.022 Q 605.466 628.162, 605.303 628.47 L 604.843 628.258 " fill="#FF7F00"/>
<path class="atom-0" d="M 610.416 621.991 Q 611.526 621.991, 612.086 622.495 Q 612.646 622.991, 612.646 623.899 Q 612.646 624.798, 612.068 625.312 Q 611.499 625.817, 610.416 625.817 L 609.38 625.817 L 609.38 628.486 L 608.499 628.486 L 608.499 621.991 L 610.416 621.991 M 610.416 625.083 Q 611.049 625.083, 611.389 624.78 Q 611.728 624.477, 611.728 623.899 Q 611.728 623.321, 611.389 623.028 Q 611.058 622.725, 610.416 622.725 L 609.38 622.725 L 609.38 625.083 L 610.416 625.083 " fill="#FF7F00"/>
<path class="atom-2" d="M 655.009 621.991 L 657.137 625.431 Q 657.348 625.771, 657.687 626.385 Q 658.027 627, 658.045 627.037 L 658.045 621.991 L 658.908 621.991 L 658.908 628.486 L 658.018 628.486 L 655.733 624.725 Q 655.467 624.284, 655.183 623.78 Q 654.908 623.275, 654.825 623.119 L 654.825 628.486 L 653.981 628.486 L 653.981 621.991 L 655.009 621.991 " fill="#0000FF"/>
</svg>