<svg xmlns="http://www.w3.org/2000/svg" xmlns:rdkit="http://www.rdkit.org/xml" xmlns:xlink="http://www.w3.org/1999/xlink" version="1.1" baseProfile="full" xml:space="preserve" width="750px" height="750px" viewBox="0 0 750 750">
<!-- END OF HEADER -->
<rect style="opacity:1.0;fill:#FFFFFF;stroke:none" width="750" height="750" x="0" y="0"> </rect>
<rect style="opacity:1.0;fill:#FFFFFF;stroke:none" width="750" height="750" x="0" y="0"> </rect>
<rect style="opacity:1.0;fill:#FFFFFF;stroke:none" width="750" height="750" x="0" y="0"> </rect>
<rect style="opacity:1.0;fill:#FFFFFF;stroke:none" width="750" height="750" x="0" y="0"> </rect>
<rect style="opacity:1.0;fill:#FFFFFF;stroke:none" width="750" height="750" x="0" y="0"> </rect>
<rect style="opacity:1.0;fill:#FFFFFF;stroke:none" width="750" height="750" x="0" y="0"> </rect>
<rect style="opacity:1.0;fill:#FFFFFF;stroke:none" width="750" height="750" x="0" y="0"> </rect>
<rect style="opacity:1.0;fill:#FFFFFF;stroke:none" width="750" height="750" x="0" y="0"> </rect>
<rect style="opacity:1.0;fill:#FFFFFF;stroke:none" width="750" height="750" x="0" y="0"> </rect>
<rect style="opacity:1.0;fill:#FFFFFF;stroke:none" width="750" height="750" x="0" y="0"> </rect>
<path class="bond-0 atom-0 atom-1" d="M 131.002,126.905 L 146.13,126.905" style="fill:none;fill-rule:evenodd;stroke:#000000;stroke-width:2.0px;stroke-linecap:butt;stroke-linejoin:miter;stroke-opacity:1"/>
<path d="M 129.489,126.3 L 129.488,126.274 L 129.484,126.248 L 129.479,126.222 L 129.471,126.198 L 129.461,126.173 L 129.449,126.15 L 129.436,126.128 L 129.42,126.107 L 129.402,126.088 L 129.383,126.07 L 129.363,126.054 L 129.341,126.04 L 129.318,126.027 L 129.294,126.017 L 129.27,126.009 L 129.244,126.003 L 129.219,125.999 L 129.193,125.997 L 129.167,125.998 L 129.141,126 L 129.115,126.006 L 129.09,126.013 L 129.066,126.022 L 129.043,126.033 L 129.02,126.047 L 128.999,126.062 L 128.979,126.079 L 128.961,126.098 L 128.945,126.118 L 128.93,126.139 L 128.917,126.162 L 128.906,126.185 L 128.897,126.21 L 128.891,126.235 L 128.886,126.261 L 128.884,126.287 L 128.884,126.313 L 128.886,126.339 L 128.891,126.364 L 128.897,126.389 L 128.906,126.414 L 128.917,126.438 L 128.93,126.46 L 128.945,126.482 L 128.961,126.502 L 128.979,126.52 L 128.999,126.537 L 129.02,126.553 L 129.043,126.566 L 129.066,126.577 L 129.09,126.587 L 129.115,126.594 L 129.141,126.599 L 129.167,126.602 L 129.193,126.602 L 129.219,126.6 L 129.244,126.597 L 129.27,126.59 L 129.294,126.582 L 129.318,126.572 L 129.341,126.559 L 129.363,126.545 L 129.383,126.529 L 129.402,126.511 L 129.42,126.492 L 129.436,126.471 L 129.449,126.449 L 129.461,126.426 L 129.471,126.402 L 129.479,126.377 L 129.484,126.351 L 129.488,126.326 L 129.489,126.3 L 129.186,126.3 Z" style="fill:#000000;fill-rule:evenodd;fill-opacity:1;stroke:#000000;stroke-width:0.0px;stroke-linecap:butt;stroke-linejoin:miter;stroke-opacity:1;"/>
<path d="M 129.489,127.51 L 129.488,127.484 L 129.484,127.458 L 129.479,127.433 L 129.471,127.408 L 129.461,127.384 L 129.449,127.361 L 129.436,127.338 L 129.42,127.318 L 129.402,127.298 L 129.383,127.28 L 129.363,127.264 L 129.341,127.25 L 129.318,127.238 L 129.294,127.227 L 129.27,127.219 L 129.244,127.213 L 129.219,127.209 L 129.193,127.207 L 129.167,127.208 L 129.141,127.211 L 129.115,127.216 L 129.09,127.223 L 129.066,127.232 L 129.043,127.244 L 129.02,127.257 L 128.999,127.272 L 128.979,127.289 L 128.961,127.308 L 128.945,127.328 L 128.93,127.349 L 128.917,127.372 L 128.906,127.396 L 128.897,127.42 L 128.891,127.445 L 128.886,127.471 L 128.884,127.497 L 128.884,127.523 L 128.886,127.549 L 128.891,127.575 L 128.897,127.6 L 128.906,127.624 L 128.917,127.648 L 128.93,127.67 L 128.945,127.692 L 128.961,127.712 L 128.979,127.731 L 128.999,127.748 L 129.02,127.763 L 129.043,127.776 L 129.066,127.788 L 129.09,127.797 L 129.115,127.804 L 129.141,127.809 L 129.167,127.812 L 129.193,127.812 L 129.219,127.811 L 129.244,127.807 L 129.27,127.801 L 129.294,127.792 L 129.318,127.782 L 129.341,127.77 L 129.363,127.755 L 129.383,127.739 L 129.402,127.722 L 129.42,127.702 L 129.436,127.681 L 129.449,127.659 L 129.461,127.636 L 129.471,127.612 L 129.479,127.587 L 129.484,127.562 L 129.488,127.536 L 129.489,127.51 L 129.186,127.51 Z" style="fill:#000000;fill-rule:evenodd;fill-opacity:1;stroke:#000000;stroke-width:0.0px;stroke-linecap:butt;stroke-linejoin:miter;stroke-opacity:1;"/>
<path class="bond-0 atom-0 atom-1" d="M 396.439,131.802 L 400.614,127.929" style="fill:none;fill-rule:evenodd;stroke:#0000FF;stroke-width:2.0px;stroke-linecap:butt;stroke-linejoin:miter;stroke-opacity:1"/>
<path class="bond-0 atom-0 atom-1" d="M 400.614,127.929 L 404.789,124.057" style="fill:none;fill-rule:evenodd;stroke:#000000;stroke-width:2.0px;stroke-linecap:butt;stroke-linejoin:miter;stroke-opacity:1"/>
<path class="bond-7 atom-0 atom-8" d="M 392.498,137.046 L 393.1,142.055" style="fill:none;fill-rule:evenodd;stroke:#0000FF;stroke-width:2.0px;stroke-linecap:butt;stroke-linejoin:miter;stroke-opacity:1"/>
<path class="bond-7 atom-0 atom-8" d="M 393.1,142.055 L 393.701,147.065" style="fill:none;fill-rule:evenodd;stroke:#FF0000;stroke-width:2.0px;stroke-linecap:butt;stroke-linejoin:miter;stroke-opacity:1"/>
<path class="bond-7 atom-0 atom-8" d="M 395.502,136.685 L 396.104,141.694" style="fill:none;fill-rule:evenodd;stroke:#0000FF;stroke-width:2.0px;stroke-linecap:butt;stroke-linejoin:miter;stroke-opacity:1"/>
<path class="bond-7 atom-0 atom-8" d="M 396.104,141.694 L 396.706,146.704" style="fill:none;fill-rule:evenodd;stroke:#FF0000;stroke-width:2.0px;stroke-linecap:butt;stroke-linejoin:miter;stroke-opacity:1"/>
<path class="bond-8 atom-5 atom-0" d="M 380.485,126.976 L 386.09,130.102" style="fill:none;fill-rule:evenodd;stroke:#000000;stroke-width:2.0px;stroke-linecap:butt;stroke-linejoin:miter;stroke-opacity:1"/>
<path class="bond-8 atom-5 atom-0" d="M 386.09,130.102 L 391.694,133.228" style="fill:none;fill-rule:evenodd;stroke:#0000FF;stroke-width:2.0px;stroke-linecap:butt;stroke-linejoin:miter;stroke-opacity:1"/>
<path class="bond-1 atom-1 atom-2" d="M 404.789,124.057 L 411.195,125.319" style="fill:none;fill-rule:evenodd;stroke:#000000;stroke-width:2.0px;stroke-linecap:butt;stroke-linejoin:miter;stroke-opacity:1"/>
<path class="bond-1 atom-1 atom-2" d="M 411.195,125.319 L 417.601,126.582" style="fill:none;fill-rule:evenodd;stroke:#00CC00;stroke-width:2.0px;stroke-linecap:butt;stroke-linejoin:miter;stroke-opacity:1"/>
<path class="bond-2 atom-1 atom-3" d="M 404.789,124.057 L 398.431,110.329" style="fill:none;fill-rule:evenodd;stroke:#000000;stroke-width:2.0px;stroke-linecap:butt;stroke-linejoin:miter;stroke-opacity:1"/>
<path class="bond-2 atom-1 atom-3" d="M 401.09,123.269 L 396.64,113.659" style="fill:none;fill-rule:evenodd;stroke:#000000;stroke-width:2.0px;stroke-linecap:butt;stroke-linejoin:miter;stroke-opacity:1"/>
<path class="bond-3 atom-3 atom-4" d="M 398.431,110.329 L 383.411,112.133" style="fill:none;fill-rule:evenodd;stroke:#000000;stroke-width:2.0px;stroke-linecap:butt;stroke-linejoin:miter;stroke-opacity:1"/>
<path class="bond-4 atom-4 atom-5" d="M 383.411,112.133 L 380.485,126.976" style="fill:none;fill-rule:evenodd;stroke:#000000;stroke-width:2.0px;stroke-linecap:butt;stroke-linejoin:miter;stroke-opacity:1"/>
<path class="bond-4 atom-4 atom-5" d="M 385.941,114.944 L 383.893,125.334" style="fill:none;fill-rule:evenodd;stroke:#000000;stroke-width:2.0px;stroke-linecap:butt;stroke-linejoin:miter;stroke-opacity:1"/>
<path class="bond-5 atom-5 atom-6" d="M 380.485,126.976 L 366.757,133.333" style="fill:none;fill-rule:evenodd;stroke:#000000;stroke-width:2.0px;stroke-linecap:butt;stroke-linejoin:miter;stroke-opacity:1"/>
<path class="bond-6 atom-6 atom-7" d="M 366.757,133.333 L 360.905,129.212" style="fill:none;fill-rule:evenodd;stroke:#000000;stroke-width:2.0px;stroke-linecap:butt;stroke-linejoin:miter;stroke-opacity:1"/>
<path class="bond-6 atom-6 atom-7" d="M 360.905,129.212 L 355.054,125.092" style="fill:none;fill-rule:evenodd;stroke:#A01EEF;stroke-width:2.0px;stroke-linecap:butt;stroke-linejoin:miter;stroke-opacity:1"/>
<path class="atom-0" d="M 392.75 132.203 L 394.154 134.472 Q 394.294 134.696, 394.517 135.101 Q 394.741 135.507, 394.753 135.531 L 394.753 132.203 L 395.322 132.203 L 395.322 136.487 L 394.735 136.487 L 393.228 134.006 Q 393.053 133.716, 392.865 133.383 Q 392.684 133.05, 392.629 132.947 L 392.629 136.487 L 392.073 136.487 L 392.073 132.203 L 392.75 132.203 " fill="#0000FF"/>
<path class="atom-0" d="M 395.682 132.975 L 396.437 132.975 L 396.437 132.18 L 396.772 132.18 L 396.772 132.975 L 397.547 132.975 L 397.547 133.263 L 396.772 133.263 L 396.772 134.061 L 396.437 134.061 L 396.437 133.263 L 395.682 133.263 L 395.682 132.975 " fill="#0000FF"/>
<path class="atom-2" d="M 417.98 127.131 Q 417.98 126.066, 418.476 125.509 Q 418.978 124.946, 419.928 124.946 Q 420.812 124.946, 421.284 125.569 L 420.884 125.896 Q 420.539 125.442, 419.928 125.442 Q 419.281 125.442, 418.936 125.878 Q 418.597 126.308, 418.597 127.131 Q 418.597 127.978, 418.948 128.414 Q 419.305 128.849, 419.995 128.849 Q 420.467 128.849, 421.017 128.565 L 421.187 129.019 Q 420.963 129.164, 420.624 129.249 Q 420.285 129.333, 419.91 129.333 Q 418.978 129.333, 418.476 128.765 Q 417.98 128.196, 417.98 127.131 " fill="#00CC00"/>
<path class="atom-2" d="M 421.804 124.686 L 422.361 124.686 L 422.361 129.279 L 421.804 129.279 L 421.804 124.686 " fill="#00CC00"/>
<path class="atom-7" d="M 354.1 122.472 L 354.675 122.472 L 354.675 126.774 L 354.1 126.774 L 354.1 122.472 " fill="#A01EEF"/>
<path class="atom-8" d="M 393.535 149.378 Q 393.535 148.349, 394.043 147.774 Q 394.551 147.199, 395.502 147.199 Q 396.452 147.199, 396.96 147.774 Q 397.468 148.349, 397.468 149.378 Q 397.468 150.418, 396.954 151.011 Q 396.44 151.598, 395.502 151.598 Q 394.558 151.598, 394.043 151.011 Q 393.535 150.424, 393.535 149.378 M 395.502 151.114 Q 396.155 151.114, 396.506 150.679 Q 396.863 150.237, 396.863 149.378 Q 396.863 148.536, 396.506 148.113 Q 396.155 147.683, 395.502 147.683 Q 394.848 147.683, 394.491 148.107 Q 394.14 148.53, 394.14 149.378 Q 394.14 150.243, 394.491 150.679 Q 394.848 151.114, 395.502 151.114 " fill="#FF0000"/>
<path class="bond-0 atom-0 atom-1" d="M 643.058,120.619 L 632.6,109.687" style="fill:none;fill-rule:evenodd;stroke:#000000;stroke-width:2.0px;stroke-linecap:butt;stroke-linejoin:miter;stroke-opacity:1"/>
<path class="bond-25 atom-16 atom-0" d="M 646.513,132.638 L 644.785,126.629" style="fill:none;fill-rule:evenodd;stroke:#0000FF;stroke-width:2.0px;stroke-linecap:butt;stroke-linejoin:miter;stroke-opacity:1"/>
<path class="bond-25 atom-16 atom-0" d="M 644.785,126.629 L 643.058,120.619" style="fill:none;fill-rule:evenodd;stroke:#000000;stroke-width:2.0px;stroke-linecap:butt;stroke-linejoin:miter;stroke-opacity:1"/>
<path class="bond-1 atom-1 atom-2" d="M 632.6,109.687 L 643.944,99.6781" style="fill:none;fill-rule:evenodd;stroke:#000000;stroke-width:2.0px;stroke-linecap:butt;stroke-linejoin:miter;stroke-opacity:1"/>
<path class="bond-1 atom-1 atom-2" d="M 632.3,105.917 L 640.241,98.9106" style="fill:none;fill-rule:evenodd;stroke:#000000;stroke-width:2.0px;stroke-linecap:butt;stroke-linejoin:miter;stroke-opacity:1"/>
<path class="bond-24 atom-6 atom-1" d="M 618.26,104.867 L 632.6,109.687" style="fill:none;fill-rule:evenodd;stroke:#000000;stroke-width:2.0px;stroke-linecap:butt;stroke-linejoin:miter;stroke-opacity:1"/>
<path class="bond-2 atom-2 atom-3" d="M 643.944,99.6781 L 640.949,84.8493" style="fill:none;fill-rule:evenodd;stroke:#000000;stroke-width:2.0px;stroke-linecap:butt;stroke-linejoin:miter;stroke-opacity:1"/>
<path class="bond-3 atom-3 atom-4" d="M 640.949,84.8493 L 626.608,80.0294" style="fill:none;fill-rule:evenodd;stroke:#000000;stroke-width:2.0px;stroke-linecap:butt;stroke-linejoin:miter;stroke-opacity:1"/>
<path class="bond-3 atom-3 atom-4" d="M 637.834,86.9943 L 627.796,83.6204" style="fill:none;fill-rule:evenodd;stroke:#000000;stroke-width:2.0px;stroke-linecap:butt;stroke-linejoin:miter;stroke-opacity:1"/>
<path class="bond-4 atom-4 atom-5" d="M 626.608,80.0294 L 615.264,90.0384" style="fill:none;fill-rule:evenodd;stroke:#000000;stroke-width:2.0px;stroke-linecap:butt;stroke-linejoin:miter;stroke-opacity:1"/>
<path class="bond-5 atom-5 atom-6" d="M 615.264,90.0384 L 618.26,104.867" style="fill:none;fill-rule:evenodd;stroke:#000000;stroke-width:2.0px;stroke-linecap:butt;stroke-linejoin:miter;stroke-opacity:1"/>
<path class="bond-5 atom-5 atom-6" d="M 618.679,91.6635 L 620.777,102.044" style="fill:none;fill-rule:evenodd;stroke:#000000;stroke-width:2.0px;stroke-linecap:butt;stroke-linejoin:miter;stroke-opacity:1"/>
<path class="bond-6 atom-6 atom-7" d="M 618.26,104.867 L 603.323,107.264" style="fill:none;fill-rule:evenodd;stroke:#000000;stroke-width:2.0px;stroke-linecap:butt;stroke-linejoin:miter;stroke-opacity:1"/>
<path class="bond-7 atom-7 atom-8" d="M 603.323,107.264 L 591.21,116.327" style="fill:none;fill-rule:evenodd;stroke:#000000;stroke-width:2.0px;stroke-linecap:butt;stroke-linejoin:miter;stroke-opacity:1"/>
<path class="bond-7 atom-7 atom-8" d="M 603.319,111.046 L 594.84,117.39" style="fill:none;fill-rule:evenodd;stroke:#000000;stroke-width:2.0px;stroke-linecap:butt;stroke-linejoin:miter;stroke-opacity:1"/>
<path class="bond-8 atom-8 atom-9" d="M 591.21,116.327 L 584.697,129.982" style="fill:none;fill-rule:evenodd;stroke:#000000;stroke-width:2.0px;stroke-linecap:butt;stroke-linejoin:miter;stroke-opacity:1"/>
<path class="bond-9 atom-9 atom-10" d="M 584.697,129.982 L 585.275,145.099" style="fill:none;fill-rule:evenodd;stroke:#000000;stroke-width:2.0px;stroke-linecap:butt;stroke-linejoin:miter;stroke-opacity:1"/>
<path class="bond-9 atom-9 atom-10" d="M 587.807,132.134 L 588.212,142.716" style="fill:none;fill-rule:evenodd;stroke:#000000;stroke-width:2.0px;stroke-linecap:butt;stroke-linejoin:miter;stroke-opacity:1"/>
<path class="bond-10 atom-10 atom-11" d="M 585.275,145.099 L 592.813,158.216" style="fill:none;fill-rule:evenodd;stroke:#000000;stroke-width:2.0px;stroke-linecap:butt;stroke-linejoin:miter;stroke-opacity:1"/>
<path class="bond-11 atom-11 atom-12" d="M 592.813,158.216 L 605.583,166.328" style="fill:none;fill-rule:evenodd;stroke:#000000;stroke-width:2.0px;stroke-linecap:butt;stroke-linejoin:miter;stroke-opacity:1"/>
<path class="bond-11 atom-11 atom-12" d="M 596.351,156.879 L 605.29,162.557" style="fill:none;fill-rule:evenodd;stroke:#000000;stroke-width:2.0px;stroke-linecap:butt;stroke-linejoin:miter;stroke-opacity:1"/>
<path class="bond-12 atom-12 atom-13" d="M 605.583,166.328 L 612.12,166.869" style="fill:none;fill-rule:evenodd;stroke:#000000;stroke-width:2.0px;stroke-linecap:butt;stroke-linejoin:miter;stroke-opacity:1"/>
<path class="bond-12 atom-12 atom-13" d="M 612.12,166.869 L 618.657,167.41" style="fill:none;fill-rule:evenodd;stroke:#0000FF;stroke-width:2.0px;stroke-linecap:butt;stroke-linejoin:miter;stroke-opacity:1"/>
<path class="bond-12 atom-12 atom-13" d="M 607.794,163.475 L 612.369,163.853" style="fill:none;fill-rule:evenodd;stroke:#000000;stroke-width:2.0px;stroke-linecap:butt;stroke-linejoin:miter;stroke-opacity:1"/>
<path class="bond-12 atom-12 atom-13" d="M 612.369,163.853 L 616.945,164.232" style="fill:none;fill-rule:evenodd;stroke:#0000FF;stroke-width:2.0px;stroke-linecap:butt;stroke-linejoin:miter;stroke-opacity:1"/>
<path class="bond-13 atom-13 atom-14" d="M 622.663,166.727 L 632.641,162.5" style="fill:none;fill-rule:evenodd;stroke:#0000FF;stroke-width:2.0px;stroke-linecap:butt;stroke-linejoin:miter;stroke-opacity:1"/>
<path class="bond-14 atom-14 atom-15" d="M 636.593,159.231 L 640.387,154.603" style="fill:none;fill-rule:evenodd;stroke:#0000FF;stroke-width:2.0px;stroke-linecap:butt;stroke-linejoin:miter;stroke-opacity:1"/>
<path class="bond-14 atom-14 atom-15" d="M 640.387,154.603 L 644.181,149.975" style="fill:none;fill-rule:evenodd;stroke:#000000;stroke-width:2.0px;stroke-linecap:butt;stroke-linejoin:miter;stroke-opacity:1"/>
<path class="bond-14 atom-14 atom-15" d="M 635.391,155.924 L 638.047,152.685" style="fill:none;fill-rule:evenodd;stroke:#0000FF;stroke-width:2.0px;stroke-linecap:butt;stroke-linejoin:miter;stroke-opacity:1"/>
<path class="bond-14 atom-14 atom-15" d="M 638.047,152.685 L 640.703,149.445" style="fill:none;fill-rule:evenodd;stroke:#000000;stroke-width:2.0px;stroke-linecap:butt;stroke-linejoin:miter;stroke-opacity:1"/>
<path class="bond-15 atom-15 atom-16" d="M 644.181,149.975 L 645.449,143.827" style="fill:none;fill-rule:evenodd;stroke:#000000;stroke-width:2.0px;stroke-linecap:butt;stroke-linejoin:miter;stroke-opacity:1"/>
<path class="bond-15 atom-15 atom-16" d="M 645.449,143.827 L 646.718,137.679" style="fill:none;fill-rule:evenodd;stroke:#0000FF;stroke-width:2.0px;stroke-linecap:butt;stroke-linejoin:miter;stroke-opacity:1"/>
<path class="bond-16 atom-16 atom-17" d="M 649.24,135.082 L 655.798,134.831" style="fill:none;fill-rule:evenodd;stroke:#0000FF;stroke-width:2.0px;stroke-linecap:butt;stroke-linejoin:miter;stroke-opacity:1"/>
<path class="bond-16 atom-16 atom-17" d="M 655.798,134.831 L 662.355,134.58" style="fill:none;fill-rule:evenodd;stroke:#000000;stroke-width:2.0px;stroke-linecap:butt;stroke-linejoin:miter;stroke-opacity:1"/>
<path class="bond-17 atom-17 atom-18" d="M 662.355,134.58 L 670.414,147.383" style="fill:none;fill-rule:evenodd;stroke:#000000;stroke-width:2.0px;stroke-linecap:butt;stroke-linejoin:miter;stroke-opacity:1"/>
<path class="bond-17 atom-17 atom-18" d="M 666.124,134.889 L 671.766,143.851" style="fill:none;fill-rule:evenodd;stroke:#000000;stroke-width:2.0px;stroke-linecap:butt;stroke-linejoin:miter;stroke-opacity:1"/>
<path class="bond-26 atom-23 atom-17" d="M 669.413,121.199 L 662.355,134.58" style="fill:none;fill-rule:evenodd;stroke:#000000;stroke-width:2.0px;stroke-linecap:butt;stroke-linejoin:miter;stroke-opacity:1"/>
<path class="bond-18 atom-18 atom-19" d="M 670.414,147.383 L 685.532,146.805" style="fill:none;fill-rule:evenodd;stroke:#000000;stroke-width:2.0px;stroke-linecap:butt;stroke-linejoin:miter;stroke-opacity:1"/>
<path class="bond-19 atom-19 atom-20" d="M 685.532,146.805 L 692.59,133.423" style="fill:none;fill-rule:evenodd;stroke:#000000;stroke-width:2.0px;stroke-linecap:butt;stroke-linejoin:miter;stroke-opacity:1"/>
<path class="bond-19 atom-19 atom-20" d="M 683.914,143.386 L 688.855,134.019" style="fill:none;fill-rule:evenodd;stroke:#000000;stroke-width:2.0px;stroke-linecap:butt;stroke-linejoin:miter;stroke-opacity:1"/>
<path class="bond-20 atom-20 atom-21" d="M 692.59,133.423 L 699.322,133.166" style="fill:none;fill-rule:evenodd;stroke:#000000;stroke-width:2.0px;stroke-linecap:butt;stroke-linejoin:miter;stroke-opacity:1"/>
<path class="bond-20 atom-20 atom-21" d="M 699.322,133.166 L 706.055,132.908" style="fill:none;fill-rule:evenodd;stroke:#33CCCC;stroke-width:2.0px;stroke-linecap:butt;stroke-linejoin:miter;stroke-opacity:1"/>
<path class="bond-21 atom-20 atom-22" d="M 692.59,133.423 L 684.53,120.62" style="fill:none;fill-rule:evenodd;stroke:#000000;stroke-width:2.0px;stroke-linecap:butt;stroke-linejoin:miter;stroke-opacity:1"/>
<path class="bond-22 atom-22 atom-23" d="M 684.53,120.62 L 669.413,121.199" style="fill:none;fill-rule:evenodd;stroke:#000000;stroke-width:2.0px;stroke-linecap:butt;stroke-linejoin:miter;stroke-opacity:1"/>
<path class="bond-22 atom-22 atom-23" d="M 682.378,123.731 L 671.796,124.136" style="fill:none;fill-rule:evenodd;stroke:#000000;stroke-width:2.0px;stroke-linecap:butt;stroke-linejoin:miter;stroke-opacity:1"/>
<path class="bond-23 atom-23 atom-24" d="M 669.413,121.199 L 666.176,116.058" style="fill:none;fill-rule:evenodd;stroke:#000000;stroke-width:2.0px;stroke-linecap:butt;stroke-linejoin:miter;stroke-opacity:1"/>
<path class="bond-23 atom-23 atom-24" d="M 666.176,116.058 L 662.94,110.917" style="fill:none;fill-rule:evenodd;stroke:#33CCCC;stroke-width:2.0px;stroke-linecap:butt;stroke-linejoin:miter;stroke-opacity:1"/>
<path class="atom-13" d="M 619.713 165.434 L 621.117 167.703 Q 621.256 167.927, 621.48 168.332 Q 621.704 168.738, 621.716 168.762 L 621.716 165.434 L 622.284 165.434 L 622.284 169.718 L 621.698 169.718 L 620.191 167.237 Q 620.015 166.946, 619.828 166.614 Q 619.646 166.281, 619.592 166.178 L 619.592 169.718 L 619.035 169.718 L 619.035 165.434 L 619.713 165.434 " fill="#0000FF"/>
<path class="atom-14" d="M 633.643 159.532 L 635.046 161.801 Q 635.186 162.025, 635.41 162.431 Q 635.633 162.836, 635.646 162.86 L 635.646 159.532 L 636.214 159.532 L 636.214 163.816 L 635.627 163.816 L 634.121 161.335 Q 633.945 161.045, 633.757 160.712 Q 633.576 160.379, 633.521 160.276 L 633.521 163.816 L 632.965 163.816 L 632.965 159.532 L 633.643 159.532 " fill="#0000FF"/>
<path class="atom-16" d="M 646.29 133.016 L 647.694 135.286 Q 647.833 135.51, 648.057 135.915 Q 648.281 136.32, 648.293 136.345 L 648.293 133.016 L 648.862 133.016 L 648.862 137.301 L 648.275 137.301 L 646.768 134.82 Q 646.593 134.529, 646.405 134.196 Q 646.224 133.864, 646.169 133.761 L 646.169 137.301 L 645.613 137.301 L 645.613 133.016 L 646.29 133.016 " fill="#0000FF"/>
<path class="atom-21" d="M 706.433 130.703 L 708.981 130.703 L 708.981 131.193 L 707.008 131.193 L 707.008 132.494 L 708.763 132.494 L 708.763 132.99 L 707.008 132.99 L 707.008 134.987 L 706.433 134.987 L 706.433 130.703 " fill="#33CCCC"/>
<path class="atom-24" d="M 660.079 106.254 L 662.627 106.254 L 662.627 106.744 L 660.654 106.744 L 660.654 108.045 L 662.409 108.045 L 662.409 108.541 L 660.654 108.541 L 660.654 110.538 L 660.079 110.538 L 660.079 106.254 " fill="#33CCCC"/>
<path d="M 645.176,120.619 L 645.175,120.593 L 645.171,120.567 L 645.166,120.542 L 645.158,120.517 L 645.148,120.493 L 645.137,120.47 L 645.123,120.448 L 645.107,120.427 L 645.09,120.407 L 645.071,120.39 L 645.05,120.373 L 645.028,120.359 L 645.006,120.347 L 644.982,120.336 L 644.957,120.328 L 644.932,120.322 L 644.906,120.318 L 644.88,120.316 L 644.854,120.317 L 644.828,120.32 L 644.802,120.325 L 644.777,120.332 L 644.753,120.341 L 644.73,120.353 L 644.707,120.366 L 644.686,120.381 L 644.666,120.398 L 644.648,120.417 L 644.632,120.437 L 644.617,120.458 L 644.604,120.481 L 644.593,120.505 L 644.584,120.529 L 644.578,120.554 L 644.573,120.58 L 644.571,120.606 L 644.571,120.632 L 644.573,120.658 L 644.578,120.684 L 644.584,120.709 L 644.593,120.733 L 644.604,120.757 L 644.617,120.78 L 644.632,120.801 L 644.648,120.821 L 644.666,120.84 L 644.686,120.857 L 644.707,120.872 L 644.73,120.885 L 644.753,120.897 L 644.777,120.906 L 644.802,120.913 L 644.828,120.918 L 644.854,120.921 L 644.88,120.921 L 644.906,120.92 L 644.932,120.916 L 644.957,120.91 L 644.982,120.902 L 645.006,120.891 L 645.028,120.879 L 645.05,120.865 L 645.071,120.848 L 645.09,120.831 L 645.107,120.811 L 645.123,120.79 L 645.137,120.768 L 645.148,120.745 L 645.158,120.721 L 645.166,120.696 L 645.171,120.671 L 645.175,120.645 L 645.176,120.619 L 644.873,120.619 Z" style="fill:#000000;fill-rule:evenodd;fill-opacity:1;stroke:#000000;stroke-width:0.0px;stroke-linecap:butt;stroke-linejoin:miter;stroke-opacity:1;"/>
<path class="bond-0 atom-0 atom-1" d="M 93.3421,380.737 L 106.65,373.541" style="fill:none;fill-rule:evenodd;stroke:#000000;stroke-width:2.0px;stroke-linecap:butt;stroke-linejoin:miter;stroke-opacity:1"/>
<path class="bond-0 atom-0 atom-1" d="M 91.903,378.075 L 105.211,370.879" style="fill:none;fill-rule:evenodd;stroke:#000000;stroke-width:2.0px;stroke-linecap:butt;stroke-linejoin:miter;stroke-opacity:1"/>
<path class="bond-1 atom-1 atom-2" d="M 105.93,372.21 L 118.816,380.137" style="fill:none;fill-rule:evenodd;stroke:#000000;stroke-width:2.0px;stroke-linecap:butt;stroke-linejoin:miter;stroke-opacity:1"/>
<path class="bond-2 atom-2 atom-3" d="M 118.816,380.137 L 132.123,372.941" style="fill:none;fill-rule:evenodd;stroke:#000000;stroke-width:2.0px;stroke-linecap:butt;stroke-linejoin:miter;stroke-opacity:1"/>
<path class="bond-2 atom-2 atom-3" d="M 119.373,376.396 L 128.688,371.359" style="fill:none;fill-rule:evenodd;stroke:#000000;stroke-width:2.0px;stroke-linecap:butt;stroke-linejoin:miter;stroke-opacity:1"/>
<path class="bond-3 atom-3 atom-4" d="M 132.123,372.941 L 145.009,380.868" style="fill:none;fill-rule:evenodd;stroke:#000000;stroke-width:2.0px;stroke-linecap:butt;stroke-linejoin:miter;stroke-opacity:1"/>
<path class="bond-4 atom-4 atom-5" d="M 145.009,380.868 L 158.316,373.673" style="fill:none;fill-rule:evenodd;stroke:#000000;stroke-width:2.0px;stroke-linecap:butt;stroke-linejoin:miter;stroke-opacity:1"/>
<path class="bond-4 atom-4 atom-5" d="M 145.566,377.127 L 154.881,372.09" style="fill:none;fill-rule:evenodd;stroke:#000000;stroke-width:2.0px;stroke-linecap:butt;stroke-linejoin:miter;stroke-opacity:1"/>
<path class="bond-5 atom-5 atom-6" d="M 158.316,373.673 L 171.202,381.599" style="fill:none;fill-rule:evenodd;stroke:#000000;stroke-width:2.0px;stroke-linecap:butt;stroke-linejoin:miter;stroke-opacity:1"/>
<path class="bond-6 atom-6 atom-7" d="M 171.921,382.93 L 185.229,375.734" style="fill:none;fill-rule:evenodd;stroke:#000000;stroke-width:2.0px;stroke-linecap:butt;stroke-linejoin:miter;stroke-opacity:1"/>
<path class="bond-6 atom-6 atom-7" d="M 170.482,380.269 L 183.79,373.073" style="fill:none;fill-rule:evenodd;stroke:#000000;stroke-width:2.0px;stroke-linecap:butt;stroke-linejoin:miter;stroke-opacity:1"/>
<path class="bond-0 atom-0 atom-1" d="M 392.259,374.453 L 391.027,368.296" style="fill:none;fill-rule:evenodd;stroke:#0000FF;stroke-width:2.0px;stroke-linecap:butt;stroke-linejoin:miter;stroke-opacity:1"/>
<path class="bond-0 atom-0 atom-1" d="M 391.027,368.296 L 389.795,362.139" style="fill:none;fill-rule:evenodd;stroke:#000000;stroke-width:2.0px;stroke-linecap:butt;stroke-linejoin:miter;stroke-opacity:1"/>
<path class="bond-5 atom-0 atom-6" d="M 394.766,377.894 L 404.562,382.396" style="fill:none;fill-rule:evenodd;stroke:#0000FF;stroke-width:2.0px;stroke-linecap:butt;stroke-linejoin:miter;stroke-opacity:1"/>
<path class="bond-7 atom-4 atom-0" d="M 379.572,384.381 L 385.166,381.239" style="fill:none;fill-rule:evenodd;stroke:#000000;stroke-width:2.0px;stroke-linecap:butt;stroke-linejoin:miter;stroke-opacity:1"/>
<path class="bond-7 atom-4 atom-0" d="M 385.166,381.239 L 390.76,378.098" style="fill:none;fill-rule:evenodd;stroke:#0000FF;stroke-width:2.0px;stroke-linecap:butt;stroke-linejoin:miter;stroke-opacity:1"/>
<path class="bond-1 atom-1 atom-2" d="M 389.795,362.139 L 374.769,360.378" style="fill:none;fill-rule:evenodd;stroke:#000000;stroke-width:2.0px;stroke-linecap:butt;stroke-linejoin:miter;stroke-opacity:1"/>
<path class="bond-1 atom-1 atom-2" d="M 387.189,364.88 L 376.671,363.647" style="fill:none;fill-rule:evenodd;stroke:#000000;stroke-width:2.0px;stroke-linecap:butt;stroke-linejoin:miter;stroke-opacity:1"/>
<path class="bond-2 atom-2 atom-3" d="M 374.769,360.378 L 368.452,374.124" style="fill:none;fill-rule:evenodd;stroke:#000000;stroke-width:2.0px;stroke-linecap:butt;stroke-linejoin:miter;stroke-opacity:1"/>
<path class="bond-3 atom-3 atom-4" d="M 368.452,374.124 L 379.572,384.381" style="fill:none;fill-rule:evenodd;stroke:#000000;stroke-width:2.0px;stroke-linecap:butt;stroke-linejoin:miter;stroke-opacity:1"/>
<path class="bond-3 atom-3 atom-4" d="M 372.171,373.438 L 379.956,380.618" style="fill:none;fill-rule:evenodd;stroke:#000000;stroke-width:2.0px;stroke-linecap:butt;stroke-linejoin:miter;stroke-opacity:1"/>
<path class="bond-4 atom-4 atom-5" d="M 379.572,384.381 L 378.841,390.621" style="fill:none;fill-rule:evenodd;stroke:#000000;stroke-width:2.0px;stroke-linecap:butt;stroke-linejoin:miter;stroke-opacity:1"/>
<path class="bond-4 atom-4 atom-5" d="M 378.841,390.621 L 378.11,396.862" style="fill:none;fill-rule:evenodd;stroke:#FF0000;stroke-width:2.0px;stroke-linecap:butt;stroke-linejoin:miter;stroke-opacity:1"/>
<path class="bond-6 atom-6 atom-7" d="M 409.067,381.479 L 412.985,378.704" style="fill:none;fill-rule:evenodd;stroke:#0000FF;stroke-width:2.0px;stroke-linecap:butt;stroke-linejoin:miter;stroke-opacity:1"/>
<path class="bond-6 atom-6 atom-7" d="M 412.985,378.704 L 416.902,375.928" style="fill:none;fill-rule:evenodd;stroke:#00CC00;stroke-width:2.0px;stroke-linecap:butt;stroke-linejoin:miter;stroke-opacity:1"/>
<path class="atom-0" d="M 391.816 374.831 L 393.22 377.1 Q 393.359 377.324, 393.583 377.73 Q 393.807 378.135, 393.819 378.159 L 393.819 374.831 L 394.388 374.831 L 394.388 379.115 L 393.801 379.115 L 392.294 376.634 Q 392.119 376.344, 391.931 376.011 Q 391.75 375.678, 391.695 375.575 L 391.695 379.115 L 391.139 379.115 L 391.139 374.831 L 391.816 374.831 " fill="#0000FF"/>
<path class="atom-0" d="M 394.748 375.603 L 395.503 375.603 L 395.503 374.809 L 395.838 374.809 L 395.838 375.603 L 396.613 375.603 L 396.613 375.891 L 395.838 375.891 L 395.838 376.69 L 395.503 376.69 L 395.503 375.891 L 394.748 375.891 L 394.748 375.603 " fill="#0000FF"/>
<path class="atom-5" d="M 375.845 399.418 Q 375.845 398.39, 376.353 397.815 Q 376.862 397.24, 377.812 397.24 Q 378.762 397.24, 379.27 397.815 Q 379.778 398.39, 379.778 399.418 Q 379.778 400.459, 379.264 401.052 Q 378.75 401.639, 377.812 401.639 Q 376.868 401.639, 376.353 401.052 Q 375.845 400.465, 375.845 399.418 M 377.812 401.155 Q 378.465 401.155, 378.816 400.719 Q 379.173 400.278, 379.173 399.418 Q 379.173 398.577, 378.816 398.154 Q 378.465 397.724, 377.812 397.724 Q 377.158 397.724, 376.801 398.148 Q 376.45 398.571, 376.45 399.418 Q 376.45 400.284, 376.801 400.719 Q 377.158 401.155, 377.812 401.155 " fill="#FF0000"/>
<path class="atom-5" d="M 379.978 397.939 L 381.444 397.939 L 381.444 398.259 L 379.978 398.259 L 379.978 397.939 " fill="#FF0000"/>
<path class="atom-6" d="M 405.562 381.149 L 406.966 383.418 Q 407.106 383.642, 407.329 384.048 Q 407.553 384.453, 407.565 384.477 L 407.565 381.149 L 408.134 381.149 L 408.134 385.433 L 407.547 385.433 L 406.041 382.952 Q 405.865 382.662, 405.677 382.329 Q 405.496 381.996, 405.441 381.893 L 405.441 385.433 L 404.885 385.433 L 404.885 381.149 L 405.562 381.149 " fill="#0000FF"/>
<path class="atom-6" d="M 408.334 381.857 L 409.8 381.857 L 409.8 382.177 L 408.334 382.177 L 408.334 381.857 " fill="#0000FF"/>
<path class="atom-7" d="M 417.202 374.694 Q 417.202 373.629, 417.698 373.072 Q 418.2 372.509, 419.15 372.509 Q 420.034 372.509, 420.506 373.133 L 420.107 373.459 Q 419.762 373.006, 419.15 373.006 Q 418.503 373.006, 418.158 373.441 Q 417.819 373.871, 417.819 374.694 Q 417.819 375.541, 418.17 375.977 Q 418.527 376.412, 419.217 376.412 Q 419.689 376.412, 420.24 376.128 L 420.409 376.582 Q 420.185 376.727, 419.846 376.812 Q 419.507 376.897, 419.132 376.897 Q 418.2 376.897, 417.698 376.328 Q 417.202 375.759, 417.202 374.694 " fill="#00CC00"/>
<path class="atom-7" d="M 421.026 372.249 L 421.583 372.249 L 421.583 376.842 L 421.026 376.842 L 421.026 372.249 " fill="#00CC00"/>
<path d="M 397.823,376.973 L 397.822,376.947 L 397.819,376.921 L 397.813,376.896 L 397.805,376.871 L 397.796,376.847 L 397.784,376.824 L 397.77,376.802 L 397.754,376.781 L 397.737,376.762 L 397.718,376.744 L 397.697,376.728 L 397.676,376.713 L 397.653,376.701 L 397.629,376.691 L 397.604,376.683 L 397.579,376.676 L 397.553,376.672 L 397.527,376.671 L 397.501,376.671 L 397.475,376.674 L 397.45,376.679 L 397.425,376.686 L 397.4,376.696 L 397.377,376.707 L 397.354,376.72 L 397.333,376.736 L 397.314,376.753 L 397.295,376.771 L 397.279,376.791 L 397.264,376.813 L 397.251,376.835 L 397.24,376.859 L 397.232,376.884 L 397.225,376.909 L 397.22,376.934 L 397.218,376.96 L 397.218,376.986 L 397.22,377.012 L 397.225,377.038 L 397.232,377.063 L 397.24,377.088 L 397.251,377.111 L 397.264,377.134 L 397.279,377.155 L 397.295,377.175 L 397.314,377.194 L 397.333,377.211 L 397.354,377.226 L 397.377,377.24 L 397.4,377.251 L 397.425,377.26 L 397.45,377.267 L 397.475,377.272 L 397.501,377.275 L 397.527,377.276 L 397.553,377.274 L 397.579,377.27 L 397.604,377.264 L 397.629,377.256 L 397.653,377.246 L 397.676,377.233 L 397.697,377.219 L 397.718,377.203 L 397.737,377.185 L 397.754,377.166 L 397.77,377.145 L 397.784,377.123 L 397.796,377.1 L 397.805,377.075 L 397.813,377.051 L 397.819,377.025 L 397.822,376.999 L 397.823,376.973 L 397.521,376.973 Z" style="fill:#000000;fill-rule:evenodd;fill-opacity:1;stroke:#000000;stroke-width:0.0px;stroke-linecap:butt;stroke-linejoin:miter;stroke-opacity:1;"/>
<path class="bond-0 atom-0 atom-1" d="M 520.058,377.175 L 526.36,375.476" style="fill:none;fill-rule:evenodd;stroke:#0000FF;stroke-width:2.0px;stroke-linecap:butt;stroke-linejoin:miter;stroke-opacity:1"/>
<path class="bond-0 atom-0 atom-1" d="M 526.36,375.476 L 532.662,373.777" style="fill:none;fill-rule:evenodd;stroke:#000000;stroke-width:2.0px;stroke-linecap:butt;stroke-linejoin:miter;stroke-opacity:1"/>
<path class="bond-1 atom-1 atom-2" d="M 534.124,374.166 L 535.723,368.162" style="fill:none;fill-rule:evenodd;stroke:#000000;stroke-width:2.0px;stroke-linecap:butt;stroke-linejoin:miter;stroke-opacity:1"/>
<path class="bond-1 atom-1 atom-2" d="M 535.723,368.162 L 537.322,362.158" style="fill:none;fill-rule:evenodd;stroke:#FF0000;stroke-width:2.0px;stroke-linecap:butt;stroke-linejoin:miter;stroke-opacity:1"/>
<path class="bond-1 atom-1 atom-2" d="M 531.2,373.387 L 532.799,367.383" style="fill:none;fill-rule:evenodd;stroke:#000000;stroke-width:2.0px;stroke-linecap:butt;stroke-linejoin:miter;stroke-opacity:1"/>
<path class="bond-1 atom-1 atom-2" d="M 532.799,367.383 L 534.398,361.38" style="fill:none;fill-rule:evenodd;stroke:#FF0000;stroke-width:2.0px;stroke-linecap:butt;stroke-linejoin:miter;stroke-opacity:1"/>
<path class="bond-2 atom-1 atom-3" d="M 532.662,373.777 L 543.376,384.458" style="fill:none;fill-rule:evenodd;stroke:#000000;stroke-width:2.0px;stroke-linecap:butt;stroke-linejoin:miter;stroke-opacity:1"/>
<path class="bond-3 atom-3 atom-4" d="M 543.376,384.458 L 557.983,380.519" style="fill:none;fill-rule:evenodd;stroke:#000000;stroke-width:2.0px;stroke-linecap:butt;stroke-linejoin:miter;stroke-opacity:1"/>
<path class="bond-3 atom-3 atom-4" d="M 544.779,380.945 L 555.004,378.189" style="fill:none;fill-rule:evenodd;stroke:#000000;stroke-width:2.0px;stroke-linecap:butt;stroke-linejoin:miter;stroke-opacity:1"/>
<path class="bond-4 atom-4 atom-5" d="M 557.983,380.519 L 568.697,391.2" style="fill:none;fill-rule:evenodd;stroke:#000000;stroke-width:2.0px;stroke-linecap:butt;stroke-linejoin:miter;stroke-opacity:1"/>
<path class="bond-5 atom-5 atom-6" d="M 568.697,391.2 L 583.304,387.262" style="fill:none;fill-rule:evenodd;stroke:#000000;stroke-width:2.0px;stroke-linecap:butt;stroke-linejoin:miter;stroke-opacity:1"/>
<path class="bond-5 atom-5 atom-6" d="M 570.1,387.688 L 580.325,384.932" style="fill:none;fill-rule:evenodd;stroke:#000000;stroke-width:2.0px;stroke-linecap:butt;stroke-linejoin:miter;stroke-opacity:1"/>
<path class="bond-6 atom-6 atom-7" d="M 583.304,387.262 L 585.716,392.969" style="fill:none;fill-rule:evenodd;stroke:#000000;stroke-width:2.0px;stroke-linecap:butt;stroke-linejoin:miter;stroke-opacity:1"/>
<path class="bond-6 atom-6 atom-7" d="M 585.716,392.969 L 588.129,398.676" style="fill:none;fill-rule:evenodd;stroke:#0000FF;stroke-width:2.0px;stroke-linecap:butt;stroke-linejoin:miter;stroke-opacity:1"/>
<path class="bond-22 atom-6 atom-23" d="M 583.304,387.262 L 581.391,372.255" style="fill:none;fill-rule:evenodd;stroke:#000000;stroke-width:2.0px;stroke-linecap:butt;stroke-linejoin:miter;stroke-opacity:1"/>
<path class="bond-7 atom-7 atom-8" d="M 591.197,403.709 L 594.911,408.367" style="fill:none;fill-rule:evenodd;stroke:#0000FF;stroke-width:2.0px;stroke-linecap:butt;stroke-linejoin:miter;stroke-opacity:1"/>
<path class="bond-7 atom-7 atom-8" d="M 594.911,408.367 L 598.625,413.026" style="fill:none;fill-rule:evenodd;stroke:#000000;stroke-width:2.0px;stroke-linecap:butt;stroke-linejoin:miter;stroke-opacity:1"/>
<path class="bond-8 atom-8 atom-9" d="M 597.53,411.982 L 593.485,416.228" style="fill:none;fill-rule:evenodd;stroke:#000000;stroke-width:2.0px;stroke-linecap:butt;stroke-linejoin:miter;stroke-opacity:1"/>
<path class="bond-8 atom-8 atom-9" d="M 593.485,416.228 L 589.441,420.475" style="fill:none;fill-rule:evenodd;stroke:#FF0000;stroke-width:2.0px;stroke-linecap:butt;stroke-linejoin:miter;stroke-opacity:1"/>
<path class="bond-8 atom-8 atom-9" d="M 599.721,414.069 L 595.676,418.315" style="fill:none;fill-rule:evenodd;stroke:#000000;stroke-width:2.0px;stroke-linecap:butt;stroke-linejoin:miter;stroke-opacity:1"/>
<path class="bond-8 atom-8 atom-9" d="M 595.676,418.315 L 591.632,422.561" style="fill:none;fill-rule:evenodd;stroke:#FF0000;stroke-width:2.0px;stroke-linecap:butt;stroke-linejoin:miter;stroke-opacity:1"/>
<path class="bond-9 atom-8 atom-10" d="M 598.625,413.026 L 610.899,421.871" style="fill:none;fill-rule:evenodd;stroke:#000000;stroke-width:2.0px;stroke-linecap:butt;stroke-linejoin:miter;stroke-opacity:1"/>
<path class="bond-10 atom-10 atom-11" d="M 610.899,421.871 L 617.417,435.523" style="fill:none;fill-rule:evenodd;stroke:#000000;stroke-width:2.0px;stroke-linecap:butt;stroke-linejoin:miter;stroke-opacity:1"/>
<path class="bond-10 atom-10 atom-11" d="M 614.607,422.615 L 619.17,432.172" style="fill:none;fill-rule:evenodd;stroke:#000000;stroke-width:2.0px;stroke-linecap:butt;stroke-linejoin:miter;stroke-opacity:1"/>
<path class="bond-44 atom-22 atom-10" d="M 619.462,409.4 L 610.899,421.871" style="fill:none;fill-rule:evenodd;stroke:#000000;stroke-width:2.0px;stroke-linecap:butt;stroke-linejoin:miter;stroke-opacity:1"/>
<path class="bond-11 atom-11 atom-12" d="M 617.417,435.523 L 632.499,436.704" style="fill:none;fill-rule:evenodd;stroke:#000000;stroke-width:2.0px;stroke-linecap:butt;stroke-linejoin:miter;stroke-opacity:1"/>
<path class="bond-12 atom-12 atom-13" d="M 632.499,436.704 L 641.063,424.233" style="fill:none;fill-rule:evenodd;stroke:#000000;stroke-width:2.0px;stroke-linecap:butt;stroke-linejoin:miter;stroke-opacity:1"/>
<path class="bond-12 atom-12 atom-13" d="M 631.29,433.12 L 637.284,424.391" style="fill:none;fill-rule:evenodd;stroke:#000000;stroke-width:2.0px;stroke-linecap:butt;stroke-linejoin:miter;stroke-opacity:1"/>
<path class="bond-13 atom-13 atom-14" d="M 641.063,424.233 L 668.527,418.498" style="fill:none;fill-rule:evenodd;stroke:#000000;stroke-width:2.0px;stroke-linecap:butt;stroke-linejoin:miter;stroke-opacity:1"/>
<path class="bond-20 atom-13 atom-21" d="M 641.063,424.233 L 634.545,410.581" style="fill:none;fill-rule:evenodd;stroke:#000000;stroke-width:2.0px;stroke-linecap:butt;stroke-linejoin:miter;stroke-opacity:1"/>
<path class="bond-14 atom-14 atom-15" d="M 668.527,418.498 L 679.684,408.282" style="fill:none;fill-rule:evenodd;stroke:#000000;stroke-width:2.0px;stroke-linecap:butt;stroke-linejoin:miter;stroke-opacity:1"/>
<path class="bond-14 atom-14 atom-15" d="M 668.157,414.734 L 675.967,407.583" style="fill:none;fill-rule:evenodd;stroke:#000000;stroke-width:2.0px;stroke-linecap:butt;stroke-linejoin:miter;stroke-opacity:1"/>
<path class="bond-15 atom-15 atom-16" d="M 679.684,408.282 L 687.672,395.434" style="fill:none;fill-rule:evenodd;stroke:#000000;stroke-width:2.0px;stroke-linecap:butt;stroke-linejoin:miter;stroke-opacity:1"/>
<path class="bond-16 atom-16 atom-17" d="M 687.672,395.434 L 701.488,401.597" style="fill:none;fill-rule:evenodd;stroke:#000000;stroke-width:2.0px;stroke-linecap:butt;stroke-linejoin:miter;stroke-opacity:1"/>
<path class="bond-16 atom-16 atom-17" d="M 688.511,399.121 L 698.183,403.436" style="fill:none;fill-rule:evenodd;stroke:#000000;stroke-width:2.0px;stroke-linecap:butt;stroke-linejoin:miter;stroke-opacity:1"/>
<path class="bond-46 atom-41 atom-16" d="M 691.13,383.542 L 689.401,389.488" style="fill:none;fill-rule:evenodd;stroke:#CCCC00;stroke-width:2.0px;stroke-linecap:butt;stroke-linejoin:miter;stroke-opacity:1"/>
<path class="bond-46 atom-41 atom-16" d="M 689.401,389.488 L 687.672,395.434" style="fill:none;fill-rule:evenodd;stroke:#000000;stroke-width:2.0px;stroke-linecap:butt;stroke-linejoin:miter;stroke-opacity:1"/>
<path class="bond-17 atom-17 atom-18" d="M 701.488,401.597 L 703.058,416.644" style="fill:none;fill-rule:evenodd;stroke:#000000;stroke-width:2.0px;stroke-linecap:butt;stroke-linejoin:miter;stroke-opacity:1"/>
<path class="bond-18 atom-18 atom-19" d="M 703.058,416.644 L 697.263,420.847" style="fill:none;fill-rule:evenodd;stroke:#000000;stroke-width:2.0px;stroke-linecap:butt;stroke-linejoin:miter;stroke-opacity:1"/>
<path class="bond-18 atom-18 atom-19" d="M 697.263,420.847 L 691.469,425.051" style="fill:none;fill-rule:evenodd;stroke:#00CC00;stroke-width:2.0px;stroke-linecap:butt;stroke-linejoin:miter;stroke-opacity:1"/>
<path class="bond-19 atom-18 atom-20" d="M 702.442,418.025 L 716.258,424.189" style="fill:none;fill-rule:evenodd;stroke:#000000;stroke-width:2.0px;stroke-linecap:butt;stroke-linejoin:miter;stroke-opacity:1"/>
<path class="bond-19 atom-18 atom-20" d="M 703.674,415.262 L 717.49,421.426" style="fill:none;fill-rule:evenodd;stroke:#000000;stroke-width:2.0px;stroke-linecap:butt;stroke-linejoin:miter;stroke-opacity:1"/>
<path class="bond-21 atom-21 atom-22" d="M 634.545,410.581 L 619.462,409.4" style="fill:none;fill-rule:evenodd;stroke:#000000;stroke-width:2.0px;stroke-linecap:butt;stroke-linejoin:miter;stroke-opacity:1"/>
<path class="bond-21 atom-21 atom-22" d="M 632.046,413.42 L 621.488,412.593" style="fill:none;fill-rule:evenodd;stroke:#000000;stroke-width:2.0px;stroke-linecap:butt;stroke-linejoin:miter;stroke-opacity:1"/>
<path class="bond-23 atom-23 atom-24" d="M 581.391,372.255 L 583.599,357.289" style="fill:none;fill-rule:evenodd;stroke:#000000;stroke-width:2.0px;stroke-linecap:butt;stroke-linejoin:miter;stroke-opacity:1"/>
<path class="bond-23 atom-23 atom-24" d="M 584.716,370.452 L 586.261,359.975" style="fill:none;fill-rule:evenodd;stroke:#000000;stroke-width:2.0px;stroke-linecap:butt;stroke-linejoin:miter;stroke-opacity:1"/>
<path class="bond-24 atom-25 atom-24" d="M 586.465,349.625 L 587.386,350.036" style="fill:none;fill-rule:evenodd;stroke:#CCCC00;stroke-width:1.0px;stroke-linecap:butt;stroke-linejoin:miter;stroke-opacity:1"/>
<path class="bond-24 atom-25 atom-24" d="M 584.341,353.149 L 586.183,353.971" style="fill:none;fill-rule:evenodd;stroke:#000000;stroke-width:1.0px;stroke-linecap:butt;stroke-linejoin:miter;stroke-opacity:1"/>
<path class="bond-24 atom-25 atom-24" d="M 582.217,356.672 L 584.98,357.905" style="fill:none;fill-rule:evenodd;stroke:#000000;stroke-width:1.0px;stroke-linecap:butt;stroke-linejoin:miter;stroke-opacity:1"/>
<path class="bond-25 atom-25 atom-26" d="M 588.809,341.099 L 584.407,338.363" style="fill:none;fill-rule:evenodd;stroke:#CCCC00;stroke-width:2.0px;stroke-linecap:butt;stroke-linejoin:miter;stroke-opacity:1"/>
<path class="bond-25 atom-25 atom-26" d="M 584.407,338.363 L 580.006,335.626" style="fill:none;fill-rule:evenodd;stroke:#FF0000;stroke-width:2.0px;stroke-linecap:butt;stroke-linejoin:miter;stroke-opacity:1"/>
<path class="bond-25 atom-25 atom-26" d="M 587.211,343.668 L 582.81,340.932" style="fill:none;fill-rule:evenodd;stroke:#CCCC00;stroke-width:2.0px;stroke-linecap:butt;stroke-linejoin:miter;stroke-opacity:1"/>
<path class="bond-25 atom-25 atom-26" d="M 582.81,340.932 L 578.409,338.196" style="fill:none;fill-rule:evenodd;stroke:#FF0000;stroke-width:2.0px;stroke-linecap:butt;stroke-linejoin:miter;stroke-opacity:1"/>
<path class="bond-26 atom-25 atom-27" d="M 591.514,341.362 L 595.469,336.597" style="fill:none;fill-rule:evenodd;stroke:#CCCC00;stroke-width:2.0px;stroke-linecap:butt;stroke-linejoin:miter;stroke-opacity:1"/>
<path class="bond-26 atom-25 atom-27" d="M 595.469,336.597 L 599.424,331.832" style="fill:none;fill-rule:evenodd;stroke:#000000;stroke-width:2.0px;stroke-linecap:butt;stroke-linejoin:miter;stroke-opacity:1"/>
<path class="bond-27 atom-27 atom-28" d="M 599.424,331.832 L 611.869,323.23" style="fill:none;fill-rule:evenodd;stroke:#000000;stroke-width:2.0px;stroke-linecap:butt;stroke-linejoin:miter;stroke-opacity:1"/>
<path class="bond-27 atom-27 atom-28" d="M 603.012,333.031 L 611.723,327.009" style="fill:none;fill-rule:evenodd;stroke:#000000;stroke-width:2.0px;stroke-linecap:butt;stroke-linejoin:miter;stroke-opacity:1"/>
<path class="bond-28 atom-28 atom-29" d="M 611.869,323.23 L 626.173,318.304" style="fill:none;fill-rule:evenodd;stroke:#000000;stroke-width:2.0px;stroke-linecap:butt;stroke-linejoin:miter;stroke-opacity:1"/>
<path class="bond-29 atom-29 atom-30" d="M 626.173,318.304 L 641.276,317.42" style="fill:none;fill-rule:evenodd;stroke:#000000;stroke-width:2.0px;stroke-linecap:butt;stroke-linejoin:miter;stroke-opacity:1"/>
<path class="bond-29 atom-29 atom-30" d="M 628.615,321.192 L 639.187,320.573" style="fill:none;fill-rule:evenodd;stroke:#000000;stroke-width:2.0px;stroke-linecap:butt;stroke-linejoin:miter;stroke-opacity:1"/>
<path class="bond-30 atom-30 atom-31" d="M 641.276,317.42 L 656.057,320.644" style="fill:none;fill-rule:evenodd;stroke:#000000;stroke-width:2.0px;stroke-linecap:butt;stroke-linejoin:miter;stroke-opacity:1"/>
<path class="bond-31 atom-31 atom-32" d="M 656.057,320.644 L 669.42,327.736" style="fill:none;fill-rule:evenodd;stroke:#000000;stroke-width:2.0px;stroke-linecap:butt;stroke-linejoin:miter;stroke-opacity:1"/>
<path class="bond-31 atom-31 atom-32" d="M 656.643,324.38 L 665.997,329.344" style="fill:none;fill-rule:evenodd;stroke:#000000;stroke-width:2.0px;stroke-linecap:butt;stroke-linejoin:miter;stroke-opacity:1"/>
<path class="bond-32 atom-32 atom-33" d="M 669.42,327.736 L 672.902,322.905" style="fill:none;fill-rule:evenodd;stroke:#000000;stroke-width:2.0px;stroke-linecap:butt;stroke-linejoin:miter;stroke-opacity:1"/>
<path class="bond-32 atom-32 atom-33" d="M 672.902,322.905 L 676.383,318.074" style="fill:none;fill-rule:evenodd;stroke:#FF0000;stroke-width:2.0px;stroke-linecap:butt;stroke-linejoin:miter;stroke-opacity:1"/>
<path class="bond-33 atom-32 atom-34" d="M 669.42,327.736 L 680.374,338.17" style="fill:none;fill-rule:evenodd;stroke:#000000;stroke-width:2.0px;stroke-linecap:butt;stroke-linejoin:miter;stroke-opacity:1"/>
<path class="bond-34 atom-34 atom-35" d="M 681.317,339.353 L 686.059,335.572" style="fill:none;fill-rule:evenodd;stroke:#000000;stroke-width:2.0px;stroke-linecap:butt;stroke-linejoin:miter;stroke-opacity:1"/>
<path class="bond-34 atom-34 atom-35" d="M 686.059,335.572 L 690.801,331.791" style="fill:none;fill-rule:evenodd;stroke:#FF0000;stroke-width:2.0px;stroke-linecap:butt;stroke-linejoin:miter;stroke-opacity:1"/>
<path class="bond-34 atom-34 atom-35" d="M 679.431,336.987 L 684.173,333.206" style="fill:none;fill-rule:evenodd;stroke:#000000;stroke-width:2.0px;stroke-linecap:butt;stroke-linejoin:miter;stroke-opacity:1"/>
<path class="bond-34 atom-34 atom-35" d="M 684.173,333.206 L 688.915,329.425" style="fill:none;fill-rule:evenodd;stroke:#FF0000;stroke-width:2.0px;stroke-linecap:butt;stroke-linejoin:miter;stroke-opacity:1"/>
<path class="bond-35 atom-34 atom-36" d="M 680.374,338.17 L 683.491,343.411" style="fill:none;fill-rule:evenodd;stroke:#000000;stroke-width:2.0px;stroke-linecap:butt;stroke-linejoin:miter;stroke-opacity:1"/>
<path class="bond-35 atom-34 atom-36" d="M 683.491,343.411 L 686.608,348.652" style="fill:none;fill-rule:evenodd;stroke:#0000FF;stroke-width:2.0px;stroke-linecap:butt;stroke-linejoin:miter;stroke-opacity:1"/>
<path class="bond-36 atom-36 atom-37" d="M 690.11,349.867 L 695.446,346.39" style="fill:none;fill-rule:evenodd;stroke:#0000FF;stroke-width:2.0px;stroke-linecap:butt;stroke-linejoin:miter;stroke-opacity:1"/>
<path class="bond-36 atom-36 atom-37" d="M 695.446,346.39 L 700.782,342.913" style="fill:none;fill-rule:evenodd;stroke:#000000;stroke-width:2.0px;stroke-linecap:butt;stroke-linejoin:miter;stroke-opacity:1"/>
<path class="bond-45 atom-40 atom-36" d="M 692.045,365.779 L 690.416,359.736" style="fill:none;fill-rule:evenodd;stroke:#000000;stroke-width:2.0px;stroke-linecap:butt;stroke-linejoin:miter;stroke-opacity:1"/>
<path class="bond-45 atom-40 atom-36" d="M 690.416,359.736 L 688.787,353.693" style="fill:none;fill-rule:evenodd;stroke:#0000FF;stroke-width:2.0px;stroke-linecap:butt;stroke-linejoin:miter;stroke-opacity:1"/>
<path class="bond-37 atom-37 atom-38" d="M 700.782,342.913 L 712.554,352.416" style="fill:none;fill-rule:evenodd;stroke:#000000;stroke-width:2.0px;stroke-linecap:butt;stroke-linejoin:miter;stroke-opacity:1"/>
<path class="bond-38 atom-38 atom-39" d="M 712.554,352.416 L 707.154,366.548" style="fill:none;fill-rule:evenodd;stroke:#000000;stroke-width:2.0px;stroke-linecap:butt;stroke-linejoin:miter;stroke-opacity:1"/>
<path class="bond-39 atom-39 atom-40" d="M 707.154,366.548 L 692.045,365.779" style="fill:none;fill-rule:evenodd;stroke:#000000;stroke-width:2.0px;stroke-linecap:butt;stroke-linejoin:miter;stroke-opacity:1"/>
<path class="bond-40 atom-40 atom-41" d="M 692.045,365.779 L 691.983,372.089" style="fill:none;fill-rule:evenodd;stroke:#000000;stroke-width:2.0px;stroke-linecap:butt;stroke-linejoin:miter;stroke-opacity:1"/>
<path class="bond-40 atom-40 atom-41" d="M 691.983,372.089 L 691.921,378.399" style="fill:none;fill-rule:evenodd;stroke:#CCCC00;stroke-width:2.0px;stroke-linecap:butt;stroke-linejoin:miter;stroke-opacity:1"/>
<path class="bond-41 atom-41 atom-42" d="M 693.648,381.165 L 699.276,381.996" style="fill:none;fill-rule:evenodd;stroke:#CCCC00;stroke-width:2.0px;stroke-linecap:butt;stroke-linejoin:miter;stroke-opacity:1"/>
<path class="bond-41 atom-41 atom-42" d="M 699.276,381.996 L 704.904,382.826" style="fill:none;fill-rule:evenodd;stroke:#0000FF;stroke-width:2.0px;stroke-linecap:butt;stroke-linejoin:miter;stroke-opacity:1"/>
<path class="bond-42 atom-42 atom-43" d="M 706.455,386.192 L 708.251,390.726" style="fill:none;fill-rule:evenodd;stroke:#0000FF;stroke-width:2.0px;stroke-linecap:butt;stroke-linejoin:miter;stroke-opacity:1"/>
<path class="bond-42 atom-42 atom-43" d="M 708.251,390.726 L 710.047,395.26" style="fill:none;fill-rule:evenodd;stroke:#FF0000;stroke-width:2.0px;stroke-linecap:butt;stroke-linejoin:miter;stroke-opacity:1"/>
<path class="bond-42 atom-42 atom-43" d="M 709.268,385.078 L 711.064,389.612" style="fill:none;fill-rule:evenodd;stroke:#0000FF;stroke-width:2.0px;stroke-linecap:butt;stroke-linejoin:miter;stroke-opacity:1"/>
<path class="bond-42 atom-42 atom-43" d="M 711.064,389.612 L 712.86,394.145" style="fill:none;fill-rule:evenodd;stroke:#FF0000;stroke-width:2.0px;stroke-linecap:butt;stroke-linejoin:miter;stroke-opacity:1"/>
<path class="bond-43 atom-42 atom-44" d="M 708.878,380.572 L 711.565,377.179" style="fill:none;fill-rule:evenodd;stroke:#0000FF;stroke-width:2.0px;stroke-linecap:butt;stroke-linejoin:miter;stroke-opacity:1"/>
<path class="bond-43 atom-42 atom-44" d="M 711.565,377.179 L 714.253,373.787" style="fill:none;fill-rule:evenodd;stroke:#FF0000;stroke-width:2.0px;stroke-linecap:butt;stroke-linejoin:miter;stroke-opacity:1"/>
<path class="atom-0" d="M 510.471 375.573 L 511.052 375.573 L 511.052 377.394 L 513.242 377.394 L 513.242 375.573 L 513.823 375.573 L 513.823 379.857 L 513.242 379.857 L 513.242 377.878 L 511.052 377.878 L 511.052 379.857 L 510.471 379.857 L 510.471 375.573 " fill="#0000FF"/>
<path class="atom-0" d="M 514.031 379.707 Q 514.135 379.439, 514.383 379.291 Q 514.63 379.139, 514.974 379.139 Q 515.401 379.139, 515.641 379.371 Q 515.88 379.603, 515.88 380.014 Q 515.88 380.434, 515.569 380.825 Q 515.261 381.216, 514.622 381.68 L 515.928 381.68 L 515.928 381.999 L 514.023 381.999 L 514.023 381.732 Q 514.55 381.356, 514.862 381.077 Q 515.177 380.797, 515.329 380.545 Q 515.481 380.294, 515.481 380.034 Q 515.481 379.763, 515.345 379.611 Q 515.209 379.459, 514.974 379.459 Q 514.746 379.459, 514.594 379.551 Q 514.442 379.643, 514.335 379.846 L 514.031 379.707 " fill="#0000FF"/>
<path class="atom-0" d="M 517.108 375.573 L 518.512 377.842 Q 518.651 378.066, 518.875 378.471 Q 519.099 378.877, 519.111 378.901 L 519.111 375.573 L 519.68 375.573 L 519.68 379.857 L 519.093 379.857 L 517.586 377.376 Q 517.411 377.085, 517.223 376.753 Q 517.042 376.42, 516.987 376.317 L 516.987 379.857 L 516.43 379.857 L 516.43 375.573 L 517.108 375.573 " fill="#0000FF"/>
<path class="atom-2" d="M 534.588 359.17 Q 534.588 358.141, 535.097 357.566 Q 535.605 356.991, 536.555 356.991 Q 537.505 356.991, 538.013 357.566 Q 538.522 358.141, 538.522 359.17 Q 538.522 360.211, 538.007 360.804 Q 537.493 361.391, 536.555 361.391 Q 535.611 361.391, 535.097 360.804 Q 534.588 360.217, 534.588 359.17 M 536.555 360.907 Q 537.209 360.907, 537.56 360.471 Q 537.917 360.029, 537.917 359.17 Q 537.917 358.329, 537.56 357.905 Q 537.209 357.475, 536.555 357.475 Q 535.902 357.475, 535.545 357.899 Q 535.194 358.323, 535.194 359.17 Q 535.194 360.035, 535.545 360.471 Q 535.902 360.907, 536.555 360.907 " fill="#FF0000"/>
<path class="atom-7" d="M 583.715 399.055 L 584.295 399.055 L 584.295 400.876 L 586.486 400.876 L 586.486 399.055 L 587.067 399.055 L 587.067 403.339 L 586.486 403.339 L 586.486 401.36 L 584.295 401.36 L 584.295 403.339 L 583.715 403.339 L 583.715 399.055 " fill="#0000FF"/>
<path class="atom-7" d="M 588.247 399.055 L 589.651 401.324 Q 589.79 401.548, 590.014 401.953 Q 590.238 402.359, 590.25 402.383 L 590.25 399.055 L 590.819 399.055 L 590.819 403.339 L 590.232 403.339 L 588.725 400.858 Q 588.55 400.568, 588.362 400.235 Q 588.18 399.902, 588.126 399.799 L 588.126 403.339 L 587.569 403.339 L 587.569 399.055 L 588.247 399.055 " fill="#0000FF"/>
<path class="atom-9" d="M 586.225 423.992 Q 586.225 422.963, 586.733 422.388 Q 587.241 421.813, 588.191 421.813 Q 589.141 421.813, 589.65 422.388 Q 590.158 422.963, 590.158 423.992 Q 590.158 425.033, 589.644 425.626 Q 589.129 426.213, 588.191 426.213 Q 587.247 426.213, 586.733 425.626 Q 586.225 425.039, 586.225 423.992 M 588.191 425.729 Q 588.845 425.729, 589.196 425.293 Q 589.553 424.851, 589.553 423.992 Q 589.553 423.151, 589.196 422.727 Q 588.845 422.298, 588.191 422.298 Q 587.538 422.298, 587.181 422.721 Q 586.83 423.145, 586.83 423.992 Q 586.83 424.857, 587.181 425.293 Q 587.538 425.729, 588.191 425.729 " fill="#FF0000"/>
<path class="atom-19" d="M 686.709 425.675 Q 686.709 424.61, 687.206 424.054 Q 687.708 423.491, 688.658 423.491 Q 689.541 423.491, 690.013 424.114 L 689.614 424.441 Q 689.269 423.987, 688.658 423.987 Q 688.01 423.987, 687.666 424.423 Q 687.327 424.852, 687.327 425.675 Q 687.327 426.522, 687.678 426.958 Q 688.035 427.394, 688.725 427.394 Q 689.197 427.394, 689.747 427.109 L 689.917 427.563 Q 689.693 427.709, 689.354 427.793 Q 689.015 427.878, 688.64 427.878 Q 687.708 427.878, 687.206 427.309 Q 686.709 426.74, 686.709 425.675 " fill="#00CC00"/>
<path class="atom-19" d="M 690.534 423.231 L 691.091 423.231 L 691.091 427.824 L 690.534 427.824 L 690.534 423.231 " fill="#00CC00"/>
<path class="atom-25" d="M 588.552 344.943 Q 588.6 344.961, 588.8 345.046 Q 589 345.131, 589.217 345.185 Q 589.441 345.234, 589.659 345.234 Q 590.065 345.234, 590.301 345.04 Q 590.537 344.84, 590.537 344.495 Q 590.537 344.259, 590.416 344.114 Q 590.301 343.969, 590.119 343.89 Q 589.938 343.812, 589.635 343.721 Q 589.254 343.606, 589.024 343.497 Q 588.8 343.388, 588.636 343.158 Q 588.479 342.928, 588.479 342.541 Q 588.479 342.002, 588.842 341.669 Q 589.211 341.337, 589.938 341.337 Q 590.434 341.337, 590.996 341.573 L 590.857 342.039 Q 590.343 341.827, 589.956 341.827 Q 589.538 341.827, 589.308 342.002 Q 589.078 342.172, 589.084 342.468 Q 589.084 342.698, 589.199 342.837 Q 589.32 342.976, 589.49 343.055 Q 589.665 343.134, 589.956 343.225 Q 590.343 343.346, 590.573 343.467 Q 590.803 343.588, 590.966 343.836 Q 591.136 344.078, 591.136 344.495 Q 591.136 345.088, 590.736 345.409 Q 590.343 345.724, 589.683 345.724 Q 589.302 345.724, 589.012 345.639 Q 588.727 345.56, 588.388 345.421 L 588.552 344.943 " fill="#CCCC00"/>
<path class="atom-26" d="M 574.947 335.498 Q 574.947 334.469, 575.456 333.894 Q 575.964 333.319, 576.914 333.319 Q 577.864 333.319, 578.372 333.894 Q 578.881 334.469, 578.881 335.498 Q 578.881 336.538, 578.366 337.131 Q 577.852 337.718, 576.914 337.718 Q 575.97 337.718, 575.456 337.131 Q 574.947 336.544, 574.947 335.498 M 576.914 337.234 Q 577.568 337.234, 577.918 336.799 Q 578.276 336.357, 578.276 335.498 Q 578.276 334.656, 577.918 334.233 Q 577.568 333.803, 576.914 333.803 Q 576.26 333.803, 575.903 334.227 Q 575.552 334.65, 575.552 335.498 Q 575.552 336.363, 575.903 336.799 Q 576.26 337.234, 576.914 337.234 " fill="#FF0000"/>
<path class="atom-33" d="M 676.299 315.475 Q 676.299 314.446, 676.807 313.871 Q 677.315 313.296, 678.265 313.296 Q 679.215 313.296, 679.724 313.871 Q 680.232 314.446, 680.232 315.475 Q 680.232 316.515, 679.718 317.109 Q 679.203 317.695, 678.265 317.695 Q 677.321 317.695, 676.807 317.109 Q 676.299 316.522, 676.299 315.475 M 678.265 317.211 Q 678.919 317.211, 679.27 316.776 Q 679.627 316.334, 679.627 315.475 Q 679.627 314.633, 679.27 314.21 Q 678.919 313.78, 678.265 313.78 Q 677.612 313.78, 677.255 314.204 Q 676.904 314.627, 676.904 315.475 Q 676.904 316.34, 677.255 316.776 Q 677.612 317.211, 678.265 317.211 " fill="#FF0000"/>
<path class="atom-33" d="M 680.746 313.345 L 681.327 313.345 L 681.327 315.166 L 683.518 315.166 L 683.518 313.345 L 684.099 313.345 L 684.099 317.629 L 683.518 317.629 L 683.518 315.65 L 681.327 315.65 L 681.327 317.629 L 680.746 317.629 L 680.746 313.345 " fill="#FF0000"/>
<path class="atom-35" d="M 690.236 328.75 Q 690.236 327.722, 690.744 327.147 Q 691.253 326.572, 692.203 326.572 Q 693.153 326.572, 693.661 327.147 Q 694.17 327.722, 694.17 328.75 Q 694.17 329.791, 693.655 330.384 Q 693.141 330.971, 692.203 330.971 Q 691.259 330.971, 690.744 330.384 Q 690.236 329.797, 690.236 328.75 M 692.203 330.487 Q 692.856 330.487, 693.207 330.051 Q 693.564 329.61, 693.564 328.75 Q 693.564 327.909, 693.207 327.486 Q 692.856 327.056, 692.203 327.056 Q 691.549 327.056, 691.192 327.48 Q 690.841 327.903, 690.841 328.75 Q 690.841 329.616, 691.192 330.051 Q 691.549 330.487, 692.203 330.487 " fill="#FF0000"/>
<path class="atom-36" d="M 687.16 349.03 L 688.564 351.3 Q 688.703 351.524, 688.927 351.929 Q 689.151 352.334, 689.163 352.359 L 689.163 349.03 L 689.732 349.03 L 689.732 353.315 L 689.145 353.315 L 687.638 350.834 Q 687.463 350.543, 687.275 350.21 Q 687.093 349.878, 687.039 349.775 L 687.039 353.315 L 686.482 353.315 L 686.482 349.03 L 687.16 349.03 " fill="#0000FF"/>
<path class="atom-41" d="M 686.886 378.765 L 687.467 378.765 L 687.467 380.586 L 689.657 380.586 L 689.657 378.765 L 690.238 378.765 L 690.238 383.049 L 689.657 383.049 L 689.657 381.07 L 687.467 381.07 L 687.467 383.049 L 686.886 383.049 L 686.886 378.765 " fill="#CCCC00"/>
<path class="atom-41" d="M 690.686 382.384 Q 690.734 382.402, 690.934 382.486 Q 691.134 382.571, 691.352 382.626 Q 691.576 382.674, 691.793 382.674 Q 692.199 382.674, 692.435 382.48 Q 692.671 382.281, 692.671 381.936 Q 692.671 381.7, 692.55 381.555 Q 692.435 381.409, 692.253 381.331 Q 692.072 381.252, 691.769 381.161 Q 691.388 381.046, 691.158 380.937 Q 690.934 380.828, 690.771 380.598 Q 690.613 380.369, 690.613 379.981 Q 690.613 379.443, 690.977 379.11 Q 691.346 378.777, 692.072 378.777 Q 692.568 378.777, 693.131 379.013 L 692.992 379.479 Q 692.477 379.267, 692.09 379.267 Q 691.672 379.267, 691.442 379.443 Q 691.213 379.612, 691.219 379.909 Q 691.219 380.139, 691.334 380.278 Q 691.455 380.417, 691.624 380.496 Q 691.8 380.574, 692.09 380.665 Q 692.477 380.786, 692.707 380.907 Q 692.937 381.028, 693.101 381.276 Q 693.27 381.518, 693.27 381.936 Q 693.27 382.529, 692.871 382.85 Q 692.477 383.164, 691.818 383.164 Q 691.436 383.164, 691.146 383.08 Q 690.862 383.001, 690.523 382.862 L 690.686 382.384 " fill="#CCCC00"/>
<path class="atom-42" d="M 705.916 380.972 L 707.32 383.242 Q 707.459 383.465, 707.683 383.871 Q 707.907 384.276, 707.919 384.3 L 707.919 380.972 L 708.488 380.972 L 708.488 385.257 L 707.901 385.257 L 706.394 382.776 Q 706.218 382.485, 706.031 382.152 Q 705.849 381.819, 705.795 381.717 L 705.795 385.257 L 705.238 385.257 L 705.238 380.972 L 705.916 380.972 " fill="#0000FF"/>
<path class="atom-42" d="M 708.847 381.745 L 709.602 381.745 L 709.602 380.95 L 709.937 380.95 L 709.937 381.745 L 710.712 381.745 L 710.712 382.032 L 709.937 382.032 L 709.937 382.831 L 709.602 382.831 L 709.602 382.032 L 708.847 382.032 L 708.847 381.745 " fill="#0000FF"/>
<path class="atom-43" d="M 710.468 397.192 Q 710.468 396.163, 710.976 395.588 Q 711.484 395.013, 712.434 395.013 Q 713.385 395.013, 713.893 395.588 Q 714.401 396.163, 714.401 397.192 Q 714.401 398.232, 713.887 398.825 Q 713.372 399.412, 712.434 399.412 Q 711.49 399.412, 710.976 398.825 Q 710.468 398.238, 710.468 397.192 M 712.434 398.928 Q 713.088 398.928, 713.439 398.493 Q 713.796 398.051, 713.796 397.192 Q 713.796 396.35, 713.439 395.927 Q 713.088 395.497, 712.434 395.497 Q 711.781 395.497, 711.424 395.921 Q 711.073 396.344, 711.073 397.192 Q 711.073 398.057, 711.424 398.493 Q 711.781 398.928, 712.434 398.928 " fill="#FF0000"/>
<path class="atom-44" d="M 714.291 371.269 Q 714.291 370.24, 714.799 369.665 Q 715.308 369.09, 716.258 369.09 Q 717.208 369.09, 717.716 369.665 Q 718.224 370.24, 718.224 371.269 Q 718.224 372.31, 717.71 372.903 Q 717.196 373.49, 716.258 373.49 Q 715.314 373.49, 714.799 372.903 Q 714.291 372.316, 714.291 371.269 M 716.258 373.006 Q 716.911 373.006, 717.262 372.57 Q 717.619 372.128, 717.619 371.269 Q 717.619 370.428, 717.262 370.004 Q 716.911 369.574, 716.258 369.574 Q 715.604 369.574, 715.247 369.998 Q 714.896 370.422, 714.896 371.269 Q 714.896 372.134, 715.247 372.57 Q 715.604 373.006, 716.258 373.006 " fill="#FF0000"/>
<path class="atom-44" d="M 718.424 369.79 L 719.89 369.79 L 719.89 370.109 L 718.424 370.109 L 718.424 369.79 " fill="#FF0000"/>
<path class="bond-0 atom-0 atom-1" d="M 126.735,625.117 L 132.65,628.532" style="fill:none;fill-rule:evenodd;stroke:#7F4C19;stroke-width:2.0px;stroke-linecap:butt;stroke-linejoin:miter;stroke-opacity:1"/>
<path class="bond-0 atom-0 atom-1" d="M 132.65,628.532 L 138.566,631.948" style="fill:none;fill-rule:evenodd;stroke:#000000;stroke-width:2.0px;stroke-linecap:butt;stroke-linejoin:miter;stroke-opacity:1"/>
<path class="bond-1 atom-1 atom-2" d="M 139.322,633.258 L 144.701,630.153" style="fill:none;fill-rule:evenodd;stroke:#000000;stroke-width:2.0px;stroke-linecap:butt;stroke-linejoin:miter;stroke-opacity:1"/>
<path class="bond-1 atom-1 atom-2" d="M 144.701,630.153 L 150.079,627.047" style="fill:none;fill-rule:evenodd;stroke:#FF0000;stroke-width:2.0px;stroke-linecap:butt;stroke-linejoin:miter;stroke-opacity:1"/>
<path class="bond-1 atom-1 atom-2" d="M 137.809,630.637 L 143.188,627.532" style="fill:none;fill-rule:evenodd;stroke:#000000;stroke-width:2.0px;stroke-linecap:butt;stroke-linejoin:miter;stroke-opacity:1"/>
<path class="bond-1 atom-1 atom-2" d="M 143.188,627.532 L 148.566,624.427" style="fill:none;fill-rule:evenodd;stroke:#FF0000;stroke-width:2.0px;stroke-linecap:butt;stroke-linejoin:miter;stroke-opacity:1"/>
<path class="atom-0" d="M 123.228 624.274 Q 123.64 624.389, 123.845 624.644 Q 124.057 624.892, 124.057 625.261 Q 124.057 625.854, 123.676 626.193 Q 123.301 626.526, 122.587 626.526 L 121.147 626.526 L 121.147 622.241 L 122.411 622.241 Q 123.144 622.241, 123.513 622.538 Q 123.882 622.834, 123.882 623.379 Q 123.882 624.026, 123.228 624.274 M 121.721 622.725 L 121.721 624.069 L 122.411 624.069 Q 122.835 624.069, 123.053 623.899 Q 123.277 623.724, 123.277 623.379 Q 123.277 622.725, 122.411 622.725 L 121.721 622.725 M 122.587 626.041 Q 123.004 626.041, 123.228 625.842 Q 123.452 625.642, 123.452 625.261 Q 123.452 624.91, 123.204 624.734 Q 122.962 624.553, 122.496 624.553 L 121.721 624.553 L 121.721 626.041 L 122.587 626.041 " fill="#7F4C19"/>
<path class="atom-0" d="M 125.032 623.415 L 125.098 623.845 Q 125.425 623.361, 125.957 623.361 Q 126.127 623.361, 126.357 623.421 L 126.266 623.93 Q 126.006 623.869, 125.861 623.869 Q 125.606 623.869, 125.437 623.972 Q 125.274 624.069, 125.14 624.305 L 125.14 626.526 L 124.572 626.526 L 124.572 623.415 L 125.032 623.415 " fill="#7F4C19"/>
<path class="atom-2" d="M 149.701 624.395 Q 149.701 623.367, 150.209 622.792 Q 150.717 622.217, 151.667 622.217 Q 152.618 622.217, 153.126 622.792 Q 153.634 623.367, 153.634 624.395 Q 153.634 625.436, 153.12 626.029 Q 152.605 626.616, 151.667 626.616 Q 150.723 626.616, 150.209 626.029 Q 149.701 625.442, 149.701 624.395 M 151.667 626.132 Q 152.321 626.132, 152.672 625.697 Q 153.029 625.255, 153.029 624.395 Q 153.029 623.554, 152.672 623.131 Q 152.321 622.701, 151.667 622.701 Q 151.014 622.701, 150.657 623.125 Q 150.306 623.548, 150.306 624.395 Q 150.306 625.261, 150.657 625.697 Q 151.014 626.132, 151.667 626.132 " fill="#FF0000"/>
<path class="bond-0 atom-0 atom-1" d="M 351.548,644.48 L 345.212,642.893" style="fill:none;fill-rule:evenodd;stroke:#0000FF;stroke-width:2.0px;stroke-linecap:butt;stroke-linejoin:miter;stroke-opacity:1"/>
<path class="bond-0 atom-0 atom-1" d="M 345.212,642.893 L 338.876,641.307" style="fill:none;fill-rule:evenodd;stroke:#000000;stroke-width:2.0px;stroke-linecap:butt;stroke-linejoin:miter;stroke-opacity:1"/>
<path class="bond-1 atom-1 atom-2" d="M 338.876,641.307 L 328.356,652.178" style="fill:none;fill-rule:evenodd;stroke:#000000;stroke-width:2.0px;stroke-linecap:butt;stroke-linejoin:miter;stroke-opacity:1"/>
<path class="bond-1 atom-1 atom-2" d="M 335.123,640.833 L 327.759,648.443" style="fill:none;fill-rule:evenodd;stroke:#000000;stroke-width:2.0px;stroke-linecap:butt;stroke-linejoin:miter;stroke-opacity:1"/>
<path class="bond-28 atom-7 atom-1" d="M 334.721,626.76 L 338.876,641.307" style="fill:none;fill-rule:evenodd;stroke:#000000;stroke-width:2.0px;stroke-linecap:butt;stroke-linejoin:miter;stroke-opacity:1"/>
<path class="bond-2 atom-2 atom-3" d="M 328.356,652.178 L 313.68,648.503" style="fill:none;fill-rule:evenodd;stroke:#000000;stroke-width:2.0px;stroke-linecap:butt;stroke-linejoin:miter;stroke-opacity:1"/>
<path class="bond-3 atom-3 atom-4" d="M 313.68,648.503 L 309.525,633.957" style="fill:none;fill-rule:evenodd;stroke:#000000;stroke-width:2.0px;stroke-linecap:butt;stroke-linejoin:miter;stroke-opacity:1"/>
<path class="bond-3 atom-3 atom-4" d="M 315.966,645.49 L 313.058,635.308" style="fill:none;fill-rule:evenodd;stroke:#000000;stroke-width:2.0px;stroke-linecap:butt;stroke-linejoin:miter;stroke-opacity:1"/>
<path class="bond-4 atom-4 atom-5" d="M 309.525,633.957 L 302.516,632.202" style="fill:none;fill-rule:evenodd;stroke:#000000;stroke-width:2.0px;stroke-linecap:butt;stroke-linejoin:miter;stroke-opacity:1"/>
<path class="bond-4 atom-4 atom-5" d="M 302.516,632.202 L 295.506,630.446" style="fill:none;fill-rule:evenodd;stroke:#00CC00;stroke-width:2.0px;stroke-linecap:butt;stroke-linejoin:miter;stroke-opacity:1"/>
<path class="bond-5 atom-4 atom-6" d="M 309.525,633.957 L 320.045,623.085" style="fill:none;fill-rule:evenodd;stroke:#000000;stroke-width:2.0px;stroke-linecap:butt;stroke-linejoin:miter;stroke-opacity:1"/>
<path class="bond-6 atom-6 atom-7" d="M 320.045,623.085 L 334.721,626.76" style="fill:none;fill-rule:evenodd;stroke:#000000;stroke-width:2.0px;stroke-linecap:butt;stroke-linejoin:miter;stroke-opacity:1"/>
<path class="bond-6 atom-6 atom-7" d="M 321.512,626.571 L 331.784,629.144" style="fill:none;fill-rule:evenodd;stroke:#000000;stroke-width:2.0px;stroke-linecap:butt;stroke-linejoin:miter;stroke-opacity:1"/>
<path class="bond-7 atom-7 atom-8" d="M 334.721,626.76 L 345.241,615.888" style="fill:none;fill-rule:evenodd;stroke:#000000;stroke-width:2.0px;stroke-linecap:butt;stroke-linejoin:miter;stroke-opacity:1"/>
<path class="bond-8 atom-8 atom-9" d="M 345.241,615.888 L 359.916,619.563" style="fill:none;fill-rule:evenodd;stroke:#000000;stroke-width:2.0px;stroke-linecap:butt;stroke-linejoin:miter;stroke-opacity:1"/>
<path class="bond-9 atom-9 atom-10" d="M 359.916,619.563 L 370.436,608.691" style="fill:none;fill-rule:evenodd;stroke:#000000;stroke-width:2.0px;stroke-linecap:butt;stroke-linejoin:miter;stroke-opacity:1"/>
<path class="bond-10 atom-10 atom-11" d="M 370.436,608.691 L 374.111,594.016" style="fill:none;fill-rule:evenodd;stroke:#000000;stroke-width:2.0px;stroke-linecap:butt;stroke-linejoin:miter;stroke-opacity:1"/>
<path class="bond-29 atom-12 atom-10" d="M 384.983,604.536 L 370.436,608.691" style="fill:none;fill-rule:evenodd;stroke:#000000;stroke-width:2.0px;stroke-linecap:butt;stroke-linejoin:miter;stroke-opacity:1"/>
<path class="bond-11 atom-11 atom-12" d="M 374.111,594.016 L 384.983,604.536" style="fill:none;fill-rule:evenodd;stroke:#000000;stroke-width:2.0px;stroke-linecap:butt;stroke-linejoin:miter;stroke-opacity:1"/>
<path class="bond-12 atom-12 atom-13" d="M 384.983,604.536 L 397.231,595.656" style="fill:none;fill-rule:evenodd;stroke:#000000;stroke-width:2.0px;stroke-linecap:butt;stroke-linejoin:miter;stroke-opacity:1"/>
<path class="bond-15 atom-12 atom-16" d="M 384.983,604.536 L 391.601,618.14" style="fill:none;fill-rule:evenodd;stroke:#000000;stroke-width:2.0px;stroke-linecap:butt;stroke-linejoin:miter;stroke-opacity:1"/>
<path class="bond-13 atom-13 atom-14" d="M 397.231,595.656 L 411.045,601.824" style="fill:none;fill-rule:evenodd;stroke:#000000;stroke-width:2.0px;stroke-linecap:butt;stroke-linejoin:miter;stroke-opacity:1"/>
<path class="bond-14 atom-13 atom-15" d="M 397.231,595.656 L 396.579,589.393" style="fill:none;fill-rule:evenodd;stroke:#000000;stroke-width:2.0px;stroke-linecap:butt;stroke-linejoin:miter;stroke-opacity:1"/>
<path class="bond-14 atom-13 atom-15" d="M 396.579,589.393 L 395.927,583.13" style="fill:none;fill-rule:evenodd;stroke:#33CCCC;stroke-width:2.0px;stroke-linecap:butt;stroke-linejoin:miter;stroke-opacity:1"/>
<path class="bond-16 atom-16 atom-17" d="M 391.601,618.14 L 398.27,618.613" style="fill:none;fill-rule:evenodd;stroke:#000000;stroke-width:2.0px;stroke-linecap:butt;stroke-linejoin:miter;stroke-opacity:1"/>
<path class="bond-16 atom-16 atom-17" d="M 398.27,618.613 L 404.939,619.087" style="fill:none;fill-rule:evenodd;stroke:#CCCC00;stroke-width:2.0px;stroke-linecap:butt;stroke-linejoin:miter;stroke-opacity:1"/>
<path class="bond-17 atom-17 atom-18" d="M 407.97,621.84 L 410.64,627.328" style="fill:none;fill-rule:evenodd;stroke:#CCCC00;stroke-width:2.0px;stroke-linecap:butt;stroke-linejoin:miter;stroke-opacity:1"/>
<path class="bond-17 atom-17 atom-18" d="M 410.64,627.328 L 413.309,632.815" style="fill:none;fill-rule:evenodd;stroke:#000000;stroke-width:2.0px;stroke-linecap:butt;stroke-linejoin:miter;stroke-opacity:1"/>
<path class="bond-18 atom-18 atom-19" d="M 413.309,632.815 L 404.837,645.348" style="fill:none;fill-rule:evenodd;stroke:#000000;stroke-width:2.0px;stroke-linecap:butt;stroke-linejoin:miter;stroke-opacity:1"/>
<path class="bond-18 atom-18 atom-19" d="M 414.545,636.39 L 408.614,645.163" style="fill:none;fill-rule:evenodd;stroke:#000000;stroke-width:2.0px;stroke-linecap:butt;stroke-linejoin:miter;stroke-opacity:1"/>
<path class="bond-30 atom-23 atom-18" d="M 428.4,633.886 L 413.309,632.815" style="fill:none;fill-rule:evenodd;stroke:#000000;stroke-width:2.0px;stroke-linecap:butt;stroke-linejoin:miter;stroke-opacity:1"/>
<path class="bond-19 atom-19 atom-20" d="M 404.837,645.348 L 411.455,658.953" style="fill:none;fill-rule:evenodd;stroke:#000000;stroke-width:2.0px;stroke-linecap:butt;stroke-linejoin:miter;stroke-opacity:1"/>
<path class="bond-20 atom-20 atom-21" d="M 411.455,658.953 L 426.545,660.023" style="fill:none;fill-rule:evenodd;stroke:#000000;stroke-width:2.0px;stroke-linecap:butt;stroke-linejoin:miter;stroke-opacity:1"/>
<path class="bond-20 atom-20 atom-21" d="M 413.933,656.095 L 424.496,656.845" style="fill:none;fill-rule:evenodd;stroke:#000000;stroke-width:2.0px;stroke-linecap:butt;stroke-linejoin:miter;stroke-opacity:1"/>
<path class="bond-21 atom-21 atom-22" d="M 426.545,660.023 L 435.018,647.49" style="fill:none;fill-rule:evenodd;stroke:#000000;stroke-width:2.0px;stroke-linecap:butt;stroke-linejoin:miter;stroke-opacity:1"/>
<path class="bond-22 atom-22 atom-23" d="M 435.018,647.49 L 428.4,633.886" style="fill:none;fill-rule:evenodd;stroke:#000000;stroke-width:2.0px;stroke-linecap:butt;stroke-linejoin:miter;stroke-opacity:1"/>
<path class="bond-22 atom-22 atom-23" d="M 431.304,646.773 L 426.672,637.25" style="fill:none;fill-rule:evenodd;stroke:#000000;stroke-width:2.0px;stroke-linecap:butt;stroke-linejoin:miter;stroke-opacity:1"/>
<path class="bond-23 atom-23 atom-24" d="M 428.4,633.886 L 431.784,628.879" style="fill:none;fill-rule:evenodd;stroke:#000000;stroke-width:2.0px;stroke-linecap:butt;stroke-linejoin:miter;stroke-opacity:1"/>
<path class="bond-23 atom-23 atom-24" d="M 431.784,628.879 L 435.169,623.873" style="fill:none;fill-rule:evenodd;stroke:#0000FF;stroke-width:2.0px;stroke-linecap:butt;stroke-linejoin:miter;stroke-opacity:1"/>
<path class="bond-24 atom-24 atom-25" d="M 438.768,623.004 L 444.322,623.398" style="fill:none;fill-rule:evenodd;stroke:#0000FF;stroke-width:2.0px;stroke-linecap:butt;stroke-linejoin:miter;stroke-opacity:1"/>
<path class="bond-24 atom-24 atom-25" d="M 444.322,623.398 L 449.876,623.792" style="fill:none;fill-rule:evenodd;stroke:#000000;stroke-width:2.0px;stroke-linecap:butt;stroke-linejoin:miter;stroke-opacity:1"/>
<path class="bond-24 atom-24 atom-25" d="M 438.982,619.985 L 444.536,620.379" style="fill:none;fill-rule:evenodd;stroke:#0000FF;stroke-width:2.0px;stroke-linecap:butt;stroke-linejoin:miter;stroke-opacity:1"/>
<path class="bond-24 atom-24 atom-25" d="M 444.536,620.379 L 450.09,620.774" style="fill:none;fill-rule:evenodd;stroke:#000000;stroke-width:2.0px;stroke-linecap:butt;stroke-linejoin:miter;stroke-opacity:1"/>
<path class="bond-25 atom-25 atom-26" d="M 453.886,624.076 L 459.569,624.479" style="fill:none;fill-rule:evenodd;stroke:#000000;stroke-width:2.0px;stroke-linecap:butt;stroke-linejoin:miter;stroke-opacity:1"/>
<path class="bond-25 atom-25 atom-26" d="M 459.569,624.479 L 465.251,624.883" style="fill:none;fill-rule:evenodd;stroke:#FF7F00;stroke-width:2.0px;stroke-linecap:butt;stroke-linejoin:miter;stroke-opacity:1"/>
<path class="bond-25 atom-25 atom-26" d="M 454.1,621.058 L 459.783,621.461" style="fill:none;fill-rule:evenodd;stroke:#000000;stroke-width:2.0px;stroke-linecap:butt;stroke-linejoin:miter;stroke-opacity:1"/>
<path class="bond-25 atom-25 atom-26" d="M 459.783,621.461 L 465.465,621.864" style="fill:none;fill-rule:evenodd;stroke:#FF7F00;stroke-width:2.0px;stroke-linecap:butt;stroke-linejoin:miter;stroke-opacity:1"/>
<path class="bond-26 atom-26 atom-27" d="M 468.279,626.014 L 470.975,631.556" style="fill:none;fill-rule:evenodd;stroke:#FF7F00;stroke-width:2.0px;stroke-linecap:butt;stroke-linejoin:miter;stroke-opacity:1"/>
<path class="bond-26 atom-26 atom-27" d="M 470.975,631.556 L 473.671,637.098" style="fill:none;fill-rule:evenodd;stroke:#000000;stroke-width:2.0px;stroke-linecap:butt;stroke-linejoin:miter;stroke-opacity:1"/>
<path class="bond-27 atom-27 atom-28" d="M 473.671,637.098 L 480.391,637.575" style="fill:none;fill-rule:evenodd;stroke:#000000;stroke-width:2.0px;stroke-linecap:butt;stroke-linejoin:miter;stroke-opacity:1"/>
<path class="bond-27 atom-27 atom-28" d="M 480.391,637.575 L 487.11,638.051" style="fill:none;fill-rule:evenodd;stroke:#33CCCC;stroke-width:2.0px;stroke-linecap:butt;stroke-linejoin:miter;stroke-opacity:1"/>
<path class="atom-0" d="M 352.604 642.839 L 354.008 645.108 Q 354.147 645.332, 354.371 645.738 Q 354.595 646.143, 354.607 646.167 L 354.607 642.839 L 355.176 642.839 L 355.176 647.124 L 354.589 647.124 L 353.082 644.643 Q 352.907 644.352, 352.719 644.019 Q 352.537 643.686, 352.483 643.584 L 352.483 647.124 L 351.926 647.124 L 351.926 642.839 L 352.604 642.839 " fill="#0000FF"/>
<path class="atom-0" d="M 355.69 642.839 L 356.271 642.839 L 356.271 644.661 L 358.462 644.661 L 358.462 642.839 L 359.043 642.839 L 359.043 647.124 L 358.462 647.124 L 358.462 645.145 L 356.271 645.145 L 356.271 647.124 L 355.69 647.124 L 355.69 642.839 " fill="#0000FF"/>
<path class="atom-5" d="M 290.747 630.43 Q 290.747 629.365, 291.243 628.808 Q 291.745 628.246, 292.696 628.246 Q 293.579 628.246, 294.051 628.869 L 293.652 629.196 Q 293.307 628.742, 292.696 628.742 Q 292.048 628.742, 291.703 629.178 Q 291.364 629.607, 291.364 630.43 Q 291.364 631.277, 291.715 631.713 Q 292.072 632.149, 292.762 632.149 Q 293.234 632.149, 293.785 631.864 L 293.954 632.318 Q 293.73 632.463, 293.391 632.548 Q 293.053 632.633, 292.677 632.633 Q 291.745 632.633, 291.243 632.064 Q 290.747 631.495, 290.747 630.43 " fill="#00CC00"/>
<path class="atom-5" d="M 294.571 627.985 L 295.128 627.985 L 295.128 632.578 L 294.571 632.578 L 294.571 627.985 " fill="#00CC00"/>
<path class="atom-15" d="M 394.391 578.467 L 396.939 578.467 L 396.939 578.957 L 394.966 578.957 L 394.966 580.258 L 396.721 580.258 L 396.721 580.754 L 394.966 580.754 L 394.966 582.751 L 394.391 582.751 L 394.391 578.467 " fill="#33CCCC"/>
<path class="atom-17" d="M 405.481 620.681 Q 405.529 620.7, 405.729 620.784 Q 405.929 620.869, 406.147 620.923 Q 406.371 620.972, 406.588 620.972 Q 406.994 620.972, 407.23 620.778 Q 407.466 620.579, 407.466 620.234 Q 407.466 619.998, 407.345 619.852 Q 407.23 619.707, 407.048 619.628 Q 406.867 619.55, 406.564 619.459 Q 406.183 619.344, 405.953 619.235 Q 405.729 619.126, 405.566 618.896 Q 405.408 618.666, 405.408 618.279 Q 405.408 617.74, 405.772 617.408 Q 406.141 617.075, 406.867 617.075 Q 407.363 617.075, 407.926 617.311 L 407.787 617.777 Q 407.272 617.565, 406.885 617.565 Q 406.467 617.565, 406.237 617.74 Q 406.008 617.91, 406.014 618.206 Q 406.014 618.436, 406.129 618.576 Q 406.25 618.715, 406.419 618.793 Q 406.595 618.872, 406.885 618.963 Q 407.272 619.084, 407.502 619.205 Q 407.732 619.326, 407.896 619.574 Q 408.065 619.816, 408.065 620.234 Q 408.065 620.827, 407.666 621.147 Q 407.272 621.462, 406.613 621.462 Q 406.231 621.462, 405.941 621.377 Q 405.657 621.299, 405.318 621.159 L 405.481 620.681 " fill="#CCCC00"/>
<path class="atom-17" d="M 408.265 617.72 L 409.73 617.72 L 409.73 618.039 L 408.265 618.039 L 408.265 617.72 " fill="#CCCC00"/>
<path class="atom-24" d="M 431.393 619.21 L 431.974 619.21 L 431.974 621.032 L 434.164 621.032 L 434.164 619.21 L 434.745 619.21 L 434.745 623.495 L 434.164 623.495 L 434.164 621.516 L 431.974 621.516 L 431.974 623.495 L 431.393 623.495 L 431.393 619.21 " fill="#0000FF"/>
<path class="atom-24" d="M 435.925 619.21 L 437.329 621.479 Q 437.468 621.703, 437.692 622.109 Q 437.916 622.514, 437.928 622.538 L 437.928 619.21 L 438.497 619.21 L 438.497 623.495 L 437.91 623.495 L 436.403 621.013 Q 436.228 620.723, 436.04 620.39 Q 435.859 620.057, 435.804 619.954 L 435.804 623.495 L 435.248 623.495 L 435.248 619.21 L 435.925 619.21 " fill="#0000FF"/>
<path class="atom-24" d="M 438.857 619.982 L 439.611 619.982 L 439.611 619.188 L 439.947 619.188 L 439.947 619.982 L 440.722 619.982 L 440.722 620.27 L 439.947 620.27 L 439.947 621.069 L 439.611 621.069 L 439.611 620.27 L 438.857 620.27 L 438.857 619.982 " fill="#0000FF"/>
<path class="atom-25" d="M 450.311 622.441 Q 450.311 621.376, 450.807 620.819 Q 451.309 620.257, 452.259 620.257 Q 453.143 620.257, 453.615 620.88 L 453.215 621.207 Q 452.871 620.753, 452.259 620.753 Q 451.612 620.753, 451.267 621.189 Q 450.928 621.618, 450.928 622.441 Q 450.928 623.288, 451.279 623.724 Q 451.636 624.16, 452.326 624.16 Q 452.798 624.16, 453.349 623.875 L 453.518 624.329 Q 453.294 624.474, 452.955 624.559 Q 452.616 624.644, 452.241 624.644 Q 451.309 624.644, 450.807 624.075 Q 450.311 623.506, 450.311 622.441 " fill="#000000"/>
<path class="atom-26" d="M 466.95 621.352 Q 467.683 621.352, 468.052 621.684 Q 468.421 622.011, 468.421 622.61 Q 468.421 623.203, 468.04 623.542 Q 467.664 623.875, 466.95 623.875 L 466.267 623.875 L 466.267 625.636 L 465.686 625.636 L 465.686 621.352 L 466.95 621.352 M 466.95 623.391 Q 467.368 623.391, 467.592 623.191 Q 467.816 622.991, 467.816 622.61 Q 467.816 622.229, 467.592 622.035 Q 467.374 621.836, 466.95 621.836 L 466.267 621.836 L 466.267 623.391 L 466.95 623.391 " fill="#FF7F00"/>
<path class="atom-26" d="M 468.935 621.352 L 469.516 621.352 L 469.516 623.173 L 471.707 623.173 L 471.707 621.352 L 472.288 621.352 L 472.288 625.636 L 471.707 625.636 L 471.707 623.657 L 469.516 623.657 L 469.516 625.636 L 468.935 625.636 L 468.935 621.352 " fill="#FF7F00"/>
<path class="atom-26" d="M 472.495 625.486 Q 472.599 625.218, 472.847 625.07 Q 473.094 624.918, 473.438 624.918 Q 473.865 624.918, 474.105 625.15 Q 474.345 625.382, 474.345 625.793 Q 474.345 626.213, 474.033 626.604 Q 473.726 626.995, 473.086 627.459 L 474.393 627.459 L 474.393 627.778 L 472.487 627.778 L 472.487 627.511 Q 473.015 627.135, 473.326 626.856 Q 473.642 626.576, 473.793 626.324 Q 473.945 626.073, 473.945 625.813 Q 473.945 625.542, 473.809 625.39 Q 473.674 625.238, 473.438 625.238 Q 473.21 625.238, 473.059 625.33 Q 472.907 625.422, 472.799 625.625 L 472.495 625.486 " fill="#FF7F00"/>
<path class="atom-28" d="M 487.488 636.026 L 490.036 636.026 L 490.036 636.517 L 488.063 636.517 L 488.063 637.818 L 489.818 637.818 L 489.818 638.314 L 488.063 638.314 L 488.063 640.311 L 487.488 640.311 L 487.488 636.026 " fill="#33CCCC"/>
<path d="M 360.253,644.981 L 360.252,644.955 L 360.248,644.93 L 360.243,644.904 L 360.235,644.879 L 360.225,644.855 L 360.213,644.832 L 360.2,644.81 L 360.184,644.789 L 360.167,644.77 L 360.148,644.752 L 360.127,644.736 L 360.105,644.722 L 360.082,644.709 L 360.059,644.699 L 360.034,644.691 L 360.009,644.684 L 359.983,644.681 L 359.957,644.679 L 359.931,644.679 L 359.905,644.682 L 359.879,644.687 L 359.854,644.694 L 359.83,644.704 L 359.807,644.715 L 359.784,644.728 L 359.763,644.744 L 359.743,644.761 L 359.725,644.779 L 359.709,644.799 L 359.694,644.821 L 359.681,644.843 L 359.67,644.867 L 359.661,644.892 L 359.655,644.917 L 359.65,644.942 L 359.648,644.968 L 359.648,644.994 L 359.65,645.02 L 359.655,645.046 L 359.661,645.071 L 359.67,645.096 L 359.681,645.119 L 359.694,645.142 L 359.709,645.163 L 359.725,645.184 L 359.743,645.202 L 359.763,645.219 L 359.784,645.234 L 359.807,645.248 L 359.83,645.259 L 359.854,645.268 L 359.879,645.276 L 359.905,645.281 L 359.931,645.283 L 359.957,645.284 L 359.983,645.282 L 360.009,645.278 L 360.034,645.272 L 360.059,645.264 L 360.082,645.254 L 360.105,645.241 L 360.127,645.227 L 360.148,645.211 L 360.167,645.193 L 360.184,645.174 L 360.2,645.153 L 360.213,645.131 L 360.225,645.108 L 360.235,645.084 L 360.243,645.059 L 360.248,645.033 L 360.252,645.007 L 360.253,644.981 L 359.95,644.981 Z" style="fill:#000000;fill-rule:evenodd;fill-opacity:1;stroke:#000000;stroke-width:0.0px;stroke-linecap:butt;stroke-linejoin:miter;stroke-opacity:1;"/>
<path d="M 410.941,619.211 L 410.94,619.185 L 410.936,619.159 L 410.931,619.134 L 410.923,619.109 L 410.913,619.085 L 410.901,619.062 L 410.887,619.039 L 410.872,619.019 L 410.854,618.999 L 410.835,618.982 L 410.815,618.965 L 410.793,618.951 L 410.77,618.939 L 410.746,618.928 L 410.722,618.92 L 410.696,618.914 L 410.671,618.91 L 410.645,618.908 L 410.619,618.909 L 410.593,618.912 L 410.567,618.917 L 410.542,618.924 L 410.518,618.933 L 410.494,618.945 L 410.472,618.958 L 410.451,618.973 L 410.431,618.99 L 410.413,619.009 L 410.396,619.029 L 410.382,619.05 L 410.369,619.073 L 410.358,619.097 L 410.349,619.121 L 410.343,619.146 L 410.338,619.172 L 410.336,619.198 L 410.336,619.224 L 410.338,619.25 L 410.343,619.276 L 410.349,619.301 L 410.358,619.325 L 410.369,619.349 L 410.382,619.372 L 410.396,619.393 L 410.413,619.413 L 410.431,619.432 L 410.451,619.449 L 410.472,619.464 L 410.494,619.477 L 410.518,619.489 L 410.542,619.498 L 410.567,619.505 L 410.593,619.51 L 410.619,619.513 L 410.645,619.513 L 410.671,619.512 L 410.696,619.508 L 410.722,619.502 L 410.746,619.493 L 410.77,619.483 L 410.793,619.471 L 410.815,619.456 L 410.835,619.44 L 410.854,619.423 L 410.872,619.403 L 410.887,619.382 L 410.901,619.36 L 410.913,619.337 L 410.923,619.313 L 410.931,619.288 L 410.936,619.263 L 410.94,619.237 L 410.941,619.211 L 410.638,619.211 Z" style="fill:#000000;fill-rule:evenodd;fill-opacity:1;stroke:#000000;stroke-width:0.0px;stroke-linecap:butt;stroke-linejoin:miter;stroke-opacity:1;"/>
<path class="bond-0 atom-0 atom-1" d="M 591.825,622.404 L 595.794,625.469" style="fill:none;fill-rule:evenodd;stroke:#FF7F00;stroke-width:2.0px;stroke-linecap:butt;stroke-linejoin:miter;stroke-opacity:1"/>
<path class="bond-0 atom-0 atom-1" d="M 595.794,625.469 L 599.762,628.535" style="fill:none;fill-rule:evenodd;stroke:#FF0000;stroke-width:2.0px;stroke-linecap:butt;stroke-linejoin:miter;stroke-opacity:1"/>
<path class="bond-1 atom-1 atom-2" d="M 604.396,629.341 L 610.222,626.95" style="fill:none;fill-rule:evenodd;stroke:#FF0000;stroke-width:2.0px;stroke-linecap:butt;stroke-linejoin:miter;stroke-opacity:1"/>
<path class="bond-1 atom-1 atom-2" d="M 610.222,626.95 L 616.047,624.56" style="fill:none;fill-rule:evenodd;stroke:#000000;stroke-width:2.0px;stroke-linecap:butt;stroke-linejoin:miter;stroke-opacity:1"/>
<path class="bond-2 atom-2 atom-3" d="M 616.047,624.56 L 628.019,633.808" style="fill:none;fill-rule:evenodd;stroke:#000000;stroke-width:2.0px;stroke-linecap:butt;stroke-linejoin:miter;stroke-opacity:1"/>
<path class="bond-3 atom-3 atom-4" d="M 628.019,633.808 L 642.015,628.064" style="fill:none;fill-rule:evenodd;stroke:#000000;stroke-width:2.0px;stroke-linecap:butt;stroke-linejoin:miter;stroke-opacity:1"/>
<path class="bond-4 atom-4 atom-5" d="M 642.015,628.064 L 644.038,613.072" style="fill:none;fill-rule:evenodd;stroke:#000000;stroke-width:2.0px;stroke-linecap:butt;stroke-linejoin:miter;stroke-opacity:1"/>
<path class="bond-4 atom-4 atom-5" d="M 645.317,626.22 L 646.733,615.725" style="fill:none;fill-rule:evenodd;stroke:#000000;stroke-width:2.0px;stroke-linecap:butt;stroke-linejoin:miter;stroke-opacity:1"/>
<path class="bond-10 atom-9 atom-4" d="M 653.987,637.313 L 642.015,628.064" style="fill:none;fill-rule:evenodd;stroke:#000000;stroke-width:2.0px;stroke-linecap:butt;stroke-linejoin:miter;stroke-opacity:1"/>
<path class="bond-5 atom-5 atom-6" d="M 644.038,613.072 L 658.034,607.328" style="fill:none;fill-rule:evenodd;stroke:#000000;stroke-width:2.0px;stroke-linecap:butt;stroke-linejoin:miter;stroke-opacity:1"/>
<path class="bond-6 atom-6 atom-7" d="M 658.034,607.328 L 670.006,616.576" style="fill:none;fill-rule:evenodd;stroke:#000000;stroke-width:2.0px;stroke-linecap:butt;stroke-linejoin:miter;stroke-opacity:1"/>
<path class="bond-6 atom-6 atom-7" d="M 657.98,611.109 L 666.361,617.583" style="fill:none;fill-rule:evenodd;stroke:#000000;stroke-width:2.0px;stroke-linecap:butt;stroke-linejoin:miter;stroke-opacity:1"/>
<path class="bond-7 atom-7 atom-8" d="M 670.006,616.576 L 667.983,631.569" style="fill:none;fill-rule:evenodd;stroke:#000000;stroke-width:2.0px;stroke-linecap:butt;stroke-linejoin:miter;stroke-opacity:1"/>
<path class="bond-8 atom-8 atom-9" d="M 667.983,631.569 L 653.987,637.313" style="fill:none;fill-rule:evenodd;stroke:#000000;stroke-width:2.0px;stroke-linecap:butt;stroke-linejoin:miter;stroke-opacity:1"/>
<path class="bond-8 atom-8 atom-9" d="M 664.735,629.631 L 654.938,633.652" style="fill:none;fill-rule:evenodd;stroke:#000000;stroke-width:2.0px;stroke-linecap:butt;stroke-linejoin:miter;stroke-opacity:1"/>
<path class="bond-9 atom-9 atom-10" d="M 653.987,637.313 L 653.145,643.549" style="fill:none;fill-rule:evenodd;stroke:#000000;stroke-width:2.0px;stroke-linecap:butt;stroke-linejoin:miter;stroke-opacity:1"/>
<path class="bond-9 atom-9 atom-10" d="M 653.145,643.549 L 652.304,649.785" style="fill:none;fill-rule:evenodd;stroke:#33CCCC;stroke-width:2.0px;stroke-linecap:butt;stroke-linejoin:miter;stroke-opacity:1"/>
<path class="atom-0" d="M 582.74 618.913 L 583.321 618.913 L 583.321 620.734 L 585.512 620.734 L 585.512 618.913 L 586.093 618.913 L 586.093 623.197 L 585.512 623.197 L 585.512 621.218 L 583.321 621.218 L 583.321 623.197 L 582.74 623.197 L 582.74 618.913 " fill="#FF7F00"/>
<path class="atom-0" d="M 586.3 623.047 Q 586.404 622.779, 586.652 622.631 Q 586.899 622.48, 587.243 622.48 Q 587.67 622.48, 587.91 622.711 Q 588.149 622.943, 588.149 623.354 Q 588.149 623.774, 587.838 624.165 Q 587.53 624.556, 586.891 625.02 L 588.197 625.02 L 588.197 625.339 L 586.292 625.339 L 586.292 625.072 Q 586.82 624.696, 587.131 624.417 Q 587.447 624.137, 587.598 623.885 Q 587.75 623.634, 587.75 623.374 Q 587.75 623.103, 587.614 622.951 Q 587.479 622.799, 587.243 622.799 Q 587.015 622.799, 586.863 622.891 Q 586.712 622.983, 586.604 623.187 L 586.3 623.047 " fill="#FF7F00"/>
<path class="atom-0" d="M 589.977 618.913 Q 590.709 618.913, 591.078 619.246 Q 591.447 619.572, 591.447 620.171 Q 591.447 620.764, 591.066 621.103 Q 590.691 621.436, 589.977 621.436 L 589.293 621.436 L 589.293 623.197 L 588.712 623.197 L 588.712 618.913 L 589.977 618.913 M 589.977 620.952 Q 590.394 620.952, 590.618 620.752 Q 590.842 620.553, 590.842 620.171 Q 590.842 619.79, 590.618 619.597 Q 590.4 619.397, 589.977 619.397 L 589.293 619.397 L 589.293 620.952 L 589.977 620.952 " fill="#FF7F00"/>
<path class="atom-1" d="M 600.085 630.316 Q 600.085 629.287, 600.593 628.712 Q 601.102 628.137, 602.052 628.137 Q 603.002 628.137, 603.51 628.712 Q 604.018 629.287, 604.018 630.316 Q 604.018 631.356, 603.504 631.949 Q 602.99 632.536, 602.052 632.536 Q 601.108 632.536, 600.593 631.949 Q 600.085 631.362, 600.085 630.316 M 602.052 632.052 Q 602.705 632.052, 603.056 631.617 Q 603.413 631.175, 603.413 630.316 Q 603.413 629.474, 603.056 629.051 Q 602.705 628.621, 602.052 628.621 Q 601.398 628.621, 601.041 629.045 Q 600.69 629.468, 600.69 630.316 Q 600.69 631.181, 601.041 631.617 Q 601.398 632.052, 602.052 632.052 " fill="#FF0000"/>
<path class="atom-10" d="M 650.69 650.163 L 653.238 650.163 L 653.238 650.653 L 651.265 650.653 L 651.265 651.954 L 653.02 651.954 L 653.02 652.45 L 651.265 652.45 L 651.265 654.447 L 650.69 654.447 L 650.69 650.163 " fill="#33CCCC"/>
</svg>